{
.appVersion = "3098";
.formatVersion = 3;
axes = (
{
name = Year;
tag = YEAR;
},
{
hidden = 1;
name = Weight;
tag = wght;
},
{
hidden = 1;
name = Width;
tag = wdth;
}
);
classes = (
{
automatic = 1;
code = "A Aacute Abreve Acircumflex Adieresis Adotbelow Agrave Amacron Aogonek Aring Aringacute Atilde AE AEacute B Bhook C Cacute Ccaron Ccedilla Ccircumflex Cdotaccent D Eth Dcaron Dcircumflexbelow Dcroat Dhook E Eacute Ebreve Ecaron Ecircumflex Edieresis Edotaccent Edotbelow Egrave Emacron Eogonek Etilde F G Gbreve Gcaron Gcircumflex Gcommaaccent Gdotaccent H Hbar Hcircumflex I IJ Iacute Ibreve Icircumflex Idieresis Idotaccent Idotbelow Igrave Imacron Iogonek Itilde J Jacute Jcircumflex K Kcommaaccent Khook L Lacute Lcaron Lcircumflexbelow Lcommaaccent Ldot Lslash M N Nacute Ncaron Ncircumflexbelow Ncommaaccent Ndotaccent Nhookleft Ntilde Eng O Oacute Obreve Ocircumflex Odieresis Odotbelow Ograve Ohungarumlaut Omacron Oogonek Oslash Oslashacute Otilde OE P Thorn Q R Racute Rcaron Rcommaaccent S Sacute Scaron Scedilla Scircumflex Scommaaccent Sdotbelow Germandbls Schwa T Tbar Tcaron Tcedilla Tcircumflexbelow Tcommaaccent U Uacute Ubreve Ucircumflex Udieresis Udotbelow Ugrave Uhungarumlaut Umacron Uogonek Uring Utilde V W Wacute Wcircumflex Wdieresis Wgrave X Y Yacute Ycircumflex Ydieresis Ygrave Yhook Ymacron Ytilde Z Zacute Zcaron Zdotaccent Delta Omega";
name = Uppercase;
}
);
customParameters = (
{
name = "Axis Mappings";
value = {
YEAR = {
1979 = 1979;
1990 = 1994;
2000 = 1992;
2010 = 2012;
2019 = 2019;
2030 = 2028;
2040 = 2040;
2050 = 2050;
};
wdth = {
0 = 0;
};
wght = {
0 = 0;
};
};
},
{
name = "Use Typo Metrics";
value = 1;
},
{
name = "Variable Font Origin";
value = "F6D8640C-383C-48A8-B63C-DDE9F10207CE";
},
{
name = fsType;
value = (
);
}
);
date = "2020-03-01 19:22:25 +0000";
familyName = "Climate Crisis";
featurePrefixes = (
{
automatic = 1;
code = "languagesystem DFLT dflt;

languagesystem latn dflt;
languagesystem latn AZE;
languagesystem latn CRT;

glyphs = (
{
color = 6;
glyphname = A;
kernLeft = A;
kernRight = A;
lastChange = "2021-09-04 07:33:57 +0000";
layers = (
{
anchors = (
{
name = bottom;
pos = (586,0);
},
{
name = ogonek;
pos = (925,10);
},
{
name = top;
pos = (584,750);
}
);
associatedMasterId = "F6D8640C-383C-48A8-B63C-DDE9F10207CE";
layerId = "29AA7D90-CFC8-44D1-A192-93315123CF78";
name = "Mar 4 20, 18:21";
shapes = (
{
closed = 1;
nodes = (
(238,750,l),
(159,500,o),
(79,250,o),
(0,0,c),
(474,0,l),
(492,72,l),
(497,72,o),
(501,72,o),
(506,72,c),
(641,72,l),
(647,72,o),
(652,72,o),
(658,72,c),
(676,0,l),
(1170,0,l),
(1090,250,o),
(1010,500,o),
(930,750,c)
);
},
{
closed = 1;
nodes = (
(515,244,o),
(573,502,o),
(574,502,cs),
(574,502,o),
(575,502,o),
(575,502,cs),
(576,502,o),
(635,244,o),
(635,243,cs),
(635,243,o),
(635,242,o),
(634,242,cs),
(516,242,ls),
(515,242,o),
(515,242,o),
(515,243,cs)
);
}
);
width = 1172;
},
{
anchors = (
{
name = bottom;
pos = (586,0);
},
{
name = ogonek;
pos = (925,10);
},
{
name = top;
pos = (584,750);
}
);
associatedMasterId = "F6D8640C-383C-48A8-B63C-DDE9F10207CE";
layerId = "84B1B6B5-9D33-436B-9920-0DA1D80E059D";
name = "Mar 4 20, 18:33";
shapes = (
{
closed = 1;
nodes = (
(238,750,l),
(159,500,o),
(79,250,o),
(0,0,c),
(490,0,l),
(507,98,l),
(511,98,o),
(515,98,o),
(519,98,c),
(629,98,l),
(634,98,o),
(638,98,o),
(643,98,c),
(660,0,l),
(1170,0,l),
(1090,250,o),
(1010,500,o),
(930,750,c)
);
},
{
closed = 1;
nodes = (
(519,170,o),
(573,502,o),
(574,502,cs),
(574,502,o),
(575,502,o),
(575,502,cs),
(576,502,o),
(631,170,o),
(631,169,cs),
(631,169,o),
(631,168,o),
(630,168,cs),
(520,168,ls),
(519,168,o),
(519,168,o),
(519,169,cs)
);
}
);
width = 1172;
},
{
anchors = (
{
name = bottom;
pos = (586,0);
},
{
name = ogonek;
pos = (925,10);
},
{
name = top;
pos = (584,750);
}
);
associatedMasterId = "F6D8640C-383C-48A8-B63C-DDE9F10207CE";
layerId = "C8A963FD-30F0-4F52-BE75-79D27FBE8897";
name = "Mar 4 20, 18:33";
shapes = (
{
closed = 1;
nodes = (
(238,750,l),
(159,500,o),
(79,250,o),
(0,0,c),
(490,0,l),
(507,98,l),
(511,98,o),
(515,98,o),
(519,98,c),
(629,98,l),
(634,98,o),
(638,98,o),
(643,98,c),
(660,0,l),
(1170,0,l),
(1090,250,o),
(1010,500,o),
(930,750,c)
);
},
{
closed = 1;
nodes = (
(519,170,o),
(573,502,o),
(574,502,cs),
(574,502,o),
(575,502,o),
(575,502,cs),
(576,502,o),
(631,170,o),
(631,169,cs),
(631,169,o),
(631,168,o),
(630,168,cs),
(520,168,ls),
(519,168,o),
(519,168,o),
(519,169,cs)
);
}
);
width = 1172;
},
{
anchors = (
{
name = bottom;
pos = (586,0);
},
{
name = ogonek;
pos = (925,10);
},
{
name = top;
pos = (584,750);
}
);
associatedMasterId = "F6D8640C-383C-48A8-B63C-DDE9F10207CE";
layerId = "EEF04DDE-9EFB-4C96-AE08-0078EB45FFEA";
name = " ";
shapes = (
{
closed = 1;
nodes = (
(238,750,l),
(159,500,o),
(79,250,o),
(0,0,c),
(462,0,l),
(484,90,l),
(488,90,o),
(494,90,o),
(498,90,c),
(648,90,l),
(654,90,o),
(661,90,o),
(666,90,c),
(688,0,l),
(1170,0,l),
(1090,250,o),
(1010,500,o),
(930,750,c)
);
},
{
closed = 1;
nodes = (
(518,226,o),
(573,502,o),
(574,502,cs),
(574,502,o),
(575,502,o),
(575,502,cs),
(576,502,o),
(632,226,o),
(632,225,cs),
(632,225,o),
(632,224,o),
(632,224,cs),
(518,224,ls),
(518,224,o),
(518,224,o),
(518,225,cs)
);
}
);
width = 1172;
},
{
anchors = (
{
name = bottom;
pos = (586,0);
},
{
name = ogonek;
pos = (925,10);
},
{
name = top;
pos = (584,750);
}
);
associatedMasterId = "F6D8640C-383C-48A8-B63C-DDE9F10207CE";
layerId = "0DF7EF48-7057-4045-9CD8-CF42F3589C84";
name = "Mar 5 20, 10:37";
shapes = (
{
closed = 1;
nodes = (
(238,750,l),
(30,0,l),
(495,0,l),
(511,98,l),
(515,98,o),
(519,98,o),
(522,98,c),
(626,98,l),
(631,98,o),
(634,98,o),
(639,98,c),
(655,0,l),
(1140,0,l),
(930,750,l)
);
},
{
closed = 1;
nodes = (
(522,170,o),
(573,502,o),
(574,502,cs),
(574,502,o),
(575,502,o),
(575,502,cs),
(576,502,o),
(628,170,o),
(628,169,cs),
(628,169,o),
(628,168,o),
(627,168,cs),
(523,168,ls),
(522,168,o),
(522,168,o),
(522,169,cs)
);
}
);
width = 1172;
},
{
anchors = (
{
name = bottom;
pos = (586,0);
},
{
name = ogonek;
pos = (925,10);
},
{
name = top;
pos = (584,750);
}
);
associatedMasterId = "F6D8640C-383C-48A8-B63C-DDE9F10207CE";
layerId = "DDCF3D20-FD90-4E9F-970D-8AC53C63E4D8";
name = "Mar 5 20, 10:38";
shapes = (
{
closed = 1;
nodes = (
(238,750,l),
(30,0,l),
(495,0,l),
(511,98,l),
(515,98,o),
(519,98,o),
(522,98,c),
(626,98,l),
(631,98,o),
(634,98,o),
(639,98,c),
(655,0,l),
(1140,0,l),
(930,750,l)
);
},
{
closed = 1;
nodes = (
(522,170,o),
(573,502,o),
(574,502,cs),
(574,502,o),
(575,502,o),
(575,502,cs),
(576,502,o),
(628,170,o),
(628,169,cs),
(628,169,o),
(628,168,o),
(627,168,cs),
(523,168,ls),
(522,168,o),
(522,168,o),
(522,169,cs)
);
}
);
width = 1172;
},
{
anchors = (
{
name = bottom;
pos = (556,0);
},
{
name = ogonek;
pos = (895,10);
},
{
name = top;
pos = (554,750);
}
);
associatedMasterId = "F6D8640C-383C-48A8-B63C-DDE9F10207CE";
layerId = "B339213B-30E7-475B-BA84-DC26EBA7980C";
name = "Mar 5 20, 17:08";
shapes = (
{
closed = 1;
nodes = (
(238,750,l),
(159,500,o),
(79,250,o),
(0,0,c),
(440,0,l),
(460,90,l),
(464,90,o),
(469,90,o),
(473,90,c),
(613,90,l),
(619,90,o),
(625,90,o),
(630,90,c),
(650,0,l),
(1100,0,l),
(1020,250,o),
(940,500,o),
(860,750,c)
);
},
{
closed = 1;
nodes = (
(492,226,o),
(543,502,o),
(544,502,c),
(544,502,o),
(545,502,o),
(545,502,c),
(546,502,o),
(598,226,o),
(598,225,cs),
(598,225,o),
(598,224,o),
(598,224,cs),
(492,224,ls),
(492,224,o),
(492,224,o),
(492,225,cs)
);
}
);
width = 1100;
},
{
anchors = (
{
name = bottom;
pos = (586,0);
},
{
name = ogonek;
pos = (925,10);
},
{
name = top;
pos = (584,750);
}
);
associatedMasterId = "F6D8640C-383C-48A8-B63C-DDE9F10207CE";
layerId = "0BBCEF7D-5A81-41B3-8593-0886305D369F";
name = "Mar 5 20, 17:12";
shapes = (
{
closed = 1;
nodes = (
(238,750,l),
(159,500,o),
(79,250,o),
(0,0,c),
(474,0,l),
(492,72,l),
(497,72,o),
(501,72,o),
(506,72,c),
(641,72,l),
(647,72,o),
(652,72,o),
(658,72,c),
(676,0,l),
(1170,0,l),
(1090,250,o),
(1010,500,o),
(930,750,c)
);
},
{
closed = 1;
nodes = (
(515,244,o),
(573,502,o),
(574,502,cs),
(574,502,o),
(575,502,o),
(575,502,cs),
(576,502,o),
(635,244,o),
(635,243,cs),
(635,243,o),
(635,242,o),
(634,242,cs),
(516,242,ls),
(515,242,o),
(515,242,o),
(515,243,cs)
);
}
);
width = 1170;
},
{
anchors = (
{
name = bottom;
pos = (525,0);
},
{
name = ogonek;
pos = (945,0);
},
{
name = top;
pos = (523,750);
}
);
layerId = "F6D8640C-383C-48A8-B63C-DDE9F10207CE";
shapes = (
{
closed = 1;
nodes = (
(212,750,l),
(142,500,o),
(72,250,o),
(2,0,c),
(429,0,l),
(446,98,l),
(450,98,o),
(454,98,o),
(458,98,c),
(568,98,l),
(573,98,o),
(577,98,o),
(582,98,c),
(599,0,l),
(1045,0,l),
(974,250,o),
(904,500,o),
(833,750,c)
);
},
{
closed = 1;
nodes = (
(458,170,o),
(512,502,o),
(513,502,cs),
(513,502,o),
(514,502,o),
(514,502,cs),
(515,502,o),
(570,170,o),
(570,169,cs),
(570,169,o),
(570,168,o),
(569,168,cs),
(459,168,ls),
(458,168,o),
(458,168,o),
(458,169,cs)
);
}
);
width = 1047;
},
{
anchors = (
{
name = bottom;
pos = (577,0);
},
{
name = ogonek;
pos = (862,115);
},
{
name = top;
pos = (577,750);
}
);
associatedMasterId = "96858A69-C8A6-410B-90BB-94EA0DA45935";
background = {
shapes = (
{
closed = 1;
nodes = (
(157,115,l),
(393,115,l),
(394,118,l),
(396,130,o),
(400,141,o),
(405,152,c),
(404,163,o),
(404,175,o),
(406,187,c),
(462,517,l),
(471,573,o),
(519,613,o),
(575,613,c),
(631,613,o),
(679,573,o),
(689,517,c),
(745,187,l),
(747,175,o),
(747,163,o),
(745,152,c),
(751,141,o),
(754,130,o),
(757,118,c),
(757,115,l),
(1013,115,l),
(846,635,l),
(322,635,l)
);
},
{
closed = 1;
nodes = (
(660,0,l),
(643,98,l),
(507,98,l),
(490,0,l),
(0,0,l),
(238,750,l),
(930,750,l),
(1170,1,l),
(1170,0,l)
);
},
{
closed = 1;
nodes = (
(631,168,l),
(575,498,l),
(519,168,l)
);
},
{
closed = 1;
nodes = (
(0,0,l),
(490,0,l),
(507,98,l),
(643,98,l),
(660,0,l),
(1170,0,l),
(1170,1,l),
(930,750,l),
(238,750,l)
);
},
{
closed = 1;
nodes = (
(575,498,l),
(631,168,l),
(519,168,l)
);
},
{
closed = 1;
nodes = (
(757,118,l),
(754,130,o),
(751,141,o),
(745,152,c),
(747,163,o),
(747,175,o),
(745,187,c),
(689,517,l),
(679,573,o),
(631,613,o),
(575,613,c),
(519,613,o),
(471,573,o),
(462,517,c),
(406,187,l),
(404,175,o),
(404,163,o),
(405,152,c),
(400,141,o),
(396,130,o),
(394,118,c),
(393,115,l),
(157,115,l),
(322,635,l),
(846,635,l),
(1013,115,l),
(757,115,l)
);
}
);
};
layerId = "6B082612-19F7-4598-81B6-8C1362206A0F";
name = "15 May 21, 13:39";
shapes = (
{
closed = 1;
nodes = (
(385,645,l),
(416,463,o),
(144,238,o),
(144,115,c),
(309,115,l),
(309,119,l),
(320,146,o),
(335,168,o),
(395,168,cs),
(684,168,ls),
(718,168,o),
(752,138,o),
(755,116,c),
(755,115,l),
(1002,115,l),
(1034,242,o),
(762,469,o),
(812,645,c)
);
},
{
closed = 1;
nodes = (
(330,385,o),
(364,645,o),
(547,645,cs),
(562,645,o),
(581,645,o),
(591,645,cs),
(720,645,o),
(793,455,o),
(804,332,cs),
(814,215,o),
(740,168,o),
(671,168,cs),
(395,168,ls),
(347,168,o),
(308,231,o),
(320,314,cs)
);
}
);
width = 1172;
},
{
anchors = (
{
name = bottom;
pos = (586,0);
},
{
name = ogonek;
pos = (1006,0);
},
{
name = top;
pos = (584,750);
}
);
associatedMasterId = "F6D8640C-383C-48A8-B63C-DDE9F10207CE";
layerId = "D73C5A58-2FA6-47EA-86A4-CBAEEACD0B91";
name = "15 May 21, 13:39";
shapes = (
{
closed = 1;
nodes = (
(238,750,l),
(159,500,o),
(79,250,o),
(0,0,c),
(490,0,l),
(507,98,l),
(511,98,o),
(515,98,o),
(519,98,c),
(629,98,l),
(634,98,o),
(638,98,o),
(643,98,c),
(660,0,l),
(1170,0,l),
(1090,250,o),
(1010,500,o),
(930,750,c)
);
},
{
closed = 1;
nodes = (
(519,170,o),
(573,502,o),
(574,502,cs),
(574,502,o),
(575,502,o),
(575,502,cs),
(576,502,o),
(631,170,o),
(631,169,cs),
(631,169,o),
(631,168,o),
(630,168,cs),
(520,168,ls),
(519,168,o),
(519,168,o),
(519,169,cs)
);
}
);
visible = 1;
width = 1172;
},
{
anchors = (
{
name = bottom;
pos = (586,0);
},
{
name = ogonek;
pos = (1006,0);
},
{
name = top;
pos = (584,750);
}
);
associatedMasterId = "F6D8640C-383C-48A8-B63C-DDE9F10207CE";
layerId = "754B0DAB-0486-4707-8023-4236E432156B";
name = "18 Aug 21, 14:35";
shapes = (
{
closed = 1;
nodes = (
(238,750,l),
(159,500,o),
(79,250,o),
(0,0,c),
(490,0,l),
(507,98,l),
(511,98,o),
(515,98,o),
(519,98,c),
(629,98,l),
(634,98,o),
(638,98,o),
(643,98,c),
(660,0,l),
(1170,0,l),
(1090,250,o),
(1010,500,o),
(930,750,c)
);
},
{
closed = 1;
nodes = (
(519,170,o),
(573,502,o),
(574,502,cs),
(574,502,o),
(575,502,o),
(575,502,cs),
(576,502,o),
(631,170,o),
(631,169,cs),
(631,169,o),
(631,168,o),
(630,168,cs),
(520,168,ls),
(519,168,o),
(519,168,o),
(519,169,cs)
);
}
);
width = 1170;
},
{
anchors = (
{
name = bottom;
pos = (543,0);
},
{
name = ogonek;
pos = (963,0);
},
{
name = top;
pos = (541,750);
}
);
associatedMasterId = "F6D8640C-383C-48A8-B63C-DDE9F10207CE";
layerId = "7E4DE32C-18B3-43AF-8D7C-0BF0A05D9890";
name = "19 Aug 21, 12:59";
shapes = (
{
closed = 1;
nodes = (
(238,750,l),
(159,500,o),
(79,250,o),
(0,0,c),
(447,0,l),
(464,98,l),
(468,98,o),
(472,98,o),
(476,98,c),
(586,98,l),
(591,98,o),
(595,98,o),
(600,98,c),
(617,0,l),
(1083,0,l),
(1003,250,o),
(923,500,o),
(843,750,c)
);
},
{
closed = 1;
nodes = (
(476,170,o),
(530,502,o),
(531,502,cs),
(531,502,o),
(532,502,o),
(532,502,cs),
(533,502,o),
(588,170,o),
(588,169,cs),
(588,169,o),
(588,168,o),
(587,168,cs),
(477,168,ls),
(476,168,o),
(476,168,o),
(476,169,cs)
);
}
);
width = 1083;
},
{
anchors = (
{
name = bottom;
pos = (523,0);
},
{
name = ogonek;
pos = (943,0);
},
{
name = top;
pos = (521,750);
}
);
associatedMasterId = "F6D8640C-383C-48A8-B63C-DDE9F10207CE";
layerId = "8F27FE2C-2F25-45D4-8534-524A74005E5F";
name = "20 Aug 21, 11:06";
shapes = (
{
closed = 1;
nodes = (
(238,750,l),
(159,500,o),
(79,250,o),
(0,0,c),
(427,0,l),
(444,98,l),
(448,98,o),
(452,98,o),
(456,98,c),
(566,98,l),
(571,98,o),
(575,98,o),
(580,98,c),
(597,0,l),
(1043,0,l),
(963,250,o),
(883,500,o),
(803,750,c)
);
},
{
closed = 1;
nodes = (
(456,170,o),
(510,502,o),
(511,502,cs),
(511,502,o),
(512,502,o),
(512,502,cs),
(513,502,o),
(568,170,o),
(568,169,cs),
(568,169,o),
(568,168,o),
(567,168,cs),
(457,168,ls),
(456,168,o),
(456,168,o),
(456,169,cs)
);
}
);
width = 1043;
},
{
anchors = (
{
name = bottom;
pos = (517,0);
},
{
name = ogonek;
pos = (802,115);
},
{
name = top;
pos = (517,750);
}
);
layerId = "96858A69-C8A6-410B-90BB-94EA0DA45935";
name = "2050";
shapes = (
{
closed = 1;
nodes = (
(325,645,l),
(356,463,o),
(84,238,o),
(84,115,c),
(249,115,l),
(249,116,l),
(258,146,o),
(275,168,o),
(335,168,cs),
(624,168,ls),
(658,168,o),
(692,138,o),
(695,116,c),
(695,115,l),
(942,115,l),
(974,242,o),
(702,469,o),
(752,645,c)
);
},
{
closed = 1;
nodes = (
(258,331,o),
(289,645,o),
(487,645,cs),
(502,645,o),
(521,645,o),
(531,645,cs),
(670,645,o),
(745,422,o),
(745,309,cs),
(745,215,o),
(682,168,o),
(611,168,cs),
(335,168,ls),
(288,168,o),
(258,222,o),
(258,280,cs)
);
}
);
width = 1032;
},
{
anchors = (
{
name = bottom;
pos = (577,0);
},
{
name = ogonek;
pos = (862,115);
},
{
name = top;
pos = (577,750);
}
);
associatedMasterId = "96858A69-C8A6-410B-90BB-94EA0DA45935";
layerId = "D985393F-EB55-47C8-8071-A14B1D7923D2";
name = "31 Aug 21, 09:23";
shapes = (
{
closed = 1;
nodes = (
(385,645,l),
(416,463,o),
(144,238,o),
(144,115,c),
(309,115,l),
(309,116,l),
(318,146,o),
(335,168,o),
(395,168,cs),
(684,168,ls),
(718,168,o),
(752,138,o),
(755,116,c),
(755,115,l),
(1002,115,l),
(1034,242,o),
(762,469,o),
(812,645,c)
);
},
{
closed = 1;
nodes = (
(318,331,o),
(349,645,o),
(547,645,cs),
(562,645,o),
(581,645,o),
(591,645,cs),
(730,645,o),
(805,422,o),
(805,309,cs),
(805,215,o),
(742,168,o),
(671,168,cs),
(395,168,ls),
(348,168,o),
(318,222,o),
(318,280,cs)
);
}
);
width = 1172;
}
);
unicode = 65;
},
{
color = 6;
glyphname = Aogonek;
kernLeft = A;
kernRight = A;
lastChange = "2021-09-04 07:33:57 +0000";
layers = (
{
layerId = "96858A69-C8A6-410B-90BB-94EA0DA45935";
shapes = (
{
closed = 1;
nodes = (
(736,-105,o),
(782,-77,o),
(810,-34,c),
(810,-33,l),
(805,-34,o),
(800,-34,o),
(795,-34,cs),
(762,-34,o),
(740,-15,o),
(740,15,cs),
(740,42,o),
(759,78,o),
(805,115,c),
(942,115,l),
(974,242,o),
(702,469,o),
(752,645,c),
(325,645,l),
(356,463,o),
(84,238,o),
(84,115,c),
(249,115,l),
(249,116,l),
(258,146,o),
(275,168,o),
(335,168,cs),
(624,168,ls),
(658,168,o),
(692,138,o),
(695,116,c),
(695,115,l),
(906,95,o),
(596,57,o),
(596,-45,cs),
(596,-77,o),
(625,-105,o),
(681,-105,cs)
);
},
{
closed = 1;
nodes = (
(287,168,o),
(258,222,o),
(258,280,cs),
(258,331,o),
(289,645,o),
(487,645,cs),
(526,645,o),
(403,645,o),
(531,645,cs),
(670,645,o),
(745,422,o),
(745,309,cs),
(745,215,o),
(682,168,o),
(611,168,cs),
(335,168,ls)
);
}
);
width = 1032;
},
{
background = {
anchors = (
{
name = bottom;
pos = (482,0);
},
{
name = ogonek;
pos = (902,0);
},
{
name = top;
pos = (480,750);
}
);
shapes = (
{
pos = (2,0);
ref = A;
}
);
};
layerId = "F6D8640C-383C-48A8-B63C-DDE9F10207CE";
name = Regular;
shapes = (
{
closed = 1;
nodes = (
(837,-308,o),
(879,-300,o),
(934,-285,c),
(934,-89,l),
(904,-101,o),
(882,-105,o),
(854,-105,cs),
(820,-105,o),
(800,-92,o),
(800,-70,cs),
(800,-43,o),
(829,0,o),
(953,0,cs),
(1045,0,l),
(974,250,o),
(904,500,o),
(833,750,c),
(212,750,l),
(142,500,o),
(72,250,o),
(2,0,c),
(429,0,l),
(446,98,l),
(450,98,o),
(454,98,o),
(458,98,c),
(568,98,l),
(573,98,o),
(577,98,o),
(582,98,c),
(599,0,l),
(554,-37,o),
(531,-85,o),
(531,-140,cs),
(531,-247,o),
(612,-308,o),
(775,-308,cs)
);
},
{
closed = 1;
nodes = (
(458,168,o),
(458,168,o),
(458,169,cs),
(458,170,o),
(512,502,o),
(513,502,cs),
(513,502,o),
(514,502,o),
(514,502,cs),
(515,502,o),
(570,170,o),
(570,169,cs),
(570,169,o),
(570,168,o),
(569,168,cs),
(459,168,ls)
);
}
);
width = 1047;
},
{
anchors = (
{
name = bottom;
pos = (586,0);
},
{
name = ogonek;
pos = (925,10);
},
{
name = top;
pos = (584,750);
}
);
associatedMasterId = "F6D8640C-383C-48A8-B63C-DDE9F10207CE";
layerId = "0C0EDD65-BB6E-4243-86EE-A60CC14526BC";
name = "06 May 21, 22:49";
shapes = (
{
closed = 1;
nodes = (
(898,-308,o),
(940,-300,o),
(995,-285,c),
(995,-89,l),
(965,-101,o),
(940,-105,o),
(912,-105,cs),
(878,-105,o),
(861,-95,o),
(861,-73,cs),
(861,-43,o),
(901,-10,o),
(1014,0,c),
(1170,0,l),
(1090,250,o),
(1010,500,o),
(930,750,c),
(238,750,l),
(159,500,o),
(79,250,o),
(0,0,c),
(490,0,l),
(507,98,l),
(511,98,o),
(515,98,o),
(519,98,c),
(629,98,l),
(634,98,o),
(638,98,o),
(643,98,c),
(659,10,l),
(615,-38,o),
(592,-95,o),
(592,-144,cs),
(592,-245,o),
(673,-308,o),
(836,-308,cs)
);
},
{
closed = 1;
nodes = (
(519,168,o),
(519,168,o),
(519,169,cs),
(519,170,o),
(573,502,o),
(574,502,cs),
(574,502,o),
(575,502,o),
(575,502,cs),
(576,502,o),
(631,170,o),
(631,169,cs),
(631,169,o),
(631,168,o),
(630,168,cs),
(520,168,ls)
);
}
);
width = 1172;
},
{
anchors = (
{
name = bottom;
pos = (577,0);
},
{
name = top;
pos = (577,750);
}
);
associatedMasterId = "96858A69-C8A6-410B-90BB-94EA0DA45935";
background = {
shapes = (
{
ref = A;
}
);
};
layerId = "E78662C5-EEA3-4F45-80BC-AC26DA584753";
name = "15 May 21, 13:50";
shapes = (
{
closed = 1;
nodes = (
(796,-105,o),
(842,-77,o),
(870,-34,c),
(870,-33,l),
(865,-34,o),
(860,-34,o),
(855,-34,cs),
(822,-34,o),
(800,-15,o),
(800,15,cs),
(800,42,o),
(819,78,o),
(865,115,c),
(1002,115,l),
(1034,242,o),
(762,469,o),
(812,645,c),
(385,645,l),
(416,463,o),
(144,238,o),
(144,115,c),
(309,115,l),
(309,119,l),
(320,146,o),
(335,168,o),
(395,168,cs),
(684,168,ls),
(718,168,o),
(755,138,o),
(755,116,c),
(755,115,l),
(961,95,o),
(656,57,o),
(656,-45,cs),
(656,-77,o),
(685,-105,o),
(741,-105,cs)
);
},
{
closed = 1;
nodes = (
(347,168,o),
(308,231,o),
(320,314,cs),
(330,385,o),
(371,645,o),
(532,645,cs),
(588,645,o),
(448,645,o),
(576,645,cs),
(705,645,o),
(793,455,o),
(804,332,cs),
(814,215,o),
(740,168,o),
(671,168,cs),
(395,168,ls)
);
}
);
width = 1172;
},
{
associatedMasterId = "F6D8640C-383C-48A8-B63C-DDE9F10207CE";
background = {
anchors = (
{
name = bottom;
pos = (543,0);
},
{
name = ogonek;
pos = (963,0);
},
{
name = top;
pos = (541,750);
}
);
};
layerId = "0AB3E204-DFEE-4E94-8C78-B76062A87042";
name = "18 Aug 21, 15:40";
shapes = (
{
closed = 1;
nodes = (
(898,-308,o),
(940,-300,o),
(995,-285,c),
(995,-89,l),
(965,-101,o),
(943,-105,o),
(915,-105,cs),
(881,-105,o),
(861,-92,o),
(861,-70,cs),
(861,-43,o),
(890,0,o),
(1014,0,c),
(1170,0,l),
(1090,250,o),
(1010,500,o),
(930,750,c),
(238,750,l),
(159,500,o),
(79,250,o),
(0,0,c),
(490,0,l),
(507,98,l),
(511,98,o),
(515,98,o),
(519,98,c),
(629,98,l),
(634,98,o),
(638,98,o),
(643,98,c),
(660,0,l),
(615,-37,o),
(592,-85,o),
(592,-140,cs),
(592,-247,o),
(673,-308,o),
(836,-308,cs)
);
},
{
closed = 1;
nodes = (
(519,168,o),
(519,168,o),
(519,169,cs),
(519,170,o),
(573,502,o),
(574,502,cs),
(574,502,o),
(575,502,o),
(575,502,cs),
(576,502,o),
(631,170,o),
(631,169,cs),
(631,169,o),
(631,168,o),
(630,168,cs),
(520,168,ls)
);
}
);
width = 1170;
},
{
associatedMasterId = "F6D8640C-383C-48A8-B63C-DDE9F10207CE";
background = {
anchors = (
{
name = bottom;
pos = (500,0);
},
{
name = ogonek;
pos = (920,0);
},
{
name = top;
pos = (498,750);
}
);
shapes = (
{
pos = (20,0);
ref = A;
}
);
};
layerId = "DE1FB5EA-FB55-4416-A756-3A7F684EFAAE";
name = "20 Aug 21, 11:43";
shapes = (
{
closed = 1;
nodes = (
(855,-308,o),
(897,-300,o),
(952,-285,c),
(952,-89,l),
(922,-101,o),
(900,-105,o),
(872,-105,cs),
(838,-105,o),
(818,-92,o),
(818,-70,cs),
(818,-43,o),
(847,0,o),
(971,0,cs),
(1083,0,l),
(1003,250,o),
(923,500,o),
(843,750,c),
(238,750,l),
(159,500,o),
(79,250,o),
(0,0,c),
(447,0,l),
(464,98,l),
(468,98,o),
(472,98,o),
(476,98,c),
(586,98,l),
(591,98,o),
(595,98,o),
(600,98,c),
(617,0,l),
(572,-37,o),
(549,-85,o),
(549,-140,cs),
(549,-247,o),
(630,-308,o),
(793,-308,cs)
);
},
{
closed = 1;
nodes = (
(476,168,o),
(476,168,o),
(476,169,cs),
(476,170,o),
(530,502,o),
(531,502,cs),
(531,502,o),
(532,502,o),
(532,502,cs),
(533,502,o),
(588,170,o),
(588,169,cs),
(588,169,o),
(588,168,o),
(587,168,cs),
(477,168,ls)
);
}
);
width = 1083;
}
);
metricLeft = A;
metricRight = A;
unicode = 260;
},
{
color = 6;
glyphname = AE;
kernLeft = AE;
kernRight = E;
lastChange = "2021-09-04 12:07:20 +0000";
layers = (
{
anchors = (
{
name = bottom;
pos = (756,0);
},
{
name = top;
pos = (756,750);
}
);
background = {
shapes = (
{
pos = (548,0);
ref = E;
}
);
};
layerId = "F6D8640C-383C-48A8-B63C-DDE9F10207CE";
shapes = (
{
closed = 1;
nodes = (
(441,0,l),
(452,37,o),
(474,112,o),
(474,112,c),
(588,112,l),
(588,112,o),
(588,37,o),
(588,0,c),
(1415,0,l),
(1415,242,l),
(994,242,ls),
(993,242,o),
(993,242,o),
(993,243,cs),
(993,299,ls),
(993,300,o),
(993,300,o),
(994,300,cs),
(1394,300,l),
(1394,441,l),
(994,441,ls),
(993,441,o),
(993,441,o),
(993,442,cs),
(993,497,ls),
(993,498,o),
(993,498,o),
(994,498,cs),
(1409,498,l),
(1409,750,l),
(286,750,l),
(190,500,o),
(94,250,o),
(-2,0,c)
);
},
{
closed = 1;
nodes = (
(495,182,o),
(495,182,o),
(495,183,cs),
(526,289,o),
(556,395,o),
(587,502,c),
(588,502,l),
(588,396,o),
(588,289,o),
(588,183,cs),
(588,182,o),
(588,182,o),
(587,182,cs),
(496,182,ls)
);
}
);
width = 1427;
},
{
anchors = (
{
name = bottom;
pos = (764,0);
},
{
name = top;
pos = (764,750);
}
);
layerId = "96858A69-C8A6-410B-90BB-94EA0DA45935";
shapes = (
{
closed = 1;
nodes = (
(359,115,l),
(372,152,o),
(389,168,o),
(445,168,cs),
(652,168,ls),
(693,168,o),
(705,146,o),
(711,115,c),
(1378,115,l),
(1378,120,l),
(1096,120,ls),
(906,120,o),
(882,244,o),
(882,294,cs),
(882,296,ls),
(882,360,o),
(934,382,o),
(982,382,c),
(1197,382,l),
(1197,382,l),
(982,382,l),
(967,382,o),
(882,383,o),
(882,482,cs),
(882,485,ls),
(882,605,o),
(951,645,o),
(1059,645,cs),
(1069,645,l),
(1069,645,l),
(495,645,l),
(510,521,o),
(194,238,o),
(194,115,c)
);
},
{
closed = 1;
nodes = (
(405,168,o),
(368,213,o),
(368,286,cs),
(368,383,o),
(483,645,o),
(642,645,c),
(686,645,l),
(768,645,o),
(823,551,o),
(823,456,cs),
(823,326,o),
(729,168,o),
(639,168,cs),
(445,168,ls)
);
}
);
width = 1438;
},
{
anchors = (
{
name = bottom;
pos = (784,0);
},
{
name = top;
pos = (784,750);
}
);
associatedMasterId = "96858A69-C8A6-410B-90BB-94EA0DA45935";
layerId = "A546A753-C9F4-4250-9A83-069F78D3EA08";
name = "15 May 21, 13:58";
shapes = (
{
closed = 1;
nodes = (
(379,115,l),
(392,152,o),
(409,168,o),
(465,168,cs),
(672,168,ls),
(713,168,o),
(725,146,o),
(731,115,c),
(1398,115,l),
(1398,120,l),
(1116,120,ls),
(926,120,o),
(902,244,o),
(902,294,cs),
(902,296,ls),
(902,360,o),
(954,382,o),
(1002,382,c),
(1217,382,l),
(1217,382,l),
(1002,382,l),
(987,382,o),
(902,383,o),
(902,482,cs),
(902,485,ls),
(902,605,o),
(971,645,o),
(1079,645,cs),
(1089,645,l),
(1089,645,l),
(515,645,l),
(530,521,o),
(214,238,o),
(214,115,c)
);
},
{
closed = 1;
nodes = (
(417,168,o),
(378,231,o),
(390,314,cs),
(400,385,o),
(501,645,o),
(662,645,c),
(706,645,l),
(788,645,o),
(843,551,o),
(843,456,cs),
(843,326,o),
(749,168,o),
(659,168,cs),
(465,168,ls)
);
}
);
width = 1458;
},
{
anchors = (
{
name = bottom;
pos = (799,0);
},
{
name = top;
pos = (799,750);
}
);
associatedMasterId = "F6D8640C-383C-48A8-B63C-DDE9F10207CE";
layerId = "1A2C1A78-2C19-4CE0-B1E2-257D6A0D63A1";
name = "15 May 21, 13:58";
shapes = (
{
closed = 1;
nodes = (
(484,0,l),
(495,37,o),
(517,112,o),
(517,112,c),
(631,112,l),
(631,112,o),
(631,37,o),
(631,0,c),
(1458,0,l),
(1458,242,l),
(1037,242,ls),
(1036,242,o),
(1036,242,o),
(1036,243,cs),
(1036,299,ls),
(1036,300,o),
(1036,300,o),
(1037,300,cs),
(1447,300,l),
(1447,441,l),
(1037,441,ls),
(1036,441,o),
(1036,441,o),
(1036,442,cs),
(1036,493,ls),
(1036,494,o),
(1036,494,o),
(1037,494,cs),
(1452,494,l),
(1452,750,l),
(304,750,l),
(202,500,o),
(100,250,o),
(-2,0,c)
);
},
{
closed = 1;
nodes = (
(538,182,o),
(538,182,o),
(538,183,cs),
(569,289,o),
(599,395,o),
(630,502,c),
(631,502,l),
(631,396,o),
(631,289,o),
(631,183,cs),
(631,182,o),
(631,182,o),
(630,182,cs),
(539,182,ls)
);
}
);
width = 1470;
},
{
anchors = (
{
name = bottom;
pos = (799,0);
},
{
name = top;
pos = (799,750);
}
);
associatedMasterId = "F6D8640C-383C-48A8-B63C-DDE9F10207CE";
background = {
shapes = (
{
pos = (37,0);
ref = A;
}
);
};
layerId = "D512B0D6-AF61-40FA-AA35-3447CDEDC784";
name = "18 Aug 21, 15:41";
shapes = (
{
closed = 1;
nodes = (
(484,0,l),
(495,37,o),
(517,112,o),
(517,112,c),
(631,112,l),
(631,112,o),
(631,37,o),
(631,0,c),
(1458,0,l),
(1458,242,l),
(1037,242,ls),
(1036,242,o),
(1036,242,o),
(1036,243,cs),
(1036,299,ls),
(1036,300,o),
(1036,300,o),
(1037,300,cs),
(1447,300,l),
(1447,441,l),
(1037,441,ls),
(1036,441,o),
(1036,441,o),
(1036,442,cs),
(1036,493,ls),
(1036,494,o),
(1036,494,o),
(1037,494,cs),
(1452,494,l),
(1452,750,l),
(304,750,l),
(202,500,o),
(100,250,o),
(-2,0,c)
);
},
{
closed = 1;
nodes = (
(538,182,o),
(538,182,o),
(538,183,cs),
(569,289,o),
(599,395,o),
(630,502,c),
(631,502,l),
(631,396,o),
(631,289,o),
(631,183,cs),
(631,182,o),
(631,182,o),
(630,182,cs),
(539,182,ls)
);
}
);
width = 1470;
},
{
anchors = (
{
name = bottom;
pos = (774,0);
},
{
name = top;
pos = (774,750);
}
);
associatedMasterId = "F6D8640C-383C-48A8-B63C-DDE9F10207CE";
background = {
shapes = (
{
closed = 1;
nodes = (
(459,0,l),
(470,37,o),
(492,112,o),
(492,112,c),
(606,112,l),
(606,112,o),
(606,37,o),
(606,0,c),
(1433,0,l),
(1433,242,l),
(1012,242,ls),
(1011,242,o),
(1011,242,o),
(1011,243,cs),
(1011,299,ls),
(1011,300,o),
(1011,300,o),
(1012,300,cs),
(1422,300,l),
(1422,441,l),
(1012,441,ls),
(1011,441,o),
(1011,441,o),
(1011,442,cs),
(1011,493,ls),
(1011,494,o),
(1011,494,o),
(1012,494,cs),
(1427,494,l),
(1427,750,l),
(279,750,l),
(177,500,o),
(75,250,o),
(-27,0,c)
);
},
{
closed = 1;
nodes = (
(513,182,o),
(513,182,o),
(513,183,cs),
(544,289,o),
(574,395,o),
(605,502,c),
(606,502,l),
(606,396,o),
(606,289,o),
(606,183,cs),
(606,182,o),
(606,182,o),
(605,182,cs),
(514,182,ls)
);
},
{
pos = (586,0);
ref = E;
}
);
};
layerId = "CFCB8844-B129-42DD-85D4-E86307E52218";
name = "23 Aug 21, 18:03";
shapes = (
{
closed = 1;
nodes = (
(459,0,l),
(470,37,o),
(492,112,o),
(492,112,c),
(606,112,l),
(606,112,o),
(606,37,o),
(606,0,c),
(1433,0,l),
(1433,242,l),
(1012,242,ls),
(1011,242,o),
(1011,242,o),
(1011,243,cs),
(1011,299,ls),
(1011,300,o),
(1011,300,o),
(1012,300,cs),
(1422,300,l),
(1422,441,l),
(1012,441,ls),
(1011,441,o),
(1011,441,o),
(1011,442,cs),
(1011,493,ls),
(1011,494,o),
(1011,494,o),
(1012,494,cs),
(1427,494,l),
(1427,750,l),
(304,750,l),
(202,500,o),
(100,250,o),
(-2,0,c)
);
},
{
closed = 1;
nodes = (
(513,182,o),
(513,182,o),
(513,183,cs),
(544,289,o),
(574,395,o),
(605,502,c),
(606,502,l),
(606,396,o),
(606,289,o),
(606,183,cs),
(606,182,o),
(606,182,o),
(605,182,cs),
(514,182,ls)
);
}
);
width = 1445;
},
{
anchors = (
{
name = bottom;
pos = (774,0);
},
{
name = top;
pos = (774,750);
}
);
associatedMasterId = "F6D8640C-383C-48A8-B63C-DDE9F10207CE";
background = {
shapes = (
{
pos = (566,0);
ref = E;
}
);
};
layerId = "B8F31A76-808C-4045-B2F8-DC56AB349B03";
name = "31 Aug 21, 13:04";
shapes = (
{
closed = 1;
nodes = (
(459,0,l),
(470,37,o),
(492,112,o),
(492,112,c),
(606,112,l),
(606,112,o),
(606,37,o),
(606,0,c),
(1433,0,l),
(1433,242,l),
(1012,242,ls),
(1011,242,o),
(1011,242,o),
(1011,243,cs),
(1011,299,ls),
(1011,300,o),
(1011,300,o),
(1012,300,cs),
(1412,300,l),
(1412,441,l),
(1012,441,ls),
(1011,441,o),
(1011,441,o),
(1011,442,cs),
(1011,497,ls),
(1011,498,o),
(1011,498,o),
(1012,498,cs),
(1427,498,l),
(1427,750,l),
(304,750,l),
(202,500,o),
(100,250,o),
(-2,0,c)
);
},
{
closed = 1;
nodes = (
(513,182,o),
(513,182,o),
(513,183,cs),
(544,289,o),
(574,395,o),
(605,502,c),
(606,502,l),
(606,396,o),
(606,289,o),
(606,183,cs),
(606,182,o),
(606,182,o),
(605,182,cs),
(514,182,ls)
);
}
);
width = 1445;
}
);
unicode = 198;
},
{
color = 6;
glyphname = B;
kernLeft = H;
kernRight = B;
lastChange = "2021-09-04 07:33:57 +0000";
layers = (
{
anchors = (
{
name = bottom;
pos = (520,0);
},
{
name = top;
pos = (520,750);
}
);
background = {
shapes = (
{
ref = E;
}
);
};
layerId = "F6D8640C-383C-48A8-B63C-DDE9F10207CE";
shapes = (
{
closed = 1;
nodes = (
(20,681,o),
(20,611,o),
(20,542,cs),
(20,361,o),
(20,181,o),
(20,0,c),
(807,0,ls),
(959,0,o),
(1037,99,o),
(1037,197,cs),
(1037,296,o),
(959,395,o),
(798,395,cs),
(797,395,o),
(797,396,o),
(798,396,cs),
(938,396,o),
(1007,486,o),
(1007,575,cs),
(1007,663,o),
(940,750,o),
(807,750,cs),
(20,750,l)
);
},
{
closed = 1;
nodes = (
(414,356,o),
(415,357,o),
(415,357,c),
(566,357,ls),
(595,357,o),
(611,336,o),
(611,313,cs),
(611,289,o),
(593,267,o),
(557,267,cs),
(415,267,l),
(414,267,o),
(414,267,o),
(414,268,c),
(414,281,o),
(414,296,o),
(414,312,cs),
(414,326,o),
(414,341,o),
(414,356,c)
);
},
{
closed = 1;
nodes = (
(414,497,o),
(415,497,c),
(561,497,ls),
(590,497,o),
(606,476,o),
(606,453,cs),
(606,429,o),
(588,407,o),
(552,407,cs),
(415,407,l),
(414,407,o),
(414,407,o),
(414,408,c),
(414,421,o),
(414,437,o),
(414,452,cs),
(414,468,o),
(414,483,o),
(414,496,c),
(414,496,o)
);
}
);
width = 1046;
},
{
anchors = (
{
name = bottom;
pos = (560,0);
},
{
name = top;
pos = (560,750);
}
);
layerId = "96858A69-C8A6-410B-90BB-94EA0DA45935";
shapes = (
{
closed = 1;
nodes = (
(246,599,o),
(253,558,o),
(253,520,cs),
(253,360,o),
(136,260,o),
(136,115,c),
(736,115,ls),
(888,115,o),
(901,151,o),
(901,187,cs),
(901,234,o),
(846,268,o),
(753,319,cs),
(623,390,o),
(632,472,o),
(722,523,cs),
(782,557,o),
(802,579,o),
(802,609,cs),
(802,630,o),
(785,645,o),
(751,645,cs),
(230,645,l)
);
},
{
closed = 1;
nodes = (
(410,380,o),
(412,380,o),
(412,380,c),
(570,380,ls),
(632,380,o),
(700,290,o),
(700,215,cs),
(700,161,o),
(665,115,o),
(568,115,cs),
(412,115,l),
(410,115,o),
(410,115,o),
(410,115,c),
(360,115,o),
(326,193,o),
(326,264,cs),
(326,325,o),
(350,380,o),
(410,380,c)
);
},
{
closed = 1;
nodes = (
(410,645,o),
(412,645,c),
(560,645,ls),
(637,645,o),
(670,591,o),
(670,532,cs),
(670,460,o),
(621,380,o),
(548,380,cs),
(412,380,l),
(410,380,o),
(410,380,o),
(410,380,c),
(348,380,o),
(325,431,o),
(325,488,cs),
(325,561,o),
(364,645,o),
(410,645,c),
(410,645,o)
);
}
);
width = 1043;
},
{
anchors = (
{
name = bottom;
pos = (526,0);
},
{
name = top;
pos = (526,750);
}
);
associatedMasterId = "F6D8640C-383C-48A8-B63C-DDE9F10207CE";
layerId = "76CF66D8-AB5E-4546-A6BD-842EB2C4418B";
name = "Mar 4 20, 20:21";
shapes = (
{
closed = 1;
nodes = (
(20,500,o),
(20,250,o),
(20,0,c),
(813,0,ls),
(965,0,o),
(1043,99,o),
(1043,197,cs),
(1043,296,o),
(965,395,o),
(804,395,cs),
(804,396,o),
(803,396,o),
(804,396,cs),
(1081,396,o),
(1080,750,o),
(813,750,cs),
(20,750,l)
);
},
{
closed = 1;
nodes = (
(435,497,o),
(436,497,c),
(572,497,ls),
(632,497,o),
(634,407,o),
(563,407,cs),
(436,407,l),
(435,407,o),
(435,407,o),
(435,408,c),
(435,434,o),
(435,470,o),
(435,496,c),
(435,496,o)
);
},
{
closed = 1;
nodes = (
(435,356,o),
(436,357,o),
(436,357,c),
(572,357,ls),
(632,357,o),
(634,267,o),
(563,267,cs),
(436,267,l),
(435,267,o),
(435,267,o),
(435,268,c),
(435,294,o),
(435,325,o),
(435,356,c)
);
}
);
width = 1048;
},
{
anchors = (
{
name = bottom;
pos = (560,0);
},
{
name = top;
pos = (560,750);
}
);
associatedMasterId = "96858A69-C8A6-410B-90BB-94EA0DA45935";
layerId = "52B0CBEE-95CD-4D1E-959F-3E9C91004350";
name = "15 May 21, 14:10";
shapes = (
{
closed = 1;
nodes = (
(315,405,o),
(136,295,o),
(136,115,c),
(736,115,ls),
(888,115,o),
(901,151,o),
(901,187,cs),
(901,234,o),
(846,268,o),
(753,319,cs),
(623,390,o),
(638,483,o),
(722,523,cs),
(821,570,o),
(826,645,o),
(751,645,cs),
(230,645,l)
);
},
{
closed = 1;
nodes = (
(410,645,o),
(412,645,c),
(560,645,ls),
(732,645,o),
(681,380,o),
(548,380,cs),
(412,380,l),
(410,380,o),
(410,380,o),
(410,380,c),
(269,380,o),
(328,642,o),
(410,642,c),
(410,642,o)
);
},
{
closed = 1;
nodes = (
(410,380,o),
(412,380,o),
(412,380,c),
(570,380,ls),
(676,380,o),
(801,115,o),
(568,115,cs),
(412,115,l),
(410,115,o),
(410,115,o),
(410,118,c),
(318,118,o),
(279,380,o),
(410,380,c)
);
}
);
width = 1043;
},
{
anchors = (
{
name = bottom;
pos = (526,0);
},
{
name = top;
pos = (526,750);
}
);
associatedMasterId = "F6D8640C-383C-48A8-B63C-DDE9F10207CE";
layerId = "333E18CF-9167-403A-8EA0-53CA9ED3CEA2";
name = "15 May 21, 14:14";
shapes = (
{
closed = 1;
nodes = (
(20,681,o),
(20,611,o),
(20,542,cs),
(20,361,o),
(20,181,o),
(20,0,c),
(813,0,ls),
(965,0,o),
(1043,99,o),
(1043,197,cs),
(1043,296,o),
(965,395,o),
(804,395,cs),
(803,395,o),
(803,396,o),
(804,396,cs),
(1081,396,o),
(1080,750,o),
(813,750,cs),
(20,750,l)
);
},
{
closed = 1;
nodes = (
(435,497,o),
(436,497,c),
(572,497,ls),
(632,497,o),
(634,407,o),
(563,407,cs),
(436,407,l),
(435,407,o),
(435,407,o),
(435,408,c),
(435,434,o),
(435,470,o),
(435,496,c),
(435,496,o)
);
},
{
closed = 1;
nodes = (
(435,356,o),
(436,357,o),
(436,357,c),
(572,357,ls),
(632,357,o),
(634,267,o),
(563,267,cs),
(436,267,l),
(435,267,o),
(435,267,o),
(435,268,c),
(435,294,o),
(435,325,o),
(435,356,c)
);
}
);
width = 1048;
},
{
anchors = (
{
name = bottom;
pos = (526,0);
},
{
name = top;
pos = (526,750);
}
);
associatedMasterId = "F6D8640C-383C-48A8-B63C-DDE9F10207CE";
layerId = "75633643-0762-4473-8092-C93C471BF484";
name = "18 Aug 21, 14:59";
shapes = (
{
closed = 1;
nodes = (
(20,681,o),
(20,611,o),
(20,542,cs),
(20,361,o),
(20,181,o),
(20,0,c),
(813,0,ls),
(965,0,o),
(1043,99,o),
(1043,197,cs),
(1043,296,o),
(965,395,o),
(804,395,cs),
(803,395,o),
(803,396,o),
(804,396,cs),
(944,396,o),
(1013,486,o),
(1013,575,cs),
(1013,663,o),
(946,750,o),
(813,750,cs),
(20,750,l)
);
},
{
closed = 1;
nodes = (
(435,497,o),
(436,497,c),
(572,497,ls),
(601,497,o),
(617,476,o),
(617,453,cs),
(617,429,o),
(599,407,o),
(563,407,cs),
(436,407,l),
(435,407,o),
(435,407,o),
(435,408,c),
(435,421,o),
(435,437,o),
(435,452,cs),
(435,468,o),
(435,483,o),
(435,496,c),
(435,496,o)
);
},
{
closed = 1;
nodes = (
(435,356,o),
(436,357,o),
(436,357,c),
(572,357,ls),
(601,357,o),
(617,336,o),
(617,313,cs),
(617,289,o),
(599,267,o),
(563,267,cs),
(436,267,l),
(435,267,o),
(435,267,o),
(435,268,c),
(435,281,o),
(435,296,o),
(435,312,cs),
(435,326,o),
(435,341,o),
(435,356,c)
);
}
);
width = 1051;
}
);
unicode = 66;
},
{
color = 6;
glyphname = Bhook;
kernLeft = Bhook;
kernRight = B;
lastChange = "2021-09-04 11:04:54 +0000";
layers = (
{
anchors = (
{
name = bottom;
pos = (919,0);
},
{
name = top;
pos = (919,750);
}
);
background = {
shapes = (
{
pos = (-3,0);
ref = Dhook;
}
);
};
layerId = "F6D8640C-383C-48A8-B63C-DDE9F10207CE";
shapes = (
{
closed = 1;
nodes = (
(104,750,o),
(-16,654,o),
(18,388,c),
(325,390,l),
(303,470,o),
(326,497,o),
(419,497,cs),
(419,497,o),
(419,470,o),
(419,435,cs),
(419,264,o),
(419,181,o),
(419,0,c),
(1206,0,ls),
(1358,0,o),
(1436,99,o),
(1436,197,cs),
(1436,296,o),
(1358,395,o),
(1197,395,cs),
(1196,395,o),
(1196,396,o),
(1197,396,cs),
(1337,396,o),
(1406,486,o),
(1406,575,cs),
(1406,663,o),
(1339,750,o),
(1206,750,cs),
(379,750,ls)
);
},
{
closed = 1;
nodes = (
(813,356,o),
(814,357,o),
(814,357,c),
(965,357,ls),
(994,357,o),
(1010,336,o),
(1010,313,cs),
(1010,289,o),
(992,267,o),
(956,267,cs),
(814,267,l),
(813,267,o),
(813,267,o),
(813,268,c),
(813,281,o),
(813,296,o),
(813,312,cs),
(813,326,o),
(813,341,o),
(813,356,c)
);
},
{
closed = 1;
nodes = (
(813,497,o),
(814,497,c),
(960,497,ls),
(989,497,o),
(1005,476,o),
(1005,453,cs),
(1005,429,o),
(987,407,o),
(951,407,cs),
(814,407,l),
(813,407,o),
(813,407,o),
(813,408,c),
(813,421,o),
(813,437,o),
(813,452,cs),
(813,468,o),
(813,483,o),
(813,496,c),
(813,496,o)
);
}
);
width = 1445;
},
{
anchors = (
{
name = bottom;
pos = (637,0);
},
{
name = top;
pos = (637,750);
}
);
layerId = "96858A69-C8A6-410B-90BB-94EA0DA45935";
shapes = (
{
closed = 1;
nodes = (
(176,645,o),
(134,609,o),
(134,557,c),
(214,557,l),
(214,601,o),
(228,640,o),
(279,640,cs),
(317,640,o),
(330,614,o),
(330,520,cs),
(330,360,o),
(213,260,o),
(213,115,c),
(813,115,ls),
(965,115,o),
(978,151,o),
(978,187,cs),
(978,234,o),
(923,268,o),
(830,319,cs),
(700,390,o),
(709,472,o),
(799,523,cs),
(859,557,o),
(879,579,o),
(879,609,cs),
(879,630,o),
(862,645,o),
(828,645,cs),
(307,645,ls)
);
},
{
closed = 1;
nodes = (
(487,380,o),
(489,380,o),
(489,380,c),
(647,380,ls),
(709,380,o),
(777,290,o),
(777,215,cs),
(777,161,o),
(742,115,o),
(645,115,cs),
(489,115,l),
(487,115,o),
(487,115,o),
(487,115,c),
(437,115,o),
(403,193,o),
(403,264,cs),
(403,325,o),
(427,380,o),
(487,380,c)
);
},
{
closed = 1;
nodes = (
(487,645,o),
(489,645,c),
(637,645,ls),
(714,645,o),
(747,591,o),
(747,532,cs),
(747,460,o),
(698,380,o),
(625,380,cs),
(489,380,l),
(487,380,o),
(487,380,o),
(487,380,c),
(425,380,o),
(402,431,o),
(402,488,cs),
(402,561,o),
(441,645,o),
(487,645,c),
(487,645,o)
);
}
);
width = 1120;
},
{
anchors = (
{
name = bottom;
pos = (520,0);
},
{
name = top;
pos = (520,750);
}
);
associatedMasterId = "F6D8640C-383C-48A8-B63C-DDE9F10207CE";
layerId = "F49A8DED-06A1-4611-9E36-67983BE60A3C";
name = "02 Sep 21, 17:04";
shapes = (
{
closed = 1;
nodes = (
(20,681,o),
(20,611,o),
(20,542,cs),
(20,361,o),
(20,181,o),
(20,0,c),
(807,0,ls),
(959,0,o),
(1037,99,o),
(1037,197,cs),
(1037,296,o),
(959,395,o),
(798,395,cs),
(797,395,o),
(797,396,o),
(798,396,cs),
(938,396,o),
(1007,486,o),
(1007,575,cs),
(1007,663,o),
(940,750,o),
(807,750,cs),
(20,750,l)
);
},
{
closed = 1;
nodes = (
(414,356,o),
(415,357,o),
(415,357,c),
(566,357,ls),
(595,357,o),
(611,336,o),
(611,313,cs),
(611,289,o),
(593,267,o),
(557,267,cs),
(415,267,l),
(414,267,o),
(414,267,o),
(414,268,c),
(414,281,o),
(414,296,o),
(414,312,cs),
(414,326,o),
(414,341,o),
(414,356,c)
);
},
{
closed = 1;
nodes = (
(414,497,o),
(415,497,c),
(561,497,ls),
(590,497,o),
(606,476,o),
(606,453,cs),
(606,429,o),
(588,407,o),
(552,407,cs),
(415,407,l),
(414,407,o),
(414,407,o),
(414,408,c),
(414,421,o),
(414,437,o),
(414,452,cs),
(414,468,o),
(414,483,o),
(414,496,c),
(414,496,o)
);
}
);
width = 1046;
},
{
anchors = (
{
name = bottom;
pos = (560,0);
},
{
name = top;
pos = (560,750);
}
);
associatedMasterId = "96858A69-C8A6-410B-90BB-94EA0DA45935";
layerId = "A4665910-0867-48F2-AD42-963C4423A98C";
name = "02 Sep 21, 19:06";
shapes = (
{
closed = 1;
nodes = (
(736,115,ls),
(888,115,o),
(901,151,o),
(901,187,cs),
(901,234,o),
(846,268,o),
(753,319,cs),
(623,390,o),
(632,472,o),
(722,523,cs),
(782,557,o),
(802,579,o),
(802,609,cs),
(802,630,o),
(785,645,o),
(751,645,cs),
(230,645,ls),
(80,645,o),
(-5,624,o),
(-5,564,c),
(102,564,l),
(102,609,o),
(146,640,o),
(186,640,cs),
(228,640,o),
(253,606,o),
(253,520,cs),
(253,360,o),
(136,260,o),
(136,115,c)
);
},
{
closed = 1;
nodes = (
(360,115,o),
(326,193,o),
(326,264,cs),
(326,325,o),
(350,380,o),
(410,380,c),
(410,380,o),
(412,380,o),
(412,380,c),
(570,380,ls),
(632,380,o),
(700,290,o),
(700,215,cs),
(700,161,o),
(665,115,o),
(568,115,cs),
(412,115,l),
(410,115,o),
(410,115,o),
(410,115,c)
);
},
{
closed = 1;
nodes = (
(348,380,o),
(325,431,o),
(325,488,cs),
(325,561,o),
(364,645,o),
(410,645,c),
(410,645,o),
(410,645,o),
(412,645,c),
(560,645,ls),
(637,645,o),
(670,591,o),
(670,532,cs),
(670,460,o),
(621,380,o),
(548,380,cs),
(412,380,l),
(410,380,o),
(410,380,o),
(410,380,c)
);
}
);
width = 1043;
},
{
anchors = (
{
name = bottom;
pos = (875,0);
},
{
name = top;
pos = (875,750);
}
);
associatedMasterId = "F6D8640C-383C-48A8-B63C-DDE9F10207CE";
background = {
shapes = (
{
pos = (-6,0);
ref = Dhook;
}
);
};
layerId = "A6D17405-C9E8-4E31-8E1A-46716AD417C7";
name = "02 Sep 21, 22:37";
shapes = (
{
closed = 1;
nodes = (
(95,750,o),
(-16,627,o),
(7,410,c),
(300,410,l),
(292,470,o),
(315,497,o),
(375,497,cs),
(375,497,o),
(375,470,o),
(375,435,cs),
(375,264,o),
(375,181,o),
(375,0,c),
(1162,0,ls),
(1314,0,o),
(1392,99,o),
(1392,197,cs),
(1392,296,o),
(1314,395,o),
(1153,395,cs),
(1152,395,o),
(1152,396,o),
(1153,396,cs),
(1293,396,o),
(1362,486,o),
(1362,575,cs),
(1362,663,o),
(1295,750,o),
(1162,750,cs),
(315,750,ls)
);
},
{
closed = 1;
nodes = (
(769,356,o),
(770,357,o),
(770,357,c),
(921,357,ls),
(950,357,o),
(966,336,o),
(966,313,cs),
(966,289,o),
(948,267,o),
(912,267,cs),
(770,267,l),
(769,267,o),
(769,267,o),
(769,268,c),
(769,281,o),
(769,296,o),
(769,312,cs),
(769,326,o),
(769,341,o),
(769,356,c)
);
},
{
closed = 1;
nodes = (
(769,497,o),
(770,497,c),
(916,497,ls),
(945,497,o),
(961,476,o),
(961,453,cs),
(961,429,o),
(943,407,o),
(907,407,cs),
(770,407,l),
(769,407,o),
(769,407,o),
(769,408,c),
(769,421,o),
(769,437,o),
(769,452,cs),
(769,468,o),
(769,483,o),
(769,496,c),
(769,496,o)
);
}
);
width = 1401;
}
);
unicode = 385;
},
{
color = 6;
glyphname = C;
kernLeft = O;
kernRight = C;
lastChange = "2021-09-04 07:33:57 +0000";
layers = (
{
anchors = (
{
name = bottom;
pos = (562,0);
},
{
name = top;
pos = (562,750);
}
);
background = {
shapes = (
{
ref = O;
}
);
};
layerId = "F6D8640C-383C-48A8-B63C-DDE9F10207CE";
shapes = (
{
closed = 1;
nodes = (
(916,-30,o),
(1081,134,o),
(1110,331,c),
(685,374,l),
(685,319,o),
(630,290,o),
(560,290,cs),
(488,290,o),
(435,318,o),
(435,376,cs),
(435,432,o),
(488,460,o),
(560,460,cs),
(628,460,o),
(685,435,o),
(685,374,c),
(1110,443,l),
(1075,656,o),
(891,780,o),
(560,780,cs),
(248,780,o),
(10,652,o),
(10,374,cs),
(10,138,o),
(193,-30,o),
(560,-30,cs)
);
}
);
width = 1122;
},
{
anchors = (
{
name = bottom;
pos = (552,0);
},
{
name = top;
pos = (542,750);
}
);
associatedMasterId = "96858A69-C8A6-410B-90BB-94EA0DA45935";
layerId = "4E025F30-9EFA-40D9-98F2-73DE0C5A615E";
name = "15 May 21, 14:24";
shapes = (
{
closed = 1;
nodes = (
(719,110,o),
(881,144,o),
(898,207,c),
(736,244,l),
(706,148,o),
(664,122,o),
(613,122,cs),
(497,122,o),
(296,283,o),
(296,456,cs),
(296,603,o),
(393,640,o),
(556,640,cs),
(725,640,o),
(716,567,o),
(715,523,c),
(896,559,l),
(860,612,o),
(722,645,o),
(564,645,cs),
(246,645,o),
(224,649,o),
(264,474,cs),
(302,310,o),
(13,110,o),
(566,110,cs)
);
}
);
width = 1107;
},
{
anchors = (
{
name = bottom;
pos = (562,0);
},
{
name = top;
pos = (562,750);
}
);
associatedMasterId = "F6D8640C-383C-48A8-B63C-DDE9F10207CE";
layerId = "6F1A023D-D906-463F-AC6D-DAC0755DBE2A";
name = "15 May 21, 14:24";
shapes = (
{
closed = 1;
nodes = (
(916,-35,o),
(1081,131,o),
(1110,331,c),
(685,374,l),
(685,319,o),
(630,290,o),
(560,290,cs),
(488,290,o),
(435,318,o),
(435,376,cs),
(435,432,o),
(488,460,o),
(560,460,cs),
(628,460,o),
(685,435,o),
(685,374,c),
(1110,443,l),
(1075,659,o),
(891,785,o),
(560,785,cs),
(248,785,o),
(10,655,o),
(10,374,cs),
(10,135,o),
(193,-35,o),
(560,-35,cs)
);
}
);
width = 1115;
},
{
anchors = (
{
name = bottom;
pos = (562,0);
},
{
name = top;
pos = (562,750);
}
);
associatedMasterId = "F6D8640C-383C-48A8-B63C-DDE9F10207CE";
background = {
shapes = (
{
ref = O;
}
);
};
layerId = "BAA83EEF-D6CC-4164-8019-DF2A54AF6998";
name = "20 Aug 21, 13:20";
shapes = (
{
closed = 1;
nodes = (
(916,-35,o),
(1081,131,o),
(1110,331,c),
(685,374,l),
(685,319,o),
(630,290,o),
(560,290,cs),
(488,290,o),
(435,318,o),
(435,376,cs),
(435,432,o),
(488,460,o),
(560,460,cs),
(628,460,o),
(685,435,o),
(685,374,c),
(1110,443,l),
(1075,659,o),
(891,785,o),
(560,785,cs),
(248,785,o),
(10,655,o),
(10,374,cs),
(10,135,o),
(193,-35,o),
(560,-35,cs)
);
}
);
width = 1115;
},
{
anchors = (
{
name = bottom;
pos = (554,0);
},
{
name = top;
pos = (544,750);
}
);
background = {
shapes = (
{
ref = O;
}
);
};
layerId = "96858A69-C8A6-410B-90BB-94EA0DA45935";
name = "2050";
shapes = (
{
closed = 1;
nodes = (
(719,102,o),
(881,136,o),
(898,199,c),
(736,236,l),
(706,136,o),
(664,109,o),
(613,109,cs),
(497,109,o),
(296,272,o),
(296,458,cs),
(296,615,o),
(393,652,o),
(556,652,cs),
(709,652,o),
(719,594,o),
(715,535,c),
(896,571,l),
(860,624,o),
(722,657,o),
(564,657,cs),
(241,657,o),
(223,655,o),
(264,476,cs),
(303,308,o),
(13,102,o),
(566,102,cs)
);
}
);
width = 1107;
}
);
unicode = 67;
},
{
color = 6;
glyphname = D;
kernLeft = H;
kernRight = O;
lastChange = "2021-09-04 07:33:57 +0000";
layers = (
{
anchors = (
{
name = bottom;
pos = (524,0);
},
{
name = center;
pos = (524,375);
},
{
name = top;
pos = (524,750);
}
);
background = {
shapes = (
{
pos = (-53,0);
ref = O;
}
);
};
layerId = "F6D8640C-383C-48A8-B63C-DDE9F10207CE";
shapes = (
{
closed = 1;
nodes = (
(20,750,l),
(20,670,o),
(20,589,o),
(20,509,cs),
(20,339,o),
(20,170,o),
(20,0,c),
(616,0,ls),
(925,0,o),
(1057,189,o),
(1057,378,cs),
(1057,564,o),
(930,750,o),
(616,750,cs)
);
},
{
closed = 1;
nodes = (
(597,462,o),
(632,423,o),
(632,375,cs),
(632,329,o),
(597,288,o),
(538,288,cs),
(417,288,l),
(416,288,o),
(416,288,o),
(416,290,cs),
(416,460,l),
(416,462,o),
(416,462,o),
(417,462,c),
(536,462,ls)
);
}
);
width = 1067;
},
{
anchors = (
{
name = bottom;
pos = (504,0);
},
{
name = center;
pos = (504,375);
},
{
name = top;
pos = (504,750);
}
);
associatedMasterId = "F6D8640C-383C-48A8-B63C-DDE9F10207CE";
layerId = "FDEB71F9-B8D7-4481-BF87-BF671D177E2A";
name = "Mar 4 20, 16:59";
shapes = (
{
closed = 1;
nodes = (
(20,750,l),
(20,500,o),
(20,250,o),
(20,0,c),
(611,0,ls),
(920,0,o),
(1052,189,o),
(1052,378,cs),
(1052,564,o),
(925,750,o),
(611,750,cs)
);
},
{
closed = 1;
nodes = (
(586,450,o),
(627,419,o),
(627,376,cs),
(627,334,o),
(588,300,o),
(518,300,cs),
(416,300,l),
(415,300,o),
(415,300,o),
(415,302,c),
(415,448,l),
(415,450,o),
(415,450,o),
(416,450,c),
(516,450,ls)
);
}
);
width = 1062;
},
{
anchors = (
{
name = bottom;
pos = (500,0);
},
{
name = center;
pos = (500,375);
},
{
name = top;
pos = (500,750);
}
);
layerId = "96858A69-C8A6-410B-90BB-94EA0DA45935";
name = "2050";
shapes = (
{
closed = 1;
nodes = (
(178,645,l),
(204,594,o),
(213,537,o),
(213,479,cs),
(213,325,o),
(150,167,o),
(177,115,c),
(460,115,ls),
(649,115,o),
(794,283,o),
(895,390,cs),
(1045,549,o),
(798,645,o),
(573,645,cs)
);
},
{
closed = 1;
nodes = (
(724,645,o),
(760,575,o),
(760,474,cs),
(760,316,o),
(684,123,o),
(470,123,cs),
(463,123,ls),
(375,123,o),
(220,198,o),
(220,455,cs),
(220,459,ls),
(220,539,o),
(242,645,o),
(365,645,cs),
(571,645,ls)
);
}
);
visible = 1;
width = 1039;
},
{
anchors = (
{
name = bottom;
pos = (500,0);
},
{
name = center;
pos = (500,375);
},
{
name = top;
pos = (500,750);
}
);
associatedMasterId = "96858A69-C8A6-410B-90BB-94EA0DA45935";
background = {
shapes = (
{
pos = (-123,0);
ref = O;
}
);
};
layerId = "E6237C4C-084A-46FF-81B0-6FFFB0024358";
name = "15 May 21, 14:52";
shapes = (
{
closed = 1;
nodes = (
(178,645,l),
(271,459,o),
(140,185,o),
(177,114,c),
(460,114,ls),
(649,114,o),
(794,283,o),
(895,390,cs),
(1045,549,o),
(798,645,o),
(573,645,cs)
);
},
{
closed = 1;
nodes = (
(716,645,o),
(750,575,o),
(750,474,cs),
(750,337,o),
(683,125,o),
(477,125,cs),
(470,125,ls),
(376,125,o),
(222,200,o),
(222,455,cs),
(222,459,ls),
(222,539,o),
(244,645,o),
(365,645,cs),
(571,645,ls)
);
}
);
width = 1039;
},
{
anchors = (
{
name = bottom;
pos = (500,0);
},
{
name = center;
pos = (500,375);
},
{
name = top;
pos = (500,750);
}
);
associatedMasterId = "96858A69-C8A6-410B-90BB-94EA0DA45935";
layerId = "9BD5C7D7-7E86-4928-B190-080456A0C11B";
name = "17 May 21, 15:04";
shapes = (
{
closed = 1;
nodes = (
(178,645,l),
(204,594,o),
(213,537,o),
(213,479,cs),
(213,325,o),
(150,167,o),
(177,115,c),
(460,115,ls),
(649,115,o),
(794,283,o),
(895,390,cs),
(1045,549,o),
(798,645,o),
(573,645,cs)
);
},
{
closed = 1;
nodes = (
(724,645,o),
(760,575,o),
(760,474,cs),
(760,316,o),
(691,123,o),
(470,123,cs),
(463,123,ls),
(375,123,o),
(220,198,o),
(220,455,cs),
(220,459,ls),
(220,539,o),
(242,645,o),
(365,645,cs),
(571,645,ls)
);
}
);
visible = 1;
width = 1039;
},
{
anchors = (
{
name = bottom;
pos = (524,0);
},
{
name = center;
pos = (524,375);
},
{
name = top;
pos = (524,750);
}
);
associatedMasterId = "F6D8640C-383C-48A8-B63C-DDE9F10207CE";
background = {
shapes = (
{
pos = (-44,0);
ref = O;
}
);
};
layerId = "F5063A96-4986-4B31-BAD4-791C9CD59081";
name = "20 Aug 21, 14:33";
shapes = (
{
closed = 1;
nodes = (
(20,750,l),
(20,670,o),
(20,589,o),
(20,509,cs),
(20,339,o),
(20,170,o),
(20,0,c),
(616,0,ls),
(925,0,o),
(1057,189,o),
(1057,378,cs),
(1057,564,o),
(930,750,o),
(616,750,cs)
);
},
{
closed = 1;
nodes = (
(597,455,o),
(632,416,o),
(632,375,cs),
(632,336,o),
(597,295,o),
(538,295,cs),
(416,295,l),
(415,295,o),
(415,295,o),
(415,297,cs),
(415,453,l),
(415,455,o),
(415,455,o),
(416,455,c),
(536,455,ls)
);
}
);
width = 1067;
}
);
unicode = 68;
},
{
color = 3;
glyphname = Eth;
kernLeft = Dcroat;
kernRight = O;
lastChange = "2021-09-04 11:05:08 +0000";
layers = (
{
layerId = "96858A69-C8A6-410B-90BB-94EA0DA45935";
shapes = (
{
closed = 1;
nodes = (
(118,385,l),
(537,385,l),
(537,391,l),
(118,391,l)
);
},
{
pos = (49,0);
ref = D;
}
);
width = 1088;
},
{
layerId = "F6D8640C-383C-48A8-B63C-DDE9F10207CE";
shapes = (
{
closed = 1;
nodes = (
(6,333,l),
(590,333,l),
(590,417,l),
(6,417,l)
);
},
{
pos = (40,0);
ref = D;
}
);
width = 1107;
},
{
associatedMasterId = "F6D8640C-383C-48A8-B63C-DDE9F10207CE";
layerId = "1698C0D5-6AFA-474A-97D2-AFA18F19F308";
name = "28 Apr 21, 10:37";
shapes = (
{
closed = 1;
nodes = (
(18,322,l),
(559,322,l),
(559,428,l),
(18,428,l)
);
},
{
pos = (52,0);
ref = D;
}
);
width = 1119;
},
{
associatedMasterId = "96858A69-C8A6-410B-90BB-94EA0DA45935";
layerId = "DE504757-4521-4857-BBC8-A2513AFCBB6B";
name = "17 May 21, 15:03";
shapes = (
{
closed = 1;
nodes = (
(118,379,l),
(547,379,l),
(547,389,l),
(118,389,l)
);
},
{
pos = (49,0);
ref = D;
}
);
width = 1088;
}
);
metricRight = D;
unicode = 208;
},
{
color = 6;
glyphname = Dhook;
kernLeft = Bhook;
kernRight = O;
lastChange = "2021-09-04 11:09:10 +0000";
layers = (
{
anchors = (
{
name = bottom;
pos = (923,0);
},
{
name = center;
pos = (923,375);
},
{
name = top;
pos = (923,750);
}
);
background = {
shapes = (
{
pos = (44,0);
ref = Bhook;
}
);
};
layerId = "F6D8640C-383C-48A8-B63C-DDE9F10207CE";
shapes = (
{
closed = 1;
nodes = (
(1015,0,ls),
(1324,0,o),
(1456,189,o),
(1456,378,cs),
(1456,564,o),
(1329,750,o),
(1015,750,cs),
(395,750,ls),
(95,750,o),
(-17,650,o),
(18,374,c),
(328,374,l),
(311,437,o),
(329,462,o),
(419,462,c),
(419,462,o),
(419,413,o),
(419,389,cs),
(419,277,o),
(419,146,o),
(419,0,c)
);
},
{
closed = 1;
nodes = (
(815,288,o),
(815,288,o),
(815,290,cs),
(815,460,l),
(815,462,o),
(815,462,o),
(816,462,c),
(935,462,ls),
(996,462,o),
(1031,423,o),
(1031,375,cs),
(1031,329,o),
(996,288,o),
(937,288,cs),
(816,288,l)
);
}
);
width = 1466;
},
{
anchors = (
{
name = bottom;
pos = (580,0);
},
{
name = center;
pos = (580,375);
},
{
name = top;
pos = (580,750);
}
);
layerId = "96858A69-C8A6-410B-90BB-94EA0DA45935";
shapes = (
{
closed = 1;
nodes = (
(540,115,ls),
(729,115,o),
(874,283,o),
(975,390,cs),
(1125,549,o),
(878,645,o),
(653,645,cs),
(258,645,ls),
(129,645,o),
(64,627,o),
(64,549,c),
(171,549,l),
(171,596,o),
(189,643,o),
(237,643,cs),
(273,643,o),
(294,608,o),
(294,496,cs),
(294,330,o),
(231,165,o),
(257,115,c)
);
},
{
closed = 1;
nodes = (
(455,123,o),
(300,198,o),
(300,455,cs),
(300,459,ls),
(300,539,o),
(322,645,o),
(445,645,cs),
(651,645,ls),
(804,645,o),
(840,575,o),
(840,474,cs),
(840,316,o),
(764,123,o),
(550,123,cs),
(543,123,ls)
);
}
);
width = 1119;
}
);
unicode = 394;
},
{
color = 6;
glyphname = E;
kernLeft = H;
kernRight = E;
lastChange = "2021-09-04 07:33:57 +0000";
layers = (
{
anchors = (
{
name = bottom;
pos = (472,0);
},
{
name = ogonek;
pos = (811,115);
},
{
name = top;
pos = (472,750);
},
{
name = topleft;
pos = (52,750);
}
);
background = {
shapes = (
{
closed = 1;
nodes = (
(344,521,l),
(344,551,o),
(356,581,o),
(378,602,c),
(399,623,o),
(429,636,o),
(459,636,c),
(776,636,l),
(776,645,l),
(159,645,l),
(159,125,l),
(776,125,l),
(776,134,l),
(459,134,l),
(429,134,o),
(399,146,o),
(378,167,c),
(356,189,o),
(344,218,o),
(344,249,c),
(344,299,l),
(344,329,o),
(356,359,o),
(378,380,c),
(379,382,o),
(381,383,o),
(383,385,c),
(381,386,o),
(379,388,o),
(378,389,c),
(356,411,o),
(344,440,o),
(344,471,c)
);
}
);
};
layerId = "96858A69-C8A6-410B-90BB-94EA0DA45935";
shapes = (
{
closed = 1;
nodes = (
(693,645,l),
(258,645,l),
(268,621,o),
(273,596,o),
(273,568,cs),
(273,409,o),
(124,200,o),
(144,115,c),
(811,115,l),
(811,120,l),
(529,120,ls),
(339,120,o),
(315,244,o),
(315,294,cs),
(315,296,ls),
(315,360,o),
(368,382,o),
(416,382,c),
(659,382,l),
(659,382,l),
(416,382,l),
(401,382,o),
(315,383,o),
(315,482,cs),
(315,485,ls),
(315,605,o),
(384,645,o),
(492,645,c),
(693,645,l)
);
}
);
width = 871;
},
{
anchors = (
{
name = bottom;
pos = (440,0);
},
{
name = ogonek;
pos = (770,10);
},
{
name = top;
pos = (440,750);
},
{
name = topleft;
pos = (20,750);
}
);
associatedMasterId = "F6D8640C-383C-48A8-B63C-DDE9F10207CE";
layerId = "F8768E3B-DD7E-47C8-9D31-BD3EF755A9E0";
name = "Mar 4 20, 18:32";
shapes = (
{
closed = 1;
nodes = (
(861,750,l),
(20,750,l),
(20,500,o),
(20,250,o),
(20,0,c),
(867,0,l),
(867,249,l),
(426,249,l),
(425,249,o),
(425,249,o),
(425,250,c),
(425,324,l),
(425,324,o),
(425,324,o),
(426,324,c),
(856,324,l),
(856,438,l),
(426,438,l),
(425,438,o),
(425,438,o),
(425,438,c),
(425,510,l),
(425,511,o),
(425,511,o),
(426,511,c),
(861,511,l)
);
}
);
width = 879;
},
{
anchors = (
{
name = bottom;
pos = (440,0);
},
{
name = ogonek;
pos = (770,10);
},
{
name = top;
pos = (440,750);
},
{
name = topleft;
pos = (20,750);
}
);
associatedMasterId = "F6D8640C-383C-48A8-B63C-DDE9F10207CE";
layerId = "BEB262FC-044D-462D-A741-74BEF44FED8F";
name = "Mar 4 20, 18:32";
shapes = (
{
closed = 1;
nodes = (
(861,750,l),
(20,750,l),
(20,500,o),
(20,250,o),
(20,0,c),
(867,0,l),
(867,249,l),
(426,249,l),
(425,249,o),
(425,249,o),
(425,250,c),
(425,290,l),
(425,291,o),
(425,291,o),
(426,291,c),
(856,291,l),
(856,473,l),
(426,473,l),
(425,473,o),
(425,473,o),
(425,474,c),
(425,510,l),
(425,511,o),
(425,511,o),
(426,511,c),
(861,511,l)
);
}
);
width = 879;
},
{
anchors = (
{
name = bottom;
pos = (440,0);
},
{
name = ogonek;
pos = (770,10);
},
{
name = top;
pos = (440,750);
},
{
name = topleft;
pos = (20,750);
}
);
associatedMasterId = "F6D8640C-383C-48A8-B63C-DDE9F10207CE";
layerId = "3C204D5B-6248-4B59-BC75-E45FEEFF65E9";
name = "Mar 4 20, 21:25";
shapes = (
{
closed = 1;
nodes = (
(861,750,l),
(20,750,l),
(20,500,o),
(20,250,o),
(20,0,c),
(867,0,l),
(867,296,l),
(426,296,l),
(425,296,o),
(425,296,o),
(425,296,c),
(425,332,l),
(425,333,o),
(425,333,o),
(426,333,c),
(856,333,l),
(856,430,l),
(426,430,l),
(425,430,o),
(425,430,o),
(425,431,c),
(425,464,l),
(425,464,o),
(425,464,o),
(426,464,c),
(861,464,l)
);
}
);
width = 879;
},
{
anchors = (
{
name = bottom;
pos = (440,0);
},
{
name = ogonek;
pos = (770,10);
},
{
name = top;
pos = (440,750);
},
{
name = topleft;
pos = (20,750);
}
);
associatedMasterId = "F6D8640C-383C-48A8-B63C-DDE9F10207CE";
layerId = "2AEF7D0D-1718-44BB-89BE-8700996C9FE7";
name = "Mar 16 20, 03:23";
shapes = (
{
closed = 1;
nodes = (
(861,750,l),
(20,750,l),
(20,500,o),
(20,250,o),
(20,0,c),
(867,0,l),
(867,232,l),
(426,232,l),
(425,232,o),
(425,232,o),
(425,232,c),
(425,288,l),
(425,290,o),
(425,290,o),
(426,290,c),
(856,290,l),
(856,441,l),
(426,441,l),
(425,441,o),
(425,441,o),
(425,443,c),
(425,494,l),
(425,494,o),
(425,494,o),
(426,494,c),
(861,494,l)
);
}
);
width = 879;
},
{
anchors = (
{
name = bottom;
pos = (472,0);
},
{
name = ogonek;
pos = (811,115);
},
{
name = top;
pos = (472,750);
},
{
name = topleft;
pos = (52,750);
}
);
associatedMasterId = "96858A69-C8A6-410B-90BB-94EA0DA45935";
background = {
shapes = (
{
closed = 1;
nodes = (
(344,521,l),
(344,551,o),
(356,581,o),
(378,602,c),
(399,623,o),
(429,636,o),
(459,636,c),
(776,636,l),
(776,645,l),
(159,645,l),
(159,125,l),
(776,125,l),
(776,134,l),
(459,134,l),
(429,134,o),
(399,146,o),
(378,167,c),
(356,189,o),
(344,218,o),
(344,249,c),
(344,299,l),
(344,329,o),
(356,359,o),
(378,380,c),
(379,382,o),
(381,383,o),
(383,385,c),
(381,386,o),
(379,388,o),
(378,389,c),
(356,411,o),
(344,440,o),
(344,471,c)
);
}
);
};
layerId = "3E484E81-5F90-41E1-983C-2B4990D529A8";
name = "15 May 21, 15:02";
shapes = (
{
closed = 1;
nodes = (
(693,645,l),
(258,645,l),
(329,484,o),
(120,214,o),
(144,115,c),
(811,115,l),
(811,120,l),
(529,120,ls),
(339,120,o),
(315,244,o),
(315,294,cs),
(315,296,ls),
(315,360,o),
(368,382,o),
(416,382,c),
(659,382,l),
(659,382,l),
(416,382,l),
(401,382,o),
(315,383,o),
(315,482,cs),
(315,485,ls),
(315,605,o),
(384,645,o),
(492,645,c),
(693,645,l)
);
}
);
width = 871;
},
{
anchors = (
{
name = bottom;
pos = (440,0);
},
{
name = ogonek;
pos = (854,0);
},
{
name = top;
pos = (440,750);
},
{
name = topleft;
pos = (20,750);
}
);
associatedMasterId = "F6D8640C-383C-48A8-B63C-DDE9F10207CE";
layerId = "1A2DFDB0-23AB-4019-A1CB-39788A74C47D";
name = "24 Jun 21, 12:06";
shapes = (
{
closed = 1;
nodes = (
(863,750,l),
(20,750,l),
(20,698,o),
(20,645,o),
(20,593,cs),
(20,395,o),
(20,198,o),
(20,0,c),
(867,0,l),
(867,242,l),
(426,242,l),
(425,242,o),
(425,242,o),
(425,242,c),
(425,298,l),
(425,300,o),
(425,300,o),
(426,300,c),
(846,300,l),
(846,441,l),
(426,441,l),
(425,441,o),
(425,441,o),
(425,443,c),
(425,494,l),
(425,494,o),
(425,494,o),
(426,494,c),
(863,494,l)
);
}
);
width = 883;
},
{
anchors = (
{
name = bottom;
pos = (440,0);
},
{
name = ogonek;
pos = (854,0);
},
{
name = top;
pos = (440,750);
},
{
name = topleft;
pos = (20,750);
}
);
layerId = "F6D8640C-383C-48A8-B63C-DDE9F10207CE";
name = Regular;
shapes = (
{
closed = 1;
nodes = (
(861,750,l),
(20,750,l),
(20,698,o),
(20,645,o),
(20,593,cs),
(20,395,o),
(20,198,o),
(20,0,c),
(867,0,l),
(867,242,l),
(426,242,l),
(425,242,o),
(425,242,o),
(425,242,c),
(425,298,l),
(425,300,o),
(425,300,o),
(426,300,c),
(846,300,l),
(846,441,l),
(426,441,l),
(425,441,o),
(425,441,o),
(425,443,c),
(425,498,l),
(425,498,o),
(425,498,o),
(426,498,c),
(861,498,l)
);
}
);
width = 885;
},
{
anchors = (
{
name = bottom;
pos = (440,0);
},
{
name = ogonek;
pos = (854,0);
},
{
name = top;
pos = (440,750);
},
{
name = topleft;
pos = (20,750);
}
);
associatedMasterId = "F6D8640C-383C-48A8-B63C-DDE9F10207CE";
layerId = "418CAA77-A5E0-478C-BCA0-EC1EA60F39A2";
name = "23 Aug 21, 17:36";
shapes = (
{
closed = 1;
nodes = (
(861,750,l),
(20,750,l),
(20,698,o),
(20,645,o),
(20,593,cs),
(20,395,o),
(20,198,o),
(20,0,c),
(867,0,l),
(867,242,l),
(426,242,l),
(425,242,o),
(425,242,o),
(425,242,c),
(425,298,l),
(425,300,o),
(425,300,o),
(426,300,c),
(846,300,l),
(846,441,l),
(426,441,l),
(425,441,o),
(425,441,o),
(425,443,c),
(425,494,l),
(425,494,o),
(425,494,o),
(426,494,c),
(861,494,l)
);
}
);
width = 885;
}
);
unicode = 69;
},
{
color = 6;
glyphname = Eogonek;
kernLeft = H;
kernRight = E;
lastChange = "2021-09-04 07:33:57 +0000";
layers = (
{
layerId = "96858A69-C8A6-410B-90BB-94EA0DA45935";
shapes = (
{
closed = 1;
nodes = (
(722,-105,o),
(768,-77,o),
(796,-34,c),
(796,-33,l),
(791,-34,o),
(787,-34,o),
(783,-34,cs),
(748,-34,o),
(721,-7,o),
(721,29,cs),
(721,64,o),
(734,95,o),
(811,115,c),
(811,120,l),
(529,120,l),
(339,120,o),
(315,244,o),
(315,294,cs),
(315,296,ls),
(315,360,o),
(368,382,o),
(416,382,c),
(659,382,l),
(659,382,l),
(416,382,l),
(401,382,o),
(315,383,o),
(315,482,cs),
(315,485,ls),
(315,605,o),
(384,645,o),
(492,645,c),
(693,645,l),
(693,645,l),
(258,645,l),
(268,621,o),
(273,596,o),
(273,568,cs),
(273,409,o),
(124,200,o),
(144,115,c),
(655,115,l),
(902,115,o),
(582,53,o),
(582,-45,cs),
(582,-77,o),
(611,-105,o),
(667,-105,cs)
);
}
);
width = 871;
},
{
background = {
shapes = (
{
ref = E;
}
);
};
layerId = "F6D8640C-383C-48A8-B63C-DDE9F10207CE";
name = Regular;
shapes = (
{
closed = 1;
nodes = (
(765,-308,o),
(806,-300,o),
(861,-285,c),
(861,-89,l),
(831,-101,o),
(810,-105,o),
(782,-105,cs),
(748,-105,o),
(728,-92,o),
(728,-70,cs),
(728,-43,o),
(756,-5,o),
(867,0,c),
(867,242,l),
(426,242,l),
(425,242,o),
(425,242,o),
(425,242,c),
(425,298,l),
(425,300,o),
(425,300,o),
(426,300,c),
(846,300,l),
(846,441,l),
(426,441,l),
(425,441,o),
(425,441,o),
(425,443,c),
(425,498,l),
(425,498,o),
(425,498,o),
(426,498,c),
(861,498,l),
(861,750,l),
(20,750,l),
(20,697,o),
(20,645,o),
(20,593,cs),
(20,395,o),
(20,197,o),
(20,0,c),
(527,0,l),
(482,-37,o),
(459,-85,o),
(459,-140,cs),
(459,-247,o),
(540,-308,o),
(703,-308,cs)
);
}
);
width = 885;
},
{
anchors = (
{
name = bottom;
pos = (440,0);
},
{
name = ogonek;
pos = (770,10);
},
{
name = top;
pos = (440,750);
},
{
name = topleft;
pos = (20,750);
}
);
associatedMasterId = "F6D8640C-383C-48A8-B63C-DDE9F10207CE";
layerId = "D060DB50-EA0D-40AC-94CD-988B1BE5EA82";
name = "06 May 21, 23:07";
shapes = (
{
closed = 1;
nodes = (
(743,-308,o),
(785,-300,o),
(840,-285,c),
(840,-89,l),
(810,-101,o),
(785,-105,o),
(757,-105,cs),
(723,-105,o),
(706,-95,o),
(706,-73,cs),
(706,-43,o),
(746,-10,o),
(867,0,c),
(867,242,l),
(426,242,l),
(425,242,o),
(425,242,o),
(425,242,c),
(425,298,l),
(425,300,o),
(425,300,o),
(426,300,c),
(846,300,l),
(846,441,l),
(426,441,l),
(425,441,o),
(425,441,o),
(425,443,c),
(425,494,l),
(425,494,o),
(425,494,o),
(426,494,c),
(861,494,l),
(861,750,l),
(20,750,l),
(20,500,o),
(20,250,o),
(20,0,c),
(499,0,l),
(460,-38,o),
(437,-95,o),
(437,-144,cs),
(437,-245,o),
(518,-308,o),
(681,-308,cs)
);
}
);
width = 879;
},
{
anchors = (
{
name = bottom;
pos = (482,0);
},
{
name = top;
pos = (482,750);
},
{
name = topleft;
pos = (52,750);
}
);
associatedMasterId = "96858A69-C8A6-410B-90BB-94EA0DA45935";
layerId = "69B84B96-BCE8-4E46-AB2E-BCA8DD93BFE4";
name = "15 May 21, 15:02";
shapes = (
{
closed = 1;
nodes = (
(722,-105,o),
(768,-77,o),
(796,-34,c),
(796,-33,l),
(791,-34,o),
(787,-34,o),
(783,-34,cs),
(748,-34,o),
(721,-10,o),
(721,20,cs),
(721,49,o),
(745,85,o),
(811,115,c),
(811,120,l),
(529,120,l),
(339,120,o),
(315,244,o),
(315,294,cs),
(315,296,ls),
(315,360,o),
(368,382,o),
(416,382,c),
(659,382,l),
(659,382,l),
(416,382,l),
(401,382,o),
(315,383,o),
(315,482,cs),
(315,485,ls),
(315,605,o),
(384,645,o),
(492,645,c),
(693,645,l),
(693,645,l),
(258,645,l),
(329,484,o),
(120,214,o),
(144,115,c),
(655,115,l),
(913,95,o),
(582,57,o),
(582,-45,cs),
(582,-77,o),
(611,-105,o),
(667,-105,cs)
);
}
);
width = 871;
}
);
metricLeft = E;
metricRight = E;
unicode = 280;
},
{
color = 6;
glyphname = F;
kernLeft = H;
kernRight = F;
lastChange = "2021-09-04 07:33:57 +0000";
layers = (
{
anchors = (
{
name = bottom;
pos = (375,0);
},
{
name = top;
pos = (375,750);
}
);
layerId = "96858A69-C8A6-410B-90BB-94EA0DA45935";
shapes = (
{
closed = 1;
nodes = (
(693,645,l),
(225,645,l),
(231,619,o),
(233,594,o),
(233,569,cs),
(233,398,o),
(121,235,o),
(137,115,c),
(358,115,l),
(328,132,o),
(303,160,o),
(303,211,cs),
(303,268,o),
(345,289,o),
(387,289,c),
(641,289,l),
(641,289,l),
(387,289,l),
(310,289,o),
(264,325,o),
(264,401,cs),
(264,410,ls),
(264,500,o),
(308,640,o),
(519,640,c),
(693,640,l)
);
}
);
width = 868;
},
{
anchors = (
{
name = bottom;
pos = (437,0);
},
{
name = top;
pos = (437,750);
}
);
associatedMasterId = "F6D8640C-383C-48A8-B63C-DDE9F10207CE";
layerId = "5A424C58-11E7-4712-AE26-14A4D27ECE58";
name = "Mar 16 20, 03:25";
shapes = (
{
closed = 1;
nodes = (
(861,750,l),
(20,750,l),
(20,500,o),
(20,250,o),
(20,0,c),
(436,0,l),
(436,68,o),
(436,136,o),
(436,204,c),
(436,205,o),
(436,205,o),
(436,205,c),
(857,205,l),
(857,414,l),
(436,414,l),
(436,414,o),
(436,414,o),
(436,415,c),
(436,455,l),
(436,456,o),
(436,456,o),
(436,456,c),
(861,456,l)
);
}
);
width = 873;
},
{
anchors = (
{
name = bottom;
pos = (375,0);
},
{
name = top;
pos = (375,750);
}
);
associatedMasterId = "96858A69-C8A6-410B-90BB-94EA0DA45935";
layerId = "2233D3E3-4AE7-4026-B99F-883B3882EAF2";
name = "15 May 21, 15:04";
shapes = (
{
closed = 1;
nodes = (
(693,645,l),
(225,645,l),
(269,447,o),
(119,253,o),
(137,115,c),
(358,115,l),
(328,132,o),
(303,160,o),
(303,211,cs),
(303,268,o),
(345,289,o),
(387,289,c),
(641,289,l),
(641,289,l),
(387,289,l),
(310,289,o),
(264,325,o),
(264,401,cs),
(264,410,ls),
(264,500,o),
(308,640,o),
(519,640,c),
(693,640,l)
);
}
);
width = 868;
},
{
anchors = (
{
name = bottom;
pos = (437,0);
},
{
name = top;
pos = (437,750);
}
);
associatedMasterId = "F6D8640C-383C-48A8-B63C-DDE9F10207CE";
layerId = "A26FA0E7-BE1D-4F5F-A9FF-ECB5931DC389";
name = "24 Jun 21, 12:06";
shapes = (
{
closed = 1;
nodes = (
(861,750,l),
(20,750,l),
(20,689,o),
(20,628,o),
(20,567,cs),
(20,378,o),
(20,189,o),
(20,0,c),
(436,0,l),
(436,68,o),
(436,126,o),
(436,194,c),
(436,195,o),
(436,195,o),
(436,195,c),
(852,195,l),
(852,404,l),
(436,404,l),
(436,404,o),
(436,404,o),
(436,405,c),
(436,455,l),
(436,456,o),
(436,456,o),
(436,456,c),
(861,456,l)
);
}
);
visible = 1;
width = 876;
},
{
anchors = (
{
name = bottom;
pos = (437,0);
},
{
name = top;
pos = (437,750);
}
);
layerId = "F6D8640C-383C-48A8-B63C-DDE9F10207CE";
name = Regular;
shapes = (
{
closed = 1;
nodes = (
(861,750,l),
(20,750,l),
(20,689,o),
(20,628,o),
(20,567,cs),
(20,378,o),
(20,189,o),
(20,0,c),
(436,0,l),
(436,68,o),
(436,89,o),
(436,157,c),
(436,158,o),
(436,158,o),
(436,158,c),
(846,158,l),
(846,396,l),
(436,396,l),
(436,396,o),
(436,396,o),
(436,397,c),
(436,455,l),
(436,456,o),
(436,456,o),
(436,456,c),
(861,456,l)
);
}
);
width = 877;
}
);
unicode = 70;
},
{
color = 6;
glyphname = G;
kernLeft = O;
kernRight = G;
lastChange = "2021-09-04 07:33:57 +0000";
layers = (
{
anchors = (
{
name = bottom;
pos = (569,0);
},
{
name = top;
pos = (569,750);
}
);
associatedMasterId = "96858A69-C8A6-410B-90BB-94EA0DA45935";
layerId = "8CD74899-A864-41F7-B1FC-F660F85E2F6D";
name = "15 May 21, 15:05";
shapes = (
{
closed = 1;
nodes = (
(-38,661,o),
(147,513,o),
(223,431,cs),
(319,327,o),
(202,90,o),
(446,78,c),
(478,136,o),
(539,215,o),
(558,245,c),
(533,233,o),
(504,229,o),
(478,229,cs),
(408,229,o),
(254,268,o),
(254,443,cs),
(254,589,o),
(325,656,o),
(504,656,cs),
(593,656,o),
(779,656,o),
(764,491,c),
(943,521,l),
(879,620,o),
(706,661,o),
(503,661,cs)
);
},
{
closed = 1;
nodes = (
(941,115,l),
(941,169,l),
(846,179,o),
(737,228,o),
(707,287,c),
(707,284,o),
(707,201,o),
(707,115,c)
);
}
);
width = 1117;
},
{
anchors = (
{
name = bottom;
pos = (566,0);
},
{
name = top;
pos = (566,750);
}
);
associatedMasterId = "F6D8640C-383C-48A8-B63C-DDE9F10207CE";
layerId = "3D2CDBCF-D183-48EC-B974-FA211E978756";
name = "15 May 21, 15:05";
shapes = (
{
closed = 1;
nodes = (
(164,785,o),
(10,590,o),
(10,374,cs),
(10,125,o),
(205,-52,o),
(582,-7,c),
(614,110,o),
(647,227,o),
(679,344,c),
(663,316,o),
(628,300,o),
(560,300,cs),
(471,300,o),
(435,341,o),
(435,383,cs),
(435,426,o),
(465,470,o),
(560,470,cs),
(660,470,o),
(701,419,o),
(679,344,c),
(1111,446,l),
(1079,639,o),
(916,785,o),
(561,785,cs)
);
},
{
closed = 1;
nodes = (
(1103,0,l),
(1103,344,l),
(962,344,o),
(820,344,o),
(679,344,c),
(679,229,o),
(679,115,o),
(679,0,c)
);
}
);
width = 1121;
},
{
anchors = (
{
name = bottom;
pos = (569,0);
},
{
name = top;
pos = (569,750);
}
);
associatedMasterId = "96858A69-C8A6-410B-90BB-94EA0DA45935";
layerId = "91F3FCFF-C041-45D0-AD96-68549E49DC5C";
name = "15 May 21, 15:12";
shapes = (
{
closed = 1;
nodes = (
(-38,661,o),
(147,513,o),
(223,431,cs),
(319,327,o),
(202,90,o),
(446,78,c),
(478,136,o),
(539,215,o),
(558,245,c),
(533,233,o),
(504,229,o),
(478,229,cs),
(408,229,o),
(254,268,o),
(254,443,cs),
(254,589,o),
(325,656,o),
(504,656,cs),
(674,656,o),
(773,621,o),
(764,491,c),
(943,521,l),
(879,620,o),
(706,661,o),
(503,661,cs)
);
},
{
closed = 1;
nodes = (
(941,115,l),
(941,169,l),
(846,179,o),
(737,228,o),
(707,287,c),
(707,284,o),
(707,201,o),
(707,115,c)
);
}
);
width = 1117;
},
{
anchors = (
{
name = bottom;
pos = (569,0);
},
{
name = top;
pos = (569,750);
}
);
associatedMasterId = "96858A69-C8A6-410B-90BB-94EA0DA45935";
layerId = "C4B91E99-6BF9-470C-8129-D14D142E3BEA";
name = "18 May 21, 11:07";
shapes = (
{
closed = 1;
nodes = (
(-38,661,o),
(147,513,o),
(223,431,cs),
(325,321,o),
(194,100,o),
(446,88,c),
(478,146,o),
(539,225,o),
(558,255,c),
(533,243,o),
(504,239,o),
(478,239,cs),
(390,239,o),
(254,273,o),
(254,441,cs),
(254,590,o),
(325,656,o),
(504,656,cs),
(674,656,o),
(773,621,o),
(764,491,c),
(943,521,l),
(879,620,o),
(706,661,o),
(503,661,cs)
);
},
{
closed = 1;
nodes = (
(941,115,l),
(941,169,l),
(846,179,o),
(737,228,o),
(707,287,c),
(707,284,o),
(707,201,o),
(707,115,c)
);
}
);
width = 1117;
},
{
anchors = (
{
name = bottom;
pos = (566,0);
},
{
name = top;
pos = (566,750);
}
);
associatedMasterId = "F6D8640C-383C-48A8-B63C-DDE9F10207CE";
background = {
shapes = (
{
ref = C;
}
);
};
layerId = "237AB7EC-188F-4538-9305-19D7B8176A52";
name = "19 Aug 21, 12:10";
shapes = (
{
closed = 1;
nodes = (
(164,785,o),
(10,590,o),
(10,374,cs),
(10,148,o),
(166,-25,o),
(469,-25,cs),
(505,-25,o),
(542,-23,o),
(582,-18,c),
(614,101,o),
(647,225,o),
(679,344,c),
(663,316,o),
(628,300,o),
(560,300,cs),
(471,300,o),
(435,341,o),
(435,383,cs),
(435,426,o),
(465,470,o),
(560,470,cs),
(660,470,o),
(701,419,o),
(679,344,c),
(1111,446,l),
(1079,639,o),
(916,785,o),
(561,785,cs)
);
},
{
closed = 1;
nodes = (
(1103,0,l),
(1103,344,l),
(962,344,o),
(820,344,o),
(679,344,c),
(679,229,o),
(679,115,o),
(679,0,c)
);
}
);
width = 1129;
},
{
anchors = (
{
name = bottom;
pos = (566,0);
},
{
name = top;
pos = (566,750);
}
);
background = {
shapes = (
{
ref = C;
}
);
};
layerId = "F6D8640C-383C-48A8-B63C-DDE9F10207CE";
name = Regular;
shapes = (
{
closed = 1;
nodes = (
(164,780,o),
(10,587,o),
(10,374,cs),
(10,148,o),
(166,-25,o),
(469,-25,cs),
(516,-25,o),
(546,-22,o),
(582,-15,c),
(614,103,o),
(647,226,o),
(679,344,c),
(663,316,o),
(628,300,o),
(560,300,cs),
(471,300,o),
(435,341,o),
(435,383,cs),
(435,426,o),
(465,470,o),
(560,470,cs),
(660,470,o),
(701,419,o),
(679,344,c),
(1111,446,l),
(1079,636,o),
(916,780,o),
(561,780,cs)
);
},
{
closed = 1;
nodes = (
(1103,0,l),
(1103,344,l),
(962,344,o),
(820,344,o),
(679,344,c),
(679,229,o),
(679,115,o),
(679,0,c)
);
}
);
width = 1129;
},
{
anchors = (
{
name = bottom;
pos = (566,0);
},
{
name = top;
pos = (566,750);
}
);
associatedMasterId = "F6D8640C-383C-48A8-B63C-DDE9F10207CE";
background = {
shapes = (
{
ref = C;
}
);
};
layerId = "89DD8382-40E9-4041-89CA-0EA2C4ECD0F2";
name = "20 Aug 21, 13:21";
shapes = (
{
closed = 1;
nodes = (
(164,785,o),
(10,590,o),
(10,374,cs),
(10,148,o),
(166,-25,o),
(469,-25,cs),
(516,-25,o),
(546,-22,o),
(582,-15,c),
(614,103,o),
(647,226,o),
(679,344,c),
(663,316,o),
(628,300,o),
(560,300,cs),
(471,300,o),
(435,341,o),
(435,383,cs),
(435,426,o),
(465,470,o),
(560,470,cs),
(660,470,o),
(701,419,o),
(679,344,c),
(1111,446,l),
(1079,639,o),
(916,785,o),
(561,785,cs)
);
},
{
closed = 1;
nodes = (
(1103,0,l),
(1103,344,l),
(962,344,o),
(820,344,o),
(679,344,c),
(679,229,o),
(679,115,o),
(679,0,c)
);
}
);
width = 1129;
},
{
anchors = (
{
name = bottom;
pos = (569,0);
},
{
name = top;
pos = (569,750);
}
);
background = {
shapes = (
{
ref = C;
}
);
};
layerId = "96858A69-C8A6-410B-90BB-94EA0DA45935";
name = "2050";
shapes = (
{
closed = 1;
nodes = (
(-38,661,o),
(147,513,o),
(223,431,cs),
(323,323,o),
(198,95,o),
(434,88,cs),
(438,88,o),
(442,88,o),
(446,88,c),
(478,146,o),
(539,225,o),
(558,255,c),
(533,243,o),
(504,239,o),
(478,239,cs),
(390,239,o),
(254,273,o),
(254,441,cs),
(254,590,o),
(325,656,o),
(504,656,cs),
(674,656,o),
(773,621,o),
(764,491,c),
(943,521,l),
(879,620,o),
(706,661,o),
(503,661,cs)
);
},
{
closed = 1;
nodes = (
(941,115,l),
(941,169,l),
(846,179,o),
(737,228,o),
(707,287,c),
(707,284,o),
(707,201,o),
(707,115,c)
);
}
);
width = 1097;
}
);
unicode = 71;
},
{
color = 6;
glyphname = H;
kernLeft = H;
kernRight = H;
lastChange = "2021-09-04 12:00:07 +0000";
layers = (
{
anchors = (
{
name = bottom;
pos = (505,0);
},
{
name = center;
pos = (502,375);
},
{
name = top;
pos = (505,750);
},
{
name = topleft;
pos = (12,750);
}
);
layerId = "F6D8640C-383C-48A8-B63C-DDE9F10207CE";
shapes = (
{
closed = 1;
nodes = (
(575,653,o),
(575,555,o),
(575,458,cs),
(575,457,o),
(574,456,o),
(573,456,cs),
(436,456,ls),
(435,456,o),
(435,457,o),
(435,458,cs),
(435,555,o),
(435,653,o),
(435,750,c),
(20,750,l),
(20,700,o),
(20,650,o),
(20,600,cs),
(20,400,o),
(20,200,o),
(20,0,c),
(435,0,l),
(435,81,o),
(435,163,o),
(435,244,cs),
(435,245,o),
(435,246,o),
(436,246,cs),
(573,246,ls),
(574,246,o),
(575,245,o),
(575,244,cs),
(575,163,o),
(575,81,o),
(575,0,c),
(990,0,l),
(990,124,o),
(990,248,o),
(990,371,cs),
(990,498,o),
(990,624,o),
(990,750,c),
(575,750,l)
);
}
);
width = 1010;
},
{
anchors = (
{
name = bottom;
pos = (514,0);
},
{
name = center;
pos = (514,375);
},
{
name = top;
pos = (514,750);
},
{
name = topleft;
pos = (36,750);
}
);
background = {
shapes = (
{
closed = 1;
nodes = (
(296,634,l),
(111,635,l),
(111,115,l),
(296,115,l),
(296,246,l),
(296,276,o),
(308,306,o),
(329,328,c),
(339,338,o),
(351,346,o),
(364,351,c),
(351,357,o),
(339,365,o),
(329,375,c),
(308,396,o),
(296,426,o),
(296,456,c)
);
},
{
closed = 1;
nodes = (
(656,426,o),
(643,396,o),
(622,375,c),
(612,365,o),
(600,357,o),
(587,351,c),
(600,346,o),
(612,338,o),
(622,328,c),
(643,306,o),
(656,276,o),
(656,246,c),
(656,115,l),
(841,115,l),
(841,635,l),
(656,635,l),
(656,456,l)
);
}
);
};
layerId = "96858A69-C8A6-410B-90BB-94EA0DA45935";
shapes = (
{
closed = 1;
nodes = (
(681,615,o),
(702,551,o),
(702,483,cs),
(702,405,o),
(662,351,o),
(581,351,cs),
(395,351,ls),
(334,351,o),
(309,391,o),
(309,443,cs),
(309,508,o),
(348,594,o),
(403,645,c),
(261,645,l),
(268,628,o),
(271,608,o),
(271,587,cs),
(271,440,o),
(126,207,o),
(126,115,c),
(338,115,l),
(319,149,o),
(308,192,o),
(308,231,cs),
(308,295,o),
(336,351,o),
(395,351,cs),
(581,351,ls),
(660,351,o),
(704,298,o),
(704,224,cs),
(704,191,o),
(695,153,o),
(677,115,c),
(855,115,l),
(818,179,o),
(810,262,o),
(810,346,cs),
(810,456,o),
(824,569,o),
(807,645,c),
(639,645,l)
);
}
);
width = 989;
},
{
anchors = (
{
name = bottom;
pos = (514,0);
},
{
name = center;
pos = (514,375);
},
{
name = top;
pos = (514,750);
},
{
name = topleft;
pos = (36,750);
}
);
associatedMasterId = "96858A69-C8A6-410B-90BB-94EA0DA45935";
background = {
shapes = (
{
closed = 1;
nodes = (
(296,634,l),
(111,635,l),
(111,115,l),
(296,115,l),
(296,246,l),
(296,276,o),
(308,306,o),
(329,328,c),
(339,338,o),
(351,346,o),
(364,351,c),
(351,357,o),
(339,365,o),
(329,375,c),
(308,396,o),
(296,426,o),
(296,456,c)
);
},
{
closed = 1;
nodes = (
(656,426,o),
(643,396,o),
(622,375,c),
(612,365,o),
(600,357,o),
(587,351,c),
(600,346,o),
(612,338,o),
(622,328,c),
(643,306,o),
(656,276,o),
(656,246,c),
(656,115,l),
(841,115,l),
(841,635,l),
(656,635,l),
(656,456,l)
);
}
);
};
layerId = "1D1C14AA-BFD3-4941-BF69-9CFBD2B6BA9E";
name = "15 May 21, 15:16";
shapes = (
{
closed = 1;
nodes = (
(681,615,o),
(702,551,o),
(702,483,cs),
(702,405,o),
(662,351,o),
(581,351,cs),
(395,351,ls),
(334,351,o),
(309,391,o),
(309,443,cs),
(309,508,o),
(348,594,o),
(403,645,c),
(261,645,l),
(317,511,o),
(126,220,o),
(126,115,c),
(338,115,l),
(319,149,o),
(308,192,o),
(308,231,cs),
(308,295,o),
(336,351,o),
(395,351,cs),
(581,351,ls),
(660,351,o),
(704,298,o),
(704,224,cs),
(704,191,o),
(695,153,o),
(677,115,c),
(855,115,l),
(770,262,o),
(837,511,o),
(807,645,c),
(639,645,l)
);
}
);
width = 989;
},
{
anchors = (
{
name = bottom;
pos = (505,0);
},
{
name = center;
pos = (502,375);
},
{
name = top;
pos = (505,750);
},
{
name = topleft;
pos = (12,750);
}
);
associatedMasterId = "F6D8640C-383C-48A8-B63C-DDE9F10207CE";
layerId = "693AEFA7-AE2C-47EC-877A-F8255CEE350F";
name = "15 May 21, 15:16";
shapes = (
{
closed = 1;
nodes = (
(575,653,o),
(575,555,o),
(575,458,cs),
(575,457,o),
(574,456,o),
(573,456,cs),
(436,456,ls),
(435,456,o),
(435,457,o),
(435,458,cs),
(435,555,o),
(435,653,o),
(435,750,c),
(20,750,l),
(20,500,o),
(20,250,o),
(20,0,c),
(435,0,l),
(435,81,o),
(435,163,o),
(435,244,cs),
(435,245,o),
(435,246,o),
(436,246,cs),
(573,246,ls),
(574,246,o),
(575,245,o),
(575,244,cs),
(575,163,o),
(575,81,o),
(575,0,c),
(990,0,l),
(990,250,o),
(990,500,o),
(990,750,c),
(575,750,l)
);
}
);
width = 1010;
}
);
unicode = 72;
},
{
color = 3;
glyphname = Hbar;
kernLeft = H;
kernRight = H;
lastChange = "2021-09-04 07:33:57 +0000";
layers = (
{
layerId = "F6D8640C-383C-48A8-B63C-DDE9F10207CE";
shapes = (
{
closed = 1;
nodes = (
(1084,559,l),
(1084,647,l),
(6,647,l),
(6,559,l)
);
},
{
pos = (40,0);
ref = H;
}
);
width = 1090;
},
{
layerId = "96858A69-C8A6-410B-90BB-94EA0DA45935";
shapes = (
{
closed = 1;
nodes = (
(924,540,l),
(924,546,l),
(210,546,l),
(210,540,l)
);
},
{
pos = (31,0);
ref = H;
}
);
width = 1088;
},
{
associatedMasterId = "96858A69-C8A6-410B-90BB-94EA0DA45935";
layerId = "4A9949AD-120E-476B-9336-F88CDF3E468A";
name = "17 May 21, 15:01";
shapes = (
{
closed = 1;
nodes = (
(930,558,l),
(930,568,l),
(219,568,l),
(219,558,l)
);
},
{
pos = (31,0);
ref = H;
}
);
width = 1088;
}
);
unicode = 294;
},
{
color = 6;
glyphname = I;
kernLeft = H;
kernRight = H;
lastChange = "2021-09-04 07:33:57 +0000";
layers = (
{
anchors = (
{
name = bottom;
pos = (228,0);
},
{
name = ogonek;
pos = (370,0);
},
{
name = top;
pos = (228,750);
},
{
name = topleft;
pos = (20,750);
}
);
layerId = "F6D8640C-383C-48A8-B63C-DDE9F10207CE";
shapes = (
{
closed = 1;
nodes = (
(435,0,l),
(435,121,o),
(435,242,o),
(435,363,cs),
(435,492,o),
(435,621,o),
(435,750,c),
(20,750,l),
(20,692,o),
(20,634,o),
(20,576,cs),
(20,384,o),
(20,192,o),
(20,0,c)
);
}
);
width = 455;
},
{
anchors = (
{
name = bottom;
pos = (231,0);
},
{
name = ogonek;
pos = (339,115);
},
{
name = top;
pos = (231,750);
},
{
name = topleft;
pos = (35,750);
}
);
layerId = "96858A69-C8A6-410B-90BB-94EA0DA45935";
shapes = (
{
closed = 1;
nodes = (
(349,115,l),
(315,144,o),
(268,202,o),
(268,352,cs),
(268,424,o),
(276,522,o),
(299,645,c),
(161,645,l),
(166,614,o),
(169,581,o),
(169,549,cs),
(169,382,o),
(111,209,o),
(129,115,c)
);
}
);
width = 442;
},
{
anchors = (
{
name = bottom;
pos = (231,0);
},
{
name = ogonek;
pos = (339,115);
},
{
name = top;
pos = (231,750);
},
{
name = topleft;
pos = (35,750);
}
);
associatedMasterId = "96858A69-C8A6-410B-90BB-94EA0DA45935";
layerId = "9086242A-7875-48C0-9BFF-F44FA7CA9D9F";
name = "15 May 21, 15:18";
shapes = (
{
closed = 1;
nodes = (
(349,115,l),
(314,156,o),
(219,208,o),
(299,645,c),
(161,645,l),
(194,452,o),
(107,227,o),
(129,115,c)
);
}
);
visible = 1;
width = 442;
},
{
anchors = (
{
name = bottom;
pos = (228,0);
},
{
name = ogonek;
pos = (370,0);
},
{
name = top;
pos = (228,750);
},
{
name = topleft;
pos = (20,750);
}
);
associatedMasterId = "F6D8640C-383C-48A8-B63C-DDE9F10207CE";
layerId = "0F774EFA-1A09-4B6D-AA6C-A68A3230E013";
name = "15 May 21, 15:18";
shapes = (
{
closed = 1;
nodes = (
(435,0,l),
(435,250,o),
(435,500,o),
(435,750,c),
(20,750,l),
(20,500,o),
(20,250,o),
(20,0,c)
);
}
);
width = 455;
}
);
unicode = 73;
},
{
color = 6;
glyphname = IJ;
kernLeft = H;
kernRight = J;
lastChange = "2021-09-04 07:33:57 +0000";
layers = (
{
associatedMasterId = "F6D8640C-383C-48A8-B63C-DDE9F10207CE";
background = {
shapes = (
{
pos = (349,0);
ref = J;
}
);
};
layerId = "208E5DBB-55C9-4FD3-AF59-EB96455BF661";
name = "13 May 21, 14:24";
shapes = (
{
closed = 1;
nodes = (
(20,22,l),
(157,-19,o),
(251,-34,o),
(446,-34,cs),
(722,-34,o),
(949,64,o),
(949,321,cs),
(949,351,o),
(949,634,o),
(949,750,c),
(524,750,l),
(524,717,o),
(524,427,o),
(524,356,cs),
(524,302,o),
(433,271,o),
(324,271,cs),
(229,271,o),
(120,291,o),
(20,326,c)
);
},
{
closed = 1;
nodes = (
(435,362,l),
(435,487,o),
(435,625,o),
(435,750,c),
(20,750,l),
(20,625,o),
(20,487,o),
(20,362,c)
);
}
);
width = 968;
},
{
layerId = "96858A69-C8A6-410B-90BB-94EA0DA45935";
name = "2050";
shapes = (
{
closed = 1;
nodes = (
(163,148,l),
(248,124,o),
(389,108,o),
(498,108,cs),
(661,108,o),
(794,115,o),
(794,180,cs),
(794,252,o),
(708,330,o),
(708,459,cs),
(708,512,o),
(722,573,o),
(762,645,c),
(610,645,l),
(630,569,o),
(661,438,o),
(661,326,cs),
(661,211,o),
(628,113,o),
(517,113,cs),
(368,113,o),
(303,167,o),
(206,262,c)
);
},
{
closed = 1;
nodes = (
(366,403,l),
(321,433,o),
(290,472,o),
(290,527,cs),
(290,560,o),
(302,599,o),
(330,645,c),
(211,645,l),
(228,621,o),
(234,600,o),
(234,580,cs),
(234,512,o),
(171,464,o),
(183,403,c)
);
}
);
width = 958;
},
{
associatedMasterId = "96858A69-C8A6-410B-90BB-94EA0DA45935";
layerId = "F3658552-6082-4FAB-AEB1-A4B9870DC332";
name = "15 May 21, 15:19";
shapes = (
{
closed = 1;
nodes = (
(163,148,l),
(248,124,o),
(389,108,o),
(498,108,cs),
(661,108,o),
(794,115,o),
(794,180,cs),
(794,281,o),
(623,395,o),
(762,645,c),
(610,645,l),
(630,569,o),
(661,438,o),
(661,326,cs),
(661,211,o),
(628,113,o),
(517,113,cs),
(368,113,o),
(310,167,o),
(200,254,c)
);
},
{
closed = 1;
nodes = (
(369,403,l),
(303,451,o),
(270,521,o),
(333,645,c),
(211,645,l),
(273,539,o),
(163,482,o),
(179,403,c)
);
}
);
width = 958;
},
{
associatedMasterId = "F6D8640C-383C-48A8-B63C-DDE9F10207CE";
layerId = "BADD12F7-12A1-49F1-A021-26DF6E81BB60";
name = "15 May 21, 15:19";
shapes = (
{
closed = 1;
nodes = (
(20,26,l),
(138,-14,o),
(250,-34,o),
(436,-34,cs),
(727,-34,o),
(934,67,o),
(934,289,cs),
(934,357,o),
(934,634,o),
(934,750,c),
(509,750,l),
(509,717,o),
(509,453,o),
(509,400,cs),
(509,301,o),
(436,271,o),
(306,271,cs),
(187,271,o),
(104,290,o),
(20,347,c)
);
},
{
closed = 1;
nodes = (
(431,352,l),
(431,477,o),
(431,625,o),
(431,750,c),
(20,750,l),
(20,625,o),
(20,477,o),
(20,352,c)
);
}
);
width = 953;
},
{
associatedMasterId = "F6D8640C-383C-48A8-B63C-DDE9F10207CE";
layerId = "F042B870-F69D-42FC-B43E-40F6A9DD71E7";
name = "24 Jun 21, 10:46";
shapes = (
{
closed = 1;
nodes = (
(20,26,l),
(138,-14,o),
(250,-34,o),
(436,-34,cs),
(727,-34,o),
(934,67,o),
(934,289,cs),
(934,321,o),
(934,397,o),
(934,482,cs),
(934,580,o),
(934,688,o),
(934,750,c),
(509,750,l),
(509,717,o),
(509,453,o),
(509,400,cs),
(509,301,o),
(436,271,o),
(306,271,cs),
(187,271,o),
(104,290,o),
(20,347,c)
);
},
{
closed = 1;
nodes = (
(431,352,l),
(431,409,o),
(431,471,o),
(431,533,cs),
(431,607,o),
(431,682,o),
(431,750,c),
(20,750,l),
(20,702,o),
(20,651,o),
(20,598,cs),
(20,515,o),
(20,429,o),
(20,352,c)
);
}
);
width = 954;
},
{
layerId = "F6D8640C-383C-48A8-B63C-DDE9F10207CE";
name = Regular;
shapes = (
{
closed = 1;
nodes = (
(20,41,l),
(102,0,o),
(254,-26,o),
(390,-26,cs),
(699,-26,o),
(926,94,o),
(926,293,cs),
(926,325,o),
(926,401,o),
(926,482,cs),
(926,580,o),
(926,688,o),
(926,750,c),
(511,750,l),
(511,717,o),
(511,471,o),
(511,396,cs),
(511,326,o),
(434,295,o),
(287,295,cs),
(173,295,o),
(70,319,o),
(20,363,c)
);
},
{
closed = 1;
nodes = (
(435,366,l),
(435,423,o),
(435,495,o),
(435,550,cs),
(435,624,o),
(435,682,o),
(435,750,c),
(20,750,l),
(20,702,o),
(20,651,o),
(20,598,cs),
(20,532,o),
(20,443,o),
(20,366,c)
);
}
);
width = 945;
},
{
associatedMasterId = "F6D8640C-383C-48A8-B63C-DDE9F10207CE";
background = {
shapes = (
{
pos = (-68,0);
ref = U;
}
);
};
layerId = "F3D61077-7D8D-4DF7-981B-50B06519069E";
name = "26 Aug 21, 17:26";
shapes = (
{
closed = 1;
nodes = (
(20,29,l),
(162,-11,o),
(246,-26,o),
(425,-26,cs),
(708,-26,o),
(926,94,o),
(926,293,cs),
(926,325,o),
(926,397,o),
(926,482,cs),
(926,580,o),
(926,688,o),
(926,750,c),
(511,750,l),
(511,717,o),
(511,464,o),
(511,389,cs),
(511,319,o),
(465,288,o),
(312,288,cs),
(203,288,o),
(110,306,o),
(20,347,c)
);
},
{
closed = 1;
nodes = (
(431,359,l),
(431,416,o),
(431,488,o),
(431,550,cs),
(431,624,o),
(431,682,o),
(431,750,c),
(20,750,l),
(20,702,o),
(20,651,o),
(20,598,cs),
(20,532,o),
(20,436,o),
(20,359,c)
);
}
);
width = 945;
},
{
associatedMasterId = "F6D8640C-383C-48A8-B63C-DDE9F10207CE";
layerId = "CBFD0CC4-4060-4A56-82C2-2E00A286463B";
name = "26 Aug 21, 17:41";
shapes = (
{
closed = 1;
nodes = (
(20,35,l),
(97,-1,o),
(254,-26,o),
(390,-26,cs),
(699,-26,o),
(926,94,o),
(926,293,cs),
(926,325,o),
(926,401,o),
(926,482,cs),
(926,580,o),
(926,688,o),
(926,750,c),
(511,750,l),
(511,717,o),
(511,464,o),
(511,389,cs),
(511,319,o),
(434,288,o),
(287,288,cs),
(173,288,o),
(62,312,o),
(20,356,c)
);
},
{
closed = 1;
nodes = (
(435,359,l),
(435,416,o),
(435,488,o),
(435,550,cs),
(435,624,o),
(435,682,o),
(435,750,c),
(20,750,l),
(20,702,o),
(20,651,o),
(20,598,cs),
(20,532,o),
(20,436,o),
(20,359,c)
);
}
);
width = 945;
}
);
unicode = 306;
},
{
color = 6;
glyphname = Iogonek;
kernLeft = H;
kernRight = H;
lastChange = "2021-09-04 07:33:57 +0000";
layers = (
{
layerId = "96858A69-C8A6-410B-90BB-94EA0DA45935";
shapes = (
{
closed = 1;
nodes = (
(273,-105,o),
(319,-77,o),
(347,-34,c),
(347,-33,l),
(342,-34,o),
(338,-34,o),
(333,-34,cs),
(296,-34,o),
(266,-10,o),
(266,22,cs),
(266,50,o),
(285,83,o),
(349,115,c),
(312,147,o),
(268,202,o),
(268,359,cs),
(268,429,o),
(276,522,o),
(299,645,c),
(161,645,l),
(166,614,o),
(169,581,o),
(169,549,cs),
(169,382,o),
(111,209,o),
(129,115,c),
(486,98,o),
(133,54,o),
(133,-45,cs),
(133,-77,o),
(162,-105,o),
(218,-105,cs)
);
}
);
width = 442;
},
{
layerId = "F6D8640C-383C-48A8-B63C-DDE9F10207CE";
name = Regular;
shapes = (
{
closed = 1;
nodes = (
(297,-308,o),
(338,-300,o),
(390,-285,c),
(390,-89,l),
(364,-101,o),
(343,-105,o),
(317,-105,cs),
(278,-105,o),
(255,-94,o),
(255,-70,cs),
(255,-42,o),
(284,-5,o),
(435,0,c),
(435,121,o),
(435,242,o),
(435,363,cs),
(435,492,o),
(435,621,o),
(435,750,c),
(20,750,l),
(20,693,o),
(20,633,o),
(20,576,cs),
(20,383,o),
(20,193,o),
(20,0,c),
(0,-44,o),
(-8,-85,o),
(-8,-126,cs),
(-8,-247,o),
(74,-308,o),
(238,-308,cs)
);
}
);
visible = 1;
width = 455;
},
{
anchors = (
{
name = bottom;
pos = (230,0);
},
{
name = ogonek;
pos = (337,0);
},
{
name = top;
pos = (220,750);
},
{
name = topleft;
pos = (22,750);
}
);
associatedMasterId = "F6D8640C-383C-48A8-B63C-DDE9F10207CE";
layerId = "69B5B4A0-08E6-40F4-A4B3-A2F4B39D58F7";
name = "06 May 21, 23:35";
shapes = (
{
closed = 1;
nodes = (
(326,-318,o),
(368,-310,o),
(423,-295,c),
(423,-99,l),
(393,-111,o),
(368,-115,o),
(340,-115,cs),
(306,-115,o),
(289,-105,o),
(289,-83,cs),
(289,-53,o),
(329,-20,o),
(437,0,c),
(437,250,o),
(437,500,o),
(437,750,c),
(22,750,l),
(22,500,o),
(22,250,o),
(22,0,c),
(87,0,l),
(43,-48,o),
(20,-105,o),
(20,-154,cs),
(20,-255,o),
(101,-318,o),
(264,-318,cs)
);
}
);
width = 457;
},
{
anchors = (
{
name = bottom;
pos = (247,112);
},
{
name = top;
pos = (247,750);
},
{
name = topleft;
pos = (35,750);
}
);
associatedMasterId = "96858A69-C8A6-410B-90BB-94EA0DA45935";
layerId = "8437E93E-27A3-4357-A184-C7BB348A2ED7";
name = "15 May 21, 15:21";
shapes = (
{
closed = 1;
nodes = (
(273,-105,o),
(319,-77,o),
(347,-34,c),
(347,-33,l),
(342,-34,o),
(338,-34,o),
(333,-34,cs),
(296,-34,o),
(266,-10,o),
(266,22,cs),
(266,50,o),
(288,84,o),
(349,115,c),
(314,156,o),
(219,208,o),
(299,645,c),
(161,645,l),
(194,452,o),
(107,227,o),
(129,115,c),
(473,102,o),
(133,56,o),
(133,-45,cs),
(133,-77,o),
(162,-105,o),
(218,-105,cs)
);
}
);
width = 442;
},
{
anchors = (
{
name = bottom;
pos = (228,0);
},
{
name = top;
pos = (218,750);
},
{
name = topleft;
pos = (20,750);
}
);
associatedMasterId = "F6D8640C-383C-48A8-B63C-DDE9F10207CE";
layerId = "C82E59E8-4C69-4266-8599-DDE359B07CA8";
name = "18 May 21, 11:27";
shapes = (
{
closed = 1;
nodes = (
(291,-308,o),
(335,-300,o),
(390,-285,c),
(390,-89,l),
(360,-101,o),
(337,-105,o),
(307,-105,cs),
(265,-105,o),
(241,-92,o),
(241,-70,cs),
(241,-43,o),
(271,-5,o),
(435,0,c),
(435,121,o),
(435,242,o),
(435,363,cs),
(435,492,o),
(435,621,o),
(435,750,c),
(20,750,l),
(20,693,o),
(20,633,o),
(20,576,cs),
(20,383,o),
(20,193,o),
(20,0,c),
(-5,-37,o),
(-28,-85,o),
(-28,-140,cs),
(-28,-247,o),
(57,-308,o),
(228,-308,cs)
);
}
);
visible = 1;
width = 455;
}
);
metricRight = I;
unicode = 302;
},
{
color = 6;
glyphname = J;
kernLeft = J;
kernRight = J;
lastChange = "2021-09-04 07:33:57 +0000";
layers = (
{
anchors = (
{
name = bottom;
pos = (306,0);
},
{
name = top;
pos = (360,750);
}
);
layerId = "96858A69-C8A6-410B-90BB-94EA0DA45935";
shapes = (
{
closed = 1;
nodes = (
(54,98,l),
(101,106,o),
(173,111,o),
(274,111,cs),
(416,111,o),
(533,82,o),
(533,180,cs),
(533,260,o),
(395,355,o),
(395,508,cs),
(395,549,o),
(405,595,o),
(430,645,c),
(278,645,l),
(303,547,o),
(386,359,o),
(386,236,cs),
(386,166,o),
(359,116,o),
(280,116,cs),
(200,116,o),
(157,168,o),
(94,246,c)
);
}
);
width = 647;
},
{
anchors = (
{
name = bottom;
pos = (296,0);
},
{
name = top;
pos = (350,750);
}
);
associatedMasterId = "96858A69-C8A6-410B-90BB-94EA0DA45935";
layerId = "5A3708AD-AF68-4DFC-9578-C75AEC5F2CA2";
name = "15 May 21, 15:26";
shapes = (
{
closed = 1;
nodes = (
(44,98,l),
(91,106,o),
(163,113,o),
(264,111,cs),
(406,108,o),
(523,82,o),
(523,180,cs),
(523,281,o),
(300,408,o),
(420,645,c),
(268,645,l),
(293,547,o),
(376,359,o),
(376,236,cs),
(376,166,o),
(349,117,o),
(270,117,cs),
(189,117,o),
(147,168,o),
(84,246,c)
);
}
);
width = 617;
},
{
anchors = (
{
name = bottom;
pos = (390,0);
},
{
name = top;
pos = (390,750);
}
);
associatedMasterId = "F6D8640C-383C-48A8-B63C-DDE9F10207CE";
layerId = "42D78C31-8007-4F6E-8B71-33DD5EE0904F";
name = "15 May 21, 15:26";
shapes = (
{
closed = 1;
nodes = (
(16,34,l),
(81,-9,o),
(172,-34,o),
(263,-34,cs),
(434,-34,o),
(605,56,o),
(605,291,cs),
(605,321,o),
(605,634,o),
(605,750,c),
(180,750,l),
(180,717,o),
(180,382,o),
(180,352,cs),
(180,309,o),
(147,290,o),
(106,290,cs),
(77,290,o),
(43,300,o),
(16,317,c)
);
}
);
width = 624;
},
{
anchors = (
{
name = bottom;
pos = (388,0);
},
{
name = top;
pos = (388,750);
}
);
background = {
shapes = (
{
pos = (-408,0);
ref = U;
}
);
};
layerId = "F6D8640C-383C-48A8-B63C-DDE9F10207CE";
name = Regular;
shapes = (
{
closed = 1;
nodes = (
(14,34,l),
(79,-5,o),
(160,-19,o),
(251,-19,cs),
(422,-19,o),
(593,60,o),
(593,291,cs),
(593,308,o),
(593,411,o),
(593,519,cs),
(593,607,o),
(593,698,o),
(593,750,c),
(178,750,l),
(178,717,o),
(178,412,o),
(178,382,cs),
(178,339,o),
(145,320,o),
(104,320,cs),
(75,320,o),
(41,330,o),
(14,347,c)
);
}
);
visible = 1;
width = 613;
},
{
anchors = (
{
name = bottom;
pos = (390,0);
},
{
name = top;
pos = (390,750);
}
);
associatedMasterId = "F6D8640C-383C-48A8-B63C-DDE9F10207CE";
layerId = "D0DB3866-AE5B-4A9A-9617-10588C6959BB";
name = "24 Jun 21, 12:08";
shapes = (
{
closed = 1;
nodes = (
(16,34,l),
(81,-9,o),
(172,-34,o),
(263,-34,cs),
(434,-34,o),
(605,56,o),
(605,291,cs),
(605,308,o),
(605,411,o),
(605,519,cs),
(605,607,o),
(605,698,o),
(605,750,c),
(180,750,l),
(180,717,o),
(180,382,o),
(180,352,cs),
(180,309,o),
(147,290,o),
(106,290,cs),
(77,290,o),
(43,300,o),
(16,317,c)
);
}
);
width = 625;
},
{
anchors = (
{
name = bottom;
pos = (388,0);
},
{
name = top;
pos = (388,750);
}
);
associatedMasterId = "F6D8640C-383C-48A8-B63C-DDE9F10207CE";
layerId = "5FD0962D-A2E3-4352-9E48-7F23C441ED28";
name = "18 Aug 21, 14:47";
shapes = (
{
closed = 1;
nodes = (
(14,34,l),
(79,-9,o),
(170,-24,o),
(261,-24,cs),
(432,-24,o),
(603,56,o),
(603,291,cs),
(603,308,o),
(603,411,o),
(603,519,cs),
(603,607,o),
(603,698,o),
(603,750,c),
(178,750,l),
(178,717,o),
(178,382,o),
(178,352,cs),
(178,309,o),
(145,290,o),
(104,290,cs),
(75,290,o),
(41,300,o),
(14,317,c)
);
}
);
width = 623;
},
{
anchors = (
{
name = bottom;
pos = (388,0);
},
{
name = top;
pos = (388,750);
}
);
associatedMasterId = "F6D8640C-383C-48A8-B63C-DDE9F10207CE";
layerId = "E9A6CFE6-A06C-4DCC-B29C-59925FE59C2C";
name = "20 Aug 21, 16:12";
shapes = (
{
closed = 1;
nodes = (
(14,34,l),
(79,-9,o),
(170,-24,o),
(261,-24,cs),
(432,-24,o),
(603,56,o),
(603,291,cs),
(603,308,o),
(603,411,o),
(603,519,cs),
(603,607,o),
(603,698,o),
(603,750,c),
(178,750,l),
(178,717,o),
(178,392,o),
(178,362,cs),
(178,319,o),
(145,300,o),
(104,300,cs),
(75,300,o),
(41,310,o),
(14,327,c)
);
}
);
width = 623;
},
{
anchors = (
{
name = bottom;
pos = (388,0);
},
{
name = top;
pos = (388,750);
}
);
associatedMasterId = "F6D8640C-383C-48A8-B63C-DDE9F10207CE";
background = {
shapes = (
{
pos = (-408,0);
ref = U;
}
);
};
layerId = "941DDF4D-D531-4589-829B-9E71E5B8AFBD";
name = "23 Aug 21, 18:57";
shapes = (
{
closed = 1;
nodes = (
(14,34,l),
(79,-9,o),
(160,-24,o),
(251,-24,cs),
(422,-24,o),
(593,56,o),
(593,291,cs),
(593,308,o),
(593,411,o),
(593,519,cs),
(593,607,o),
(593,698,o),
(593,750,c),
(178,750,l),
(178,717,o),
(178,392,o),
(178,362,cs),
(178,319,o),
(145,300,o),
(104,300,cs),
(75,300,o),
(41,310,o),
(14,327,c)
);
}
);
width = 613;
}
);
unicode = 74;
},
{
color = 6;
glyphname = K;
kernLeft = H;
kernRight = K;
lastChange = "2021-09-04 09:39:29 +0000";
layers = (
{
anchors = (
{
name = bottom;
pos = (496,0);
},
{
name = top;
pos = (496,750);
}
);
background = {
shapes = (
{
closed = 1;
nodes = (
(747,361,l),
(732,392,o),
(733,429,o),
(748,460,c),
(840,645,l),
(653,645,l),
(545,384,l),
(645,125,l),
(856,125,l)
);
},
{
closed = 1;
nodes = (
(306,645,l),
(121,645,l),
(121,125,l),
(306,125,l)
);
}
);
};
layerId = "96858A69-C8A6-410B-90BB-94EA0DA45935";
shapes = (
{
closed = 1;
nodes = (
(854,115,l),
(854,188,o),
(677,315,o),
(677,403,cs),
(677,457,o),
(727,523,o),
(823,645,c),
(686,645,l),
(730,548,o),
(744,476,o),
(578,384,c),
(682,115,l)
);
},
{
closed = 1;
nodes = (
(376,115,l),
(327,191,o),
(316,268,o),
(316,304,cs),
(316,332,o),
(327,381,o),
(374,381,c),
(324,381,o),
(315,412,o),
(315,447,cs),
(315,496,o),
(376,596,o),
(376,645,c),
(246,645,l),
(253,624,o),
(256,601,o),
(256,576,cs),
(256,430,o),
(151,232,o),
(151,115,c)
);
}
);
width = 1033;
},
{
anchors = (
{
name = bottom;
pos = (515,0);
},
{
name = top;
pos = (525,750);
}
);
layerId = "F6D8640C-383C-48A8-B63C-DDE9F10207CE";
shapes = (
{
closed = 1;
nodes = (
(1050,0,l),
(988,133,o),
(865,399,o),
(865,400,cs),
(865,400,o),
(982,633,o),
(1040,750,c),
(590,750,l),
(538,625,o),
(487,500,o),
(435,375,c),
(580,0,l)
);
},
{
closed = 1;
nodes = (
(435,0,l),
(435,123,o),
(435,245,o),
(435,368,cs),
(435,370,o),
(435,373,o),
(435,375,c),
(435,377,o),
(435,380,o),
(435,382,cs),
(435,505,o),
(435,627,o),
(435,750,c),
(20,750,l),
(20,695,o),
(20,641,o),
(20,586,cs),
(20,391,o),
(20,195,o),
(20,0,c)
);
}
);
width = 1049;
},
{
anchors = (
{
name = bottom;
pos = (496,0);
},
{
name = top;
pos = (496,750);
}
);
associatedMasterId = "96858A69-C8A6-410B-90BB-94EA0DA45935";
background = {
shapes = (
{
closed = 1;
nodes = (
(747,361,l),
(732,392,o),
(733,429,o),
(748,460,c),
(840,645,l),
(653,645,l),
(545,384,l),
(645,125,l),
(856,125,l)
);
},
{
closed = 1;
nodes = (
(306,645,l),
(121,645,l),
(121,125,l),
(306,125,l)
);
}
);
};
layerId = "BD028257-6087-4883-8E92-A74165F6FB6F";
name = "13 May 21, 14:37";
shapes = (
{
closed = 1;
nodes = (
(854,115,l),
(854,151,o),
(802,204,o),
(766,252,cs),
(692,351,o),
(635,387,o),
(718,501,cs),
(823,645,l),
(686,645,l),
(725,554,o),
(733,481,o),
(578,384,c),
(682,115,l)
);
},
{
closed = 1;
nodes = (
(376,115,l),
(326,191,o),
(316,274,o),
(316,304,cs),
(316,312,o),
(318,381,o),
(374,381,c),
(324,381,o),
(315,412,o),
(315,447,cs),
(315,496,o),
(376,596,o),
(376,645,c),
(246,645,l),
(295,500,o),
(151,252,o),
(151,115,c)
);
}
);
visible = 1;
width = 1033;
},
{
anchors = (
{
name = bottom;
pos = (515,0);
},
{
name = top;
pos = (525,750);
}
);
associatedMasterId = "F6D8640C-383C-48A8-B63C-DDE9F10207CE";
layerId = "1CE6595B-6439-421D-9FC6-D8F7E42EC6C0";
name = "13 May 21, 14:37";
shapes = (
{
closed = 1;
nodes = (
(1050,0,l),
(988,133,o),
(927,265,o),
(865,398,cs),
(865,399,o),
(865,399,o),
(865,400,cs),
(1040,750,l),
(590,750,l),
(538,625,o),
(487,500,o),
(435,375,c),
(580,0,l)
);
},
{
closed = 1;
nodes = (
(435,0,l),
(435,123,o),
(435,245,o),
(435,368,cs),
(435,370,o),
(435,373,o),
(435,375,c),
(435,377,o),
(435,380,o),
(435,382,cs),
(435,505,o),
(435,627,o),
(435,750,c),
(20,750,l),
(20,500,o),
(20,250,o),
(20,0,c)
);
}
);
width = 1049;
},
{
anchors = (
{
name = bottom;
pos = (496,0);
},
{
name = top;
pos = (496,750);
}
);
associatedMasterId = "96858A69-C8A6-410B-90BB-94EA0DA45935";
background = {
shapes = (
{
closed = 1;
nodes = (
(747,361,l),
(732,392,o),
(733,429,o),
(748,460,c),
(840,645,l),
(653,645,l),
(545,384,l),
(645,125,l),
(856,125,l)
);
},
{
closed = 1;
nodes = (
(306,645,l),
(121,645,l),
(121,125,l),
(306,125,l)
);
}
);
};
layerId = "41AFD346-7B9D-47A2-AFDE-886D396D3428";
name = "15 May 21, 15:28";
shapes = (
{
closed = 1;
nodes = (
(854,115,l),
(854,188,o),
(677,315,o),
(677,403,cs),
(677,456,o),
(728,523,o),
(823,645,c),
(686,645,l),
(725,554,o),
(733,481,o),
(578,384,c),
(682,115,l)
);
},
{
closed = 1;
nodes = (
(376,115,l),
(326,191,o),
(316,274,o),
(316,304,cs),
(316,312,o),
(318,381,o),
(374,381,c),
(324,381,o),
(315,412,o),
(315,447,cs),
(315,496,o),
(376,596,o),
(376,645,c),
(246,645,l),
(295,500,o),
(151,252,o),
(151,115,c)
);
}
);
width = 1033;
},
{
anchors = (
{
name = bottom;
pos = (515,0);
},
{
name = top;
pos = (525,750);
}
);
associatedMasterId = "F6D8640C-383C-48A8-B63C-DDE9F10207CE";
layerId = "A27628C5-A74B-40F5-BCA1-1C68FFD9E104";
name = "15 May 21, 15:28";
shapes = (
{
closed = 1;
nodes = (
(1050,0,l),
(988,133,o),
(865,399,o),
(865,400,cs),
(865,400,o),
(982,633,o),
(1040,750,c),
(590,750,l),
(538,625,o),
(487,500,o),
(435,375,c),
(580,0,l)
);
},
{
closed = 1;
nodes = (
(435,0,l),
(435,123,o),
(435,245,o),
(435,368,cs),
(435,370,o),
(435,373,o),
(435,375,c),
(435,377,o),
(435,380,o),
(435,382,cs),
(435,505,o),
(435,627,o),
(435,750,c),
(20,750,l),
(20,500,o),
(20,250,o),
(20,0,c)
);
}
);
width = 1049;
}
);
unicode = 75;
},
{
color = 6;
glyphname = Khook;
kernLeft = H;
kernRight = Khook;
lastChange = "2021-09-04 07:33:57 +0000";
layers = (
{
anchors = (
{
name = bottom;
pos = (496,0);
},
{
name = top;
pos = (496,750);
}
);
layerId = "96858A69-C8A6-410B-90BB-94EA0DA45935";
shapes = (
{
closed = 1;
nodes = (
(854,115,l),
(854,188,o),
(677,325,o),
(677,438,cs),
(677,491,o),
(690,540,o),
(714,566,cs),
(750,604,o),
(815,571,o),
(851,571,cs),
(854,571,o),
(857,571,o),
(860,571,c),
(860,645,l),
(858,645,o),
(856,645,o),
(854,645,cs),
(811,645,o),
(737,618,o),
(682,539,cs),
(652,495,o),
(616,447,o),
(578,384,c),
(682,115,l)
);
},
{
closed = 1;
nodes = (
(376,115,l),
(327,191,o),
(316,268,o),
(316,304,cs),
(316,332,o),
(327,381,o),
(374,381,c),
(324,381,o),
(315,412,o),
(315,447,cs),
(315,496,o),
(376,596,o),
(376,645,c),
(246,645,l),
(253,624,o),
(256,601,o),
(256,576,cs),
(256,430,o),
(151,232,o),
(151,115,c)
);
}
);
width = 1033;
},
{
anchors = (
{
name = bottom;
pos = (515,0);
},
{
name = top;
pos = (525,750);
}
);
layerId = "F6D8640C-383C-48A8-B63C-DDE9F10207CE";
name = Regular;
shapes = (
{
closed = 1;
nodes = (
(1050,0,l),
(988,133,o),
(865,399,o),
(865,400,c),
(879,428,o),
(893,456,o),
(907,484,cs),
(920,510,o),
(942,523,o),
(981,523,cs),
(1002,523,o),
(1035,515,o),
(1041,507,c),
(1042,744,l),
(1007,763,o),
(925,777,o),
(855,777,cs),
(712,777,o),
(587,742,o),
(544,639,cs),
(507,551,o),
(471,463,o),
(435,375,c),
(580,0,l)
);
},
{
closed = 1;
nodes = (
(435,0,l),
(435,123,o),
(435,245,o),
(435,368,cs),
(435,370,o),
(435,373,o),
(435,375,c),
(435,377,o),
(435,380,o),
(435,382,cs),
(435,505,o),
(435,627,o),
(435,750,c),
(20,750,l),
(20,695,o),
(20,641,o),
(20,586,cs),
(20,391,o),
(20,195,o),
(20,0,c)
);
}
);
visible = 1;
width = 1049;
},
{
anchors = (
{
name = bottom;
pos = (515,0);
},
{
name = top;
pos = (525,750);
}
);
associatedMasterId = "F6D8640C-383C-48A8-B63C-DDE9F10207CE";
layerId = "718B17DC-8464-4E5A-96EF-7BA6DB01C5B6";
name = "02 Sep 21, 18:23";
shapes = (
{
closed = 1;
nodes = (
(1050,0,l),
(988,133,o),
(865,399,o),
(865,400,cs),
(865,400,o),
(982,633,o),
(1040,750,c),
(590,750,l),
(538,625,o),
(487,500,o),
(435,375,c),
(580,0,l)
);
},
{
closed = 1;
nodes = (
(435,0,l),
(435,123,o),
(435,245,o),
(435,368,cs),
(435,370,o),
(435,373,o),
(435,375,c),
(435,377,o),
(435,380,o),
(435,382,cs),
(435,505,o),
(435,627,o),
(435,750,c),
(20,750,l),
(20,695,o),
(20,641,o),
(20,586,cs),
(20,391,o),
(20,195,o),
(20,0,c)
);
}
);
visible = 1;
width = 1049;
}
);
unicode = 408;
},
{
color = 6;
glyphname = L;
kernLeft = H;
kernRight = L;
lastChange = "2021-09-04 09:39:52 +0000";
layers = (
{
anchors = (
{
name = bottom;
pos = (420,0);
},
{
name = center;
pos = (420,375);
},
{
name = top;
pos = (182,750);
},
{
name = topright;
pos = (477,620);
}
);
layerId = "F6D8640C-383C-48A8-B63C-DDE9F10207CE";
shapes = (
{
closed = 1;
nodes = (
(435,447,o),
(435,599,o),
(435,750,c),
(20,750,l),
(20,666,o),
(20,581,o),
(20,497,cs),
(20,331,o),
(20,166,o),
(20,0,c),
(827,0,l),
(827,294,l),
(437,294,ls),
(436,294,o),
(435,295,o),
(435,296,cs)
);
}
);
width = 840;
},
{
anchors = (
{
name = bottom;
pos = (408,0);
},
{
name = center;
pos = (394,375);
},
{
name = top;
pos = (259,750);
},
{
name = topright;
pos = (530,620);
}
);
layerId = "96858A69-C8A6-410B-90BB-94EA0DA45935";
shapes = (
{
closed = 1;
nodes = (
(299,346,o),
(351,535,o),
(351,645,c),
(178,645,l),
(221,590,o),
(237,533,o),
(237,476,cs),
(237,324,o),
(123,180,o),
(120,115,c),
(693,115,l),
(693,120,l),
(448,120,ls),
(354,120,o),
(299,150,o),
(299,236,cs)
);
}
);
width = 837;
},
{
anchors = (
{
name = bottom;
pos = (408,0);
},
{
name = center;
pos = (394,375);
},
{
name = top;
pos = (259,750);
},
{
name = topright;
pos = (530,620);
}
);
associatedMasterId = "96858A69-C8A6-410B-90BB-94EA0DA45935";
layerId = "52AED04C-FE0C-4AE5-BB0F-6BF115060A90";
name = "15 May 21, 15:31";
shapes = (
{
closed = 1;
nodes = (
(299,346,o),
(351,535,o),
(351,645,c),
(178,645,l),
(221,590,o),
(237,533,o),
(237,476,cs),
(237,324,o),
(123,180,o),
(120,115,c),
(693,115,l),
(693,120,l),
(448,120,ls),
(354,120,o),
(299,150,o),
(299,236,cs)
);
}
);
width = 837;
},
{
anchors = (
{
name = bottom;
pos = (420,0);
},
{
name = center;
pos = (420,375);
},
{
name = top;
pos = (182,750);
},
{
name = topright;
pos = (477,620);
}
);
associatedMasterId = "F6D8640C-383C-48A8-B63C-DDE9F10207CE";
layerId = "5CA4CD3D-1089-42F4-9649-22F6C0C9BCC3";
name = "15 May 21, 15:31";
shapes = (
{
closed = 1;
nodes = (
(435,447,o),
(435,599,o),
(435,750,c),
(20,750,l),
(20,500,o),
(20,250,o),
(20,0,c),
(827,0,l),
(827,294,l),
(437,294,ls),
(436,294,o),
(435,295,o),
(435,296,cs)
);
}
);
width = 837;
}
);
unicode = 76;
},
{
color = 3;
glyphname = Lcaron;
kernLeft = H;
kernRight = Lcaron;
lastChange = "2021-09-04 07:33:57 +0000";
layers = (
{
layerId = "F6D8640C-383C-48A8-B63C-DDE9F10207CE";
shapes = (
{
ref = L;
},
{
pos = (480,0);
ref = caroncomb.alt;
}
);
width = 840;
},
{
layerId = "96858A69-C8A6-410B-90BB-94EA0DA45935";
shapes = (
{
ref = L;
},
{
pos = (530,0);
ref = caroncomb.alt;
}
);
width = 837;
},
{
associatedMasterId = "F6D8640C-383C-48A8-B63C-DDE9F10207CE";
layerId = "1B01C4AB-98C6-41B6-8410-5B3FFCBF61D4";
name = "12 May 21, 16:20";
shapes = (
{
closed = 1;
nodes = (
(792,750,l),
(548,750,l),
(521,485,l),
(714,485,l)
);
},
{
ref = L;
}
);
width = 839;
},
{
associatedMasterId = "96858A69-C8A6-410B-90BB-94EA0DA45935";
layerId = "A704C93F-4D8B-4B13-BED4-10B13C97EDD4";
name = "12 May 21, 16:20";
shapes = (
{
closed = 1;
nodes = (
(650,645,l),
(584,645,l),
(570,544,l),
(627,544,l)
);
},
{
ref = L;
}
);
width = 837;
}
);
unicode = 317;
},
{
color = 3;
glyphname = Ldot;
kernLeft = H;
kernRight = L;
lastChange = "2021-09-04 07:33:57 +0000";
layers = (
{
layerId = "F6D8640C-383C-48A8-B63C-DDE9F10207CE";
shapes = (
{
closed = 1;
nodes = (
(788,354,l),
(788,578,l),
(517,578,l),
(517,354,l)
);
},
{
ref = L;
}
);
width = 839;
},
{
layerId = "96858A69-C8A6-410B-90BB-94EA0DA45935";
shapes = (
{
closed = 1;
nodes = (
(688,407,l),
(688,458,l),
(599,458,l),
(599,407,l)
);
},
{
ref = L;
}
);
width = 837;
}
);
metricLeft = L;
unicode = 319;
},
{
color = 3;
glyphname = Lslash;
kernLeft = Lslash;
kernRight = L;
lastChange = "2021-09-04 11:15:07 +0000";
layers = (
{
layerId = "96858A69-C8A6-410B-90BB-94EA0DA45935";
shapes = (
{
closed = 1;
nodes = (
(577,482,l),
(577,489,l),
(174,332,l),
(174,325,l)
);
},
{
pos = (76,0);
ref = L;
}
);
width = 897;
},
{
layerId = "F6D8640C-383C-48A8-B63C-DDE9F10207CE";
shapes = (
{
closed = 1;
nodes = (
(645,478,l),
(645,575,l),
(8,313,l),
(8,216,l)
);
},
{
pos = (56,0);
ref = L;
}
);
width = 895;
},
{
associatedMasterId = "F6D8640C-383C-48A8-B63C-DDE9F10207CE";
layerId = "B09592DC-CCAA-4F89-A73F-5A05EFEE7E65";
name = "28 Apr 21, 10:45";
shapes = (
{
closed = 1;
nodes = (
(653,443,l),
(653,644,l),
(16,382,l),
(16,181,l)
);
},
{
pos = (64,0);
ref = L;
}
);
width = 903;
},
{
associatedMasterId = "96858A69-C8A6-410B-90BB-94EA0DA45935";
layerId = "B1700B47-FDB4-4289-BC3D-A17064E8C404";
name = "17 May 21, 15:06";
shapes = (
{
closed = 1;
nodes = (
(577,480,l),
(577,493,l),
(219,353,l),
(219,340,l)
);
},
{
pos = (76,0);
ref = L;
}
);
width = 897;
}
);
unicode = 321;
},
{
color = 6;
glyphname = M;
kernLeft = H;
kernRight = H;
lastChange = "2021-09-04 07:33:57 +0000";
layers = (
{
anchors = (
{
name = bottom;
pos = (629,0);
},
{
name = top;
pos = (629,750);
}
);
associatedMasterId = "F6D8640C-383C-48A8-B63C-DDE9F10207CE";
layerId = "4AECC505-E673-4458-9FAA-E4440439CE73";
name = "Mar 5 20, 10:29";
shapes = (
{
closed = 1;
nodes = (
(725,750,l),
(662,449,ls),
(662,447,o),
(660,447,o),
(660,449,cs),
(641,549,o),
(622,650,o),
(603,750,c),
(20,750,l),
(20,500,o),
(20,250,o),
(20,0,c),
(371,0,l),
(371,150,o),
(371,300,o),
(371,450,cs),
(371,451,o),
(373,451,o),
(373,450,cs),
(406,300,o),
(438,150,o),
(471,0,c),
(726,0,l),
(824,453,ls),
(824,454,o),
(826,454,o),
(826,453,cs),
(826,302,o),
(826,151,o),
(826,0,c),
(1238,0,l),
(1238,250,o),
(1238,500,o),
(1238,750,c)
);
}
);
width = 1258;
},
{
anchors = (
{
name = bottom;
pos = (649,0);
},
{
name = top;
pos = (649,750);
}
);
associatedMasterId = "96858A69-C8A6-410B-90BB-94EA0DA45935";
background = {
shapes = (
{
closed = 1;
nodes = (
(494,635,l),
(122,635,l),
(122,115,l),
(243,115,l),
(243,460,l),
(243,519,o),
(287,568,o),
(345,575,c),
(404,581,o),
(457,542,o),
(470,485,c),
(550,115,l),
(620,115,l),
(666,330,l),
(660,329,o),
(653,328,o),
(646,328,c),
(592,329,o),
(545,368,o),
(535,422,c)
);
},
{
closed = 1;
nodes = (
(883,571,o),
(928,522,o),
(928,463,c),
(928,115,l),
(1110,115,l),
(1110,635,l),
(805,635,l),
(793,577,l),
(803,578,o),
(814,579,o),
(825,578,c)
);
}
);
};
layerId = "7520C632-9790-41C8-BE11-08C42DA5A28D";
name = "15 May 21, 15:33";
shapes = (
{
closed = 1;
nodes = (
(811,645,l),
(708,337,ls),
(693,292,o),
(618,302,o),
(581,355,cs),
(517,446,o),
(508,561,o),
(536,645,c),
(228,645,l),
(258,488,o),
(147,255,o),
(153,115,c),
(347,115,l),
(301,197,o),
(268,306,o),
(268,396,cs),
(268,639,o),
(536,630,o),
(536,370,cs),
(536,255,o),
(517,184,o),
(497,115,c),
(634,115,l),
(775,538,ls),
(795,599,o),
(968,582,o),
(968,288,cs),
(968,228,o),
(960,167,o),
(942,115,c),
(1124,115,l),
(1124,292,o),
(972,448,o),
(982,645,c)
);
}
);
width = 1246;
},
{
anchors = (
{
name = bottom;
pos = (638,0);
},
{
name = top;
pos = (638,750);
}
);
associatedMasterId = "F6D8640C-383C-48A8-B63C-DDE9F10207CE";
layerId = "224AC498-03C0-4A7F-A34E-9AE1655B539A";
name = "15 May 21, 15:33";
shapes = (
{
closed = 1;
nodes = (
(726,750,l),
(657,429,ls),
(657,427,o),
(655,427,o),
(655,429,c),
(632,536,o),
(609,643,o),
(586,750,c),
(20,750,l),
(20,500,o),
(20,250,o),
(20,0,c),
(400,0,l),
(400,136,o),
(400,273,o),
(400,409,c),
(400,410,o),
(402,410,o),
(402,409,c),
(435,273,o),
(467,136,o),
(500,0,c),
(755,0,l),
(853,412,ls),
(853,413,o),
(855,413,o),
(855,412,c),
(855,275,o),
(855,137,o),
(855,0,c),
(1255,0,l),
(1255,250,o),
(1255,500,o),
(1255,750,c)
);
}
);
width = 1275;
},
{
anchors = (
{
name = bottom;
pos = (638,0);
},
{
name = top;
pos = (638,750);
}
);
associatedMasterId = "F6D8640C-383C-48A8-B63C-DDE9F10207CE";
layerId = "2B929DBD-1671-4102-BEEB-F124408B06BE";
name = "15 May 21, 15:37";
shapes = (
{
closed = 1;
nodes = (
(726,750,l),
(657,429,ls),
(657,429,o),
(657,428,o),
(656,428,cs),
(655,428,o),
(655,429,o),
(655,429,c),
(632,536,o),
(609,643,o),
(586,750,c),
(20,750,l),
(20,701,o),
(20,652,o),
(20,603,cs),
(20,402,o),
(20,201,o),
(20,0,c),
(400,0,l),
(400,136,o),
(400,273,o),
(400,409,c),
(400,410,o),
(402,410,o),
(402,409,c),
(435,273,o),
(467,136,o),
(500,0,c),
(755,0,l),
(853,412,ls),
(853,413,o),
(855,413,o),
(855,412,c),
(855,275,o),
(855,137,o),
(855,0,c),
(1255,0,l),
(1255,250,o),
(1255,500,o),
(1255,750,c)
);
}
);
width = 1275;
},
{
anchors = (
{
name = bottom;
pos = (649,0);
},
{
name = top;
pos = (649,750);
}
);
associatedMasterId = "96858A69-C8A6-410B-90BB-94EA0DA45935";
background = {
shapes = (
{
closed = 1;
nodes = (
(494,635,l),
(122,635,l),
(122,115,l),
(243,115,l),
(243,460,l),
(243,519,o),
(287,568,o),
(345,575,c),
(404,581,o),
(457,542,o),
(470,485,c),
(550,115,l),
(620,115,l),
(666,330,l),
(660,329,o),
(653,328,o),
(646,328,c),
(592,329,o),
(545,368,o),
(535,422,c)
);
},
{
closed = 1;
nodes = (
(883,571,o),
(928,522,o),
(928,463,c),
(928,115,l),
(1110,115,l),
(1110,635,l),
(805,635,l),
(793,577,l),
(803,578,o),
(814,579,o),
(825,578,c)
);
}
);
};
layerId = "318A1EC1-866F-47F4-BABE-65A917D14B6F";
name = "15 May 21, 15:37";
shapes = (
{
closed = 1;
nodes = (
(811,645,l),
(708,337,ls),
(702,318,o),
(684,309,o),
(663,309,cs),
(636,309,o),
(602,325,o),
(581,355,cs),
(517,446,o),
(508,561,o),
(536,645,c),
(228,645,l),
(232,626,o),
(233,606,o),
(233,586,cs),
(233,434,o),
(148,238,o),
(153,115,c),
(347,115,l),
(301,197,o),
(268,306,o),
(268,396,cs),
(268,639,o),
(536,630,o),
(536,370,cs),
(536,255,o),
(517,184,o),
(497,115,c),
(634,115,l),
(776,540,ls),
(796,601,o),
(968,582,o),
(968,288,cs),
(968,228,o),
(960,167,o),
(942,115,c),
(1124,115,l),
(1124,292,o),
(972,448,o),
(982,645,c)
);
}
);
width = 1246;
},
{
anchors = (
{
name = bottom;
pos = (649,0);
},
{
name = top;
pos = (649,750);
}
);
background = {
shapes = (
{
closed = 1;
nodes = (
(494,635,l),
(122,635,l),
(122,115,l),
(243,115,l),
(243,460,l),
(243,519,o),
(287,568,o),
(345,575,c),
(404,581,o),
(457,542,o),
(470,485,c),
(550,115,l),
(620,115,l),
(666,330,l),
(660,329,o),
(653,328,o),
(646,328,c),
(592,329,o),
(545,368,o),
(535,422,c)
);
},
{
closed = 1;
nodes = (
(883,571,o),
(928,522,o),
(928,463,c),
(928,115,l),
(1110,115,l),
(1110,635,l),
(805,635,l),
(793,577,l),
(803,578,o),
(814,579,o),
(825,578,c)
);
}
);
};
layerId = "96858A69-C8A6-410B-90BB-94EA0DA45935";
name = "2050";
shapes = (
{
closed = 1;
nodes = (
(811,645,l),
(708,337,ls),
(693,292,o),
(618,302,o),
(581,355,cs),
(517,446,o),
(508,561,o),
(536,645,c),
(228,645,l),
(232,626,o),
(233,606,o),
(233,586,cs),
(233,434,o),
(148,238,o),
(153,115,c),
(347,115,l),
(301,197,o),
(268,306,o),
(268,396,cs),
(268,639,o),
(536,630,o),
(536,370,cs),
(536,255,o),
(517,184,o),
(497,115,c),
(634,115,l),
(776,540,ls),
(796,601,o),
(968,582,o),
(968,288,cs),
(968,228,o),
(960,167,o),
(942,115,c),
(1124,115,l),
(1124,292,o),
(972,448,o),
(982,645,c)
);
}
);
width = 1246;
},
{
anchors = (
{
name = bottom;
pos = (638,0);
},
{
name = top;
pos = (638,750);
}
);
associatedMasterId = "F6D8640C-383C-48A8-B63C-DDE9F10207CE";
layerId = "C89FED78-6DD6-401A-80A2-6B9E7DAEB593";
name = "20 Aug 21, 12:07";
shapes = (
{
closed = 1;
nodes = (
(726,750,l),
(657,429,ls),
(657,427,o),
(655,427,o),
(655,429,c),
(632,536,o),
(609,643,o),
(586,750,c),
(20,750,l),
(20,701,o),
(20,652,o),
(20,603,cs),
(20,402,o),
(20,201,o),
(20,0,c),
(400,0,l),
(400,136,o),
(400,273,o),
(400,409,c),
(400,410,o),
(402,410,o),
(402,409,c),
(435,273,o),
(467,136,o),
(500,0,c),
(755,0,l),
(853,412,ls),
(853,413,o),
(855,413,o),
(855,412,c),
(855,275,o),
(855,137,o),
(855,0,c),
(1255,0,l),
(1255,250,o),
(1255,500,o),
(1255,750,c)
);
}
);
width = 1275;
},
{
anchors = (
{
name = bottom;
pos = (596,0);
},
{
name = top;
pos = (596,750);
}
);
associatedMasterId = "F6D8640C-383C-48A8-B63C-DDE9F10207CE";
layerId = "D22B4B86-027D-477B-9525-BED4F40C9C18";
name = "20 Aug 21, 14:17";
shapes = (
{
closed = 1;
nodes = (
(688,750,l),
(622,369,ls),
(622,367,o),
(620,367,o),
(620,369,c),
(596,496,o),
(572,623,o),
(548,750,c),
(20,750,l),
(20,701,o),
(20,652,o),
(20,603,cs),
(20,402,o),
(20,201,o),
(20,0,c),
(358,0,l),
(358,136,o),
(358,283,o),
(358,419,c),
(358,420,o),
(360,420,o),
(360,419,c),
(393,279,o),
(425,140,o),
(458,0,c),
(713,0,l),
(811,422,ls),
(811,423,o),
(813,423,o),
(813,422,c),
(813,285,o),
(813,137,o),
(813,0,c),
(1193,0,l),
(1193,250,o),
(1193,500,o),
(1193,750,c)
);
}
);
width = 1213;
},
{
anchors = (
{
name = bottom;
pos = (606,0);
},
{
name = top;
pos = (606,750);
}
);
associatedMasterId = "F6D8640C-383C-48A8-B63C-DDE9F10207CE";
layerId = "4D192862-ED03-490A-A9BB-B6C4357B0B91";
name = "20 Aug 21, 16:24";
shapes = (
{
closed = 1;
nodes = (
(688,750,l),
(622,379,ls),
(622,377,o),
(620,377,o),
(620,379,c),
(596,503,o),
(572,626,o),
(548,750,c),
(20,750,l),
(20,701,o),
(20,652,o),
(20,603,cs),
(20,402,o),
(20,201,o),
(20,0,c),
(368,0,l),
(368,138,o),
(368,275,o),
(368,413,c),
(368,414,o),
(370,414,o),
(370,413,c),
(403,275,o),
(435,138,o),
(468,0,c),
(723,0,l),
(821,416,ls),
(821,417,o),
(823,417,o),
(823,416,c),
(823,277,o),
(823,139,o),
(823,0,c),
(1193,0,l),
(1193,250,o),
(1193,500,o),
(1193,750,c)
);
}
);
width = 1213;
},
{
anchors = (
{
name = bottom;
pos = (623,0);
},
{
name = top;
pos = (623,750);
}
);
associatedMasterId = "F6D8640C-383C-48A8-B63C-DDE9F10207CE";
layerId = "903039BA-5AC9-431A-9581-C1C8A1B06CBB";
name = "20 Aug 21, 16:37";
shapes = (
{
closed = 1;
nodes = (
(729,750,l),
(659,379,ls),
(659,377,o),
(657,377,o),
(657,379,c),
(632,503,o),
(606,626,o),
(581,750,c),
(20,750,l),
(20,701,o),
(20,652,o),
(20,603,cs),
(20,402,o),
(20,201,o),
(20,0,c),
(385,0,l),
(385,138,o),
(385,275,o),
(385,413,c),
(385,414,o),
(387,414,o),
(387,413,c),
(420,275,o),
(452,138,o),
(485,0,c),
(740,0,l),
(838,416,ls),
(838,417,o),
(840,417,o),
(840,416,c),
(840,277,o),
(840,139,o),
(840,0,c),
(1225,0,l),
(1225,250,o),
(1225,500,o),
(1225,750,c)
);
}
);
width = 1245;
},
{
anchors = (
{
name = bottom;
pos = (623,0);
},
{
name = top;
pos = (623,750);
}
);
layerId = "F6D8640C-383C-48A8-B63C-DDE9F10207CE";
name = Regular;
shapes = (
{
closed = 1;
nodes = (
(721,750,l),
(641,379,ls),
(641,377,o),
(639,377,o),
(639,379,c),
(610,503,o),
(582,626,o),
(553,750,c),
(20,750,l),
(20,701,o),
(20,652,o),
(20,603,cs),
(20,402,o),
(20,201,o),
(20,0,c),
(385,0,l),
(385,138,o),
(385,275,o),
(385,413,c),
(385,414,o),
(387,414,o),
(387,413,c),
(420,275,o),
(452,138,o),
(485,0,c),
(740,0,l),
(838,416,ls),
(838,417,o),
(840,417,o),
(840,416,c),
(840,277,o),
(840,139,o),
(840,0,c),
(1225,0,l),
(1225,250,o),
(1225,500,o),
(1225,750,c)
);
}
);
width = 1245;
}
);
unicode = 77;
},
{
color = 6;
glyphname = N;
kernLeft = H;
kernRight = H;
lastChange = "2021-09-04 07:33:57 +0000";
layers = (
{
anchors = (
{
name = bottom;
pos = (524,0);
},
{
name = top;
pos = (524,750);
}
);
background = {
shapes = (
{
closed = 1;
nodes = (
(143,115,l),
(313,115,l),
(313,367,l),
(313,423,o),
(354,472,o),
(409,480,c),
(425,483,o),
(441,482,o),
(455,479,c),
(405,645,l),
(143,645,l)
);
},
{
closed = 1;
nodes = (
(628,115,l),
(900,115,l),
(900,645,l),
(730,645,l),
(730,348,l),
(730,291,o),
(688,242,o),
(631,234,c),
(618,232,o),
(605,233,o),
(592,235,c)
);
}
);
};
layerId = "96858A69-C8A6-410B-90BB-94EA0DA45935";
shapes = (
{
closed = 1;
nodes = (
(727,296,ls),
(727,171,o),
(579,188,o),
(558,245,cs),
(413,645,l),
(292,645,l),
(302,388,o),
(140,211,o),
(140,115,c),
(350,115,l),
(307,194,o),
(291,283,o),
(291,332,cs),
(291,501,o),
(469,491,o),
(487,441,cs),
(605,115,l),
(843,115,l),
(761,219,o),
(733,298,o),
(733,362,cs),
(733,507,o),
(878,571,o),
(864,645,c),
(727,645,l)
);
}
);
width = 1015;
},
{
anchors = (
{
name = bottom;
pos = (514,0);
},
{
name = top;
pos = (514,750);
}
);
associatedMasterId = "F6D8640C-383C-48A8-B63C-DDE9F10207CE";
background = {
shapes = (
{
pos = (-50,0);
ref = A;
}
);
};
layerId = "4033A4FD-0B93-45BA-BCF7-07D1B6E2B587";
name = "Mar 5 20, 10:15";
shapes = (
{
closed = 1;
nodes = (
(607,346,ls),
(607,345,o),
(605,344,o),
(605,345,cs),
(483,750,l),
(20,750,l),
(20,500,o),
(20,250,o),
(20,0,c),
(420,0,l),
(420,117,o),
(420,233,o),
(420,350,cs),
(420,351,o),
(422,351,o),
(422,350,cs),
(537,0,l),
(1007,0,l),
(1007,250,o),
(1007,500,o),
(1007,750,c),
(607,750,l)
);
}
);
width = 1027;
},
{
anchors = (
{
name = bottom;
pos = (524,0);
},
{
name = top;
pos = (524,750);
}
);
associatedMasterId = "F6D8640C-383C-48A8-B63C-DDE9F10207CE";
background = {
shapes = (
{
pos = (10,0);
ref = U;
}
);
};
layerId = "481EF1EE-1F05-4EB4-8E06-1F901F53A3CB";
name = "Mar 5 20, 10:25";
shapes = (
{
closed = 1;
nodes = (
(627,346,ls),
(627,345,o),
(625,344,o),
(625,345,cs),
(493,750,l),
(20,750,l),
(20,500,o),
(20,250,o),
(20,0,c),
(430,0,l),
(430,117,o),
(430,233,o),
(430,350,cs),
(430,351,o),
(432,351,o),
(432,350,cs),
(557,0,l),
(1037,0,l),
(1037,250,o),
(1037,500,o),
(1037,750,c),
(627,750,l)
);
}
);
width = 1057;
},
{
anchors = (
{
name = bottom;
pos = (524,0);
},
{
name = top;
pos = (524,750);
}
);
associatedMasterId = "96858A69-C8A6-410B-90BB-94EA0DA45935";
background = {
shapes = (
{
closed = 1;
nodes = (
(143,115,l),
(313,115,l),
(313,367,l),
(313,423,o),
(354,472,o),
(409,480,c),
(425,483,o),
(441,482,o),
(455,479,c),
(405,645,l),
(143,645,l)
);
},
{
closed = 1;
nodes = (
(628,115,l),
(900,115,l),
(900,645,l),
(730,645,l),
(730,348,l),
(730,291,o),
(688,242,o),
(631,234,c),
(618,232,o),
(605,233,o),
(592,235,c)
);
}
);
};
layerId = "8F15C6D0-0A07-491E-BAC4-FCC6698572DE";
name = "15 May 21, 15:39";
shapes = (
{
closed = 1;
nodes = (
(727,296,ls),
(727,171,o),
(579,188,o),
(558,245,cs),
(413,645,l),
(292,645,l),
(302,388,o),
(140,211,o),
(140,115,c),
(350,115,l),
(307,194,o),
(291,283,o),
(291,332,cs),
(291,501,o),
(469,491,o),
(487,441,cs),
(605,115,l),
(843,115,l),
(575,454,o),
(884,538,o),
(864,645,c),
(727,645,l)
);
}
);
width = 1015;
},
{
anchors = (
{
name = bottom;
pos = (524,0);
},
{
name = top;
pos = (524,750);
}
);
associatedMasterId = "F6D8640C-383C-48A8-B63C-DDE9F10207CE";
background = {
shapes = (
{
pos = (10,0);
ref = U;
}
);
};
layerId = "62E30E97-9AE5-4CCB-BDE9-2146CA385D8A";
name = "15 May 21, 15:39";
shapes = (
{
closed = 1;
nodes = (
(627,346,ls),
(627,345,o),
(625,344,o),
(625,345,cs),
(493,750,l),
(20,750,l),
(20,500,o),
(20,250,o),
(20,0,c),
(430,0,l),
(430,117,o),
(430,233,o),
(430,350,c),
(430,351,o),
(432,351,o),
(432,350,cs),
(557,0,l),
(1037,0,l),
(1037,250,o),
(1037,500,o),
(1037,750,c),
(627,750,l)
);
}
);
width = 1057;
},
{
anchors = (
{
name = bottom;
pos = (524,0);
},
{
name = top;
pos = (524,750);
}
);
associatedMasterId = "F6D8640C-383C-48A8-B63C-DDE9F10207CE";
background = {
shapes = (
{
pos = (10,0);
ref = U;
}
);
};
layerId = "F732031D-BD1C-4E54-8471-CC2BCA9FE426";
name = "20 Aug 21, 11:59";
shapes = (
{
closed = 1;
nodes = (
(627,346,ls),
(627,345,o),
(625,344,o),
(625,345,cs),
(493,750,l),
(20,750,l),
(20,500,o),
(20,250,o),
(20,0,c),
(430,0,l),
(430,117,o),
(430,233,o),
(430,350,c),
(430,351,o),
(432,351,o),
(432,350,cs),
(557,0,l),
(1037,0,l),
(1037,125,o),
(1037,250,o),
(1037,375,cs),
(1037,500,o),
(1037,625,o),
(1037,750,c),
(627,750,l)
);
}
);
width = 1057;
},
{
anchors = (
{
name = bottom;
pos = (504,0);
},
{
name = top;
pos = (504,750);
}
);
associatedMasterId = "F6D8640C-383C-48A8-B63C-DDE9F10207CE";
background = {
shapes = (
{
ref = H;
}
);
};
layerId = "82CC227F-6144-4FC6-A6D3-7B758550EF28";
name = "20 Aug 21, 12:03";
shapes = (
{
closed = 1;
nodes = (
(607,346,ls),
(607,345,o),
(605,344,o),
(605,345,cs),
(473,750,l),
(20,750,l),
(20,500,o),
(20,250,o),
(20,0,c),
(410,0,l),
(410,117,o),
(410,233,o),
(410,350,c),
(410,351,o),
(412,351,o),
(412,350,cs),
(537,0,l),
(997,0,l),
(997,125,o),
(997,250,o),
(997,375,cs),
(997,500,o),
(997,625,o),
(997,750,c),
(607,750,l)
);
}
);
width = 1017;
},
{
anchors = (
{
name = bottom;
pos = (499,0);
},
{
name = top;
pos = (499,750);
}
);
associatedMasterId = "F6D8640C-383C-48A8-B63C-DDE9F10207CE";
background = {
shapes = (
{
ref = H;
}
);
};
layerId = "29852E37-758F-4A09-8208-252164DCF8CE";
name = "20 Aug 21, 14:28";
shapes = (
{
closed = 1;
nodes = (
(611,346,ls),
(611,345,o),
(609,344,o),
(609,345,cs),
(468,750,l),
(20,750,l),
(20,500,o),
(20,250,o),
(20,0,c),
(405,0,l),
(405,117,o),
(405,233,o),
(405,350,c),
(405,351,o),
(407,351,o),
(407,350,cs),
(541,0,l),
(996,0,l),
(996,125,o),
(996,250,o),
(996,375,cs),
(996,500,o),
(996,625,o),
(996,750,c),
(611,750,l)
);
}
);
width = 1016;
},
{
anchors = (
{
name = bottom;
pos = (499,0);
},
{
name = top;
pos = (499,750);
}
);
associatedMasterId = "F6D8640C-383C-48A8-B63C-DDE9F10207CE";
background = {
shapes = (
{
ref = H;
}
);
};
layerId = "AC5F93DB-A8DB-4525-9AF6-A0BE56B45B76";
name = "23 Aug 21, 18:33";
shapes = (
{
closed = 1;
nodes = (
(611,336,ls),
(611,335,o),
(609,334,o),
(609,335,cs),
(468,750,l),
(20,750,l),
(20,500,o),
(20,250,o),
(20,0,c),
(405,0,l),
(405,117,o),
(405,243,o),
(405,360,c),
(405,361,o),
(407,361,o),
(407,360,cs),
(541,0,l),
(996,0,l),
(996,125,o),
(996,250,o),
(996,375,cs),
(996,500,o),
(996,625,o),
(996,750,c),
(611,750,l)
);
}
);
width = 1016;
},
{
anchors = (
{
name = bottom;
pos = (499,0);
},
{
name = top;
pos = (499,750);
}
);
associatedMasterId = "F6D8640C-383C-48A8-B63C-DDE9F10207CE";
layerId = "BB1E1AF9-A785-4AD6-A1F9-FEA858AD823E";
name = "24 Aug 21, 18:28";
shapes = (
{
closed = 1;
nodes = (
(611,336,ls),
(611,335,o),
(609,334,o),
(609,335,cs),
(468,750,l),
(20,750,l),
(20,500,o),
(20,250,o),
(20,0,c),
(405,0,l),
(405,117,o),
(405,243,o),
(405,360,c),
(405,361,o),
(407,361,o),
(407,360,cs),
(555,0,l),
(996,0,l),
(996,125,o),
(996,250,o),
(996,375,cs),
(996,500,o),
(996,625,o),
(996,750,c),
(611,750,l)
);
}
);
width = 1016;
},
{
anchors = (
{
name = bottom;
pos = (499,0);
},
{
name = top;
pos = (499,750);
}
);
background = {
shapes = (
{
closed = 1;
nodes = (
(611,336,ls),
(611,335,o),
(609,334,o),
(609,335,cs),
(468,750,l),
(20,750,l),
(20,500,o),
(20,250,o),
(20,0,c),
(405,0,l),
(405,117,o),
(405,243,o),
(405,360,c),
(405,361,o),
(407,361,o),
(407,360,cs),
(555,0,l),
(996,0,l),
(996,125,o),
(996,250,o),
(996,375,cs),
(996,500,o),
(996,625,o),
(996,750,c),
(611,750,l)
);
}
);
};
layerId = "F6D8640C-383C-48A8-B63C-DDE9F10207CE";
name = Regular;
shapes = (
{
closed = 1;
nodes = (
(611,336,ls),
(611,335,o),
(609,334,o),
(609,335,cs),
(468,750,l),
(20,750,l),
(20,500,o),
(20,250,o),
(20,0,c),
(405,0,l),
(405,117,o),
(405,243,o),
(405,360,c),
(405,361,o),
(407,361,o),
(407,360,cs),
(533,0,l),
(996,0,l),
(996,125,o),
(996,250,o),
(996,375,cs),
(996,500,o),
(996,625,o),
(996,750,c),
(611,750,l)
);
}
);
width = 1016;
}
);
unicode = 78;
},
{
color = 6;
glyphname = Nhookleft;
kernLeft = Nhookleft;
kernRight = H;
lastChange = "2021-09-04 09:30:06 +0000";
layers = (
{
background = {
shapes = (
{
pos = (-451,0);
ref = Eng;
}
);
};
guides = (
{
pos = (105,-172);
}
);
layerId = "F6D8640C-383C-48A8-B63C-DDE9F10207CE";
shapes = (
{
closed = 1;
nodes = (
(314,-188,o),
(485,-100,o),
(485,80,cs),
(485,155,o),
(485,243,o),
(485,360,c),
(485,361,o),
(487,361,o),
(487,360,cs),
(613,0,l),
(1076,0,l),
(1076,126,o),
(1076,249,o),
(1076,375,cs),
(1076,499,o),
(1076,626,o),
(1076,750,c),
(691,750,l),
(691,336,ls),
(691,335,o),
(689,334,o),
(689,335,cs),
(548,750,l),
(105,750,l),
(105,500,o),
(105,383,o),
(105,166,cs),
(105,115,o),
(70,101,o),
(10,118,c),
(10,-148,l)
);
}
);
width = 1091;
},
{
layerId = "96858A69-C8A6-410B-90BB-94EA0DA45935";
shapes = (
{
closed = 1;
nodes = (
(314,24,o),
(331,55,o),
(331,90,cs),
(331,157,o),
(292,241,o),
(292,342,cs),
(292,500,o),
(456,491,o),
(474,441,cs),
(592,115,l),
(830,115,l),
(748,219,o),
(720,298,o),
(720,362,cs),
(720,507,o),
(865,571,o),
(851,645,c),
(714,645,l),
(714,296,ls),
(714,171,o),
(566,188,o),
(545,245,cs),
(400,645,l),
(273,645,l),
(282,553,o),
(286,447,o),
(286,345,cs),
(286,218,o),
(232,98,o),
(147,61,c),
(263,0,l)
);
}
);
width = 1016;
},
{
associatedMasterId = "F6D8640C-383C-48A8-B63C-DDE9F10207CE";
layerId = "FB2A5109-D658-427C-A48F-1BDC4483A326";
name = "Mar 18 20, 13:24";
shapes = (
{
closed = 1;
nodes = (
(276,-341,o),
(421,-208,o),
(421,41,cs),
(421,158,o),
(421,233,o),
(421,350,cs),
(421,351,o),
(423,351,o),
(423,350,cs),
(538,0,l),
(1008,0,l),
(1008,250,o),
(1008,500,o),
(1008,750,c),
(608,750,l),
(608,346,ls),
(608,345,o),
(606,344,o),
(606,345,cs),
(484,750,l),
(21,750,l),
(21,500,o),
(21,252,o),
(21,27,cs),
(21,-49,o),
(-25,-76,o),
(-111,-58,c),
(-37,-319,l)
);
}
);
width = 1028;
},
{
associatedMasterId = "96858A69-C8A6-410B-90BB-94EA0DA45935";
layerId = "9C91F6A1-99E9-4999-AD8A-1CE540EEDC0E";
name = "15 May 21, 15:51";
shapes = (
{
closed = 1;
nodes = (
(314,24,o),
(331,55,o),
(331,90,cs),
(331,154,o),
(278,235,o),
(278,332,cs),
(278,501,o),
(456,491,o),
(474,441,cs),
(592,115,l),
(830,115,l),
(748,219,o),
(720,298,o),
(720,362,cs),
(720,507,o),
(865,571,o),
(851,645,c),
(714,645,l),
(714,296,ls),
(714,171,o),
(566,188,o),
(545,245,cs),
(400,645,l),
(279,645,l),
(283,544,o),
(283,441,o),
(274,350,cs),
(260,209,o),
(224,97,o),
(147,61,c),
(263,0,l)
);
}
);
width = 1016;
},
{
associatedMasterId = "F6D8640C-383C-48A8-B63C-DDE9F10207CE";
layerId = "EA1B4E25-FB32-479B-8A57-BD187034916E";
name = "18 Aug 21, 16:57";
shapes = (
{
closed = 1;
nodes = (
(282,-248,o),
(430,-126,o),
(430,93,cs),
(430,169,o),
(430,233,o),
(430,350,c),
(430,351,o),
(432,351,o),
(432,350,cs),
(557,0,l),
(1037,0,l),
(1037,126,o),
(1037,249,o),
(1037,375,cs),
(1037,499,o),
(1037,626,o),
(1037,750,c),
(627,750,l),
(627,346,ls),
(627,345,o),
(625,344,o),
(625,345,cs),
(493,750,l),
(20,750,l),
(20,500,o),
(20,302,o),
(20,69,cs),
(20,-6,o),
(-25,-24,o),
(-111,-6,c),
(-58,-228,l)
);
}
);
width = 1057;
},
{
associatedMasterId = "F6D8640C-383C-48A8-B63C-DDE9F10207CE";
background = {
shapes = (
{
ref = N;
}
);
};
layerId = "ECF9EDE9-A306-4E3E-AA3D-8D0A37128CBF";
name = "24 Aug 21, 16:02";
shapes = (
{
closed = 1;
nodes = (
(282,-186,o),
(430,-64,o),
(430,155,cs),
(430,191,o),
(430,233,o),
(430,350,c),
(430,351,o),
(432,351,o),
(432,350,cs),
(557,0,l),
(1037,0,l),
(1037,126,o),
(1037,249,o),
(1037,375,cs),
(1037,499,o),
(1037,626,o),
(1037,750,c),
(627,750,l),
(627,346,ls),
(627,345,o),
(625,344,o),
(625,345,cs),
(493,750,l),
(20,750,l),
(20,500,o),
(20,362,o),
(20,169,cs),
(20,94,o),
(-1,88,o),
(-52,94,c),
(1,-166,l)
);
}
);
width = 1057;
},
{
associatedMasterId = "F6D8640C-383C-48A8-B63C-DDE9F10207CE";
background = {
shapes = (
{
ref = N;
}
);
};
layerId = "BECC5B9F-0F5D-4695-9073-DEC850A54F8A";
name = "24 Aug 21, 16:09";
shapes = (
{
closed = 1;
nodes = (
(282,-186,o),
(405,-64,o),
(405,155,cs),
(405,191,o),
(405,243,o),
(405,360,c),
(405,361,o),
(407,361,o),
(407,360,cs),
(555,0,l),
(996,0,l),
(996,126,o),
(996,249,o),
(996,375,cs),
(996,499,o),
(996,626,o),
(996,750,c),
(611,750,l),
(611,336,ls),
(611,335,o),
(609,334,o),
(609,335,cs),
(468,750,l),
(20,750,l),
(20,500,o),
(20,362,o),
(20,169,cs),
(20,94,o),
(-1,88,o),
(-52,94,c),
(1,-166,l)
);
}
);
width = 1016;
},
{
associatedMasterId = "F6D8640C-383C-48A8-B63C-DDE9F10207CE";
background = {
shapes = (
{
pos = (-524,0);
ref = Eng;
}
);
};
guides = (
{
pos = (25,-172);
}
);
layerId = "10A463FB-0B27-4A2F-996B-0D6F3D574C1B";
name = "24 Aug 21, 18:20";
shapes = (
{
closed = 1;
nodes = (
(279,-172,o),
(400,-85,o),
(400,134,cs),
(400,170,o),
(400,243,o),
(400,360,c),
(400,361,o),
(402,361,o),
(402,360,cs),
(551,0,l),
(991,0,l),
(991,126,o),
(991,249,o),
(991,375,cs),
(991,499,o),
(991,626,o),
(991,750,c),
(606,750,l),
(606,336,ls),
(606,335,o),
(604,334,o),
(604,335,cs),
(463,750,l),
(20,750,l),
(20,500,o),
(20,361,o),
(20,168,cs),
(20,93,o),
(-1,84,o),
(-52,93,c),
(2,-172,l)
);
}
);
width = 1011;
},
{
associatedMasterId = "F6D8640C-383C-48A8-B63C-DDE9F10207CE";
background = {
shapes = (
{
ref = N;
}
);
};
guides = (
{
pos = (25,-172);
}
);
layerId = "E8681F2A-4585-4C63-B1FA-11CEAA57CA8A";
name = "26 Aug 21, 10:37";
shapes = (
{
closed = 1;
nodes = (
(245,-201,o),
(405,-110,o),
(405,70,cs),
(405,145,o),
(405,243,o),
(405,360,c),
(405,361,o),
(407,361,o),
(407,360,cs),
(533,0,l),
(996,0,l),
(996,126,o),
(996,249,o),
(996,375,cs),
(996,499,o),
(996,626,o),
(996,750,c),
(611,750,l),
(611,336,ls),
(611,335,o),
(609,334,o),
(609,335,cs),
(468,750,l),
(25,750,l),
(25,500,o),
(25,361,o),
(25,168,cs),
(25,93,o),
(1,86,o),
(-40,96,c),
(-40,-158,l)
);
}
);
width = 1011;
}
);
unicode = 413;
},
{
color = 6;
glyphname = Eng;
kernLeft = H;
kernRight = H;
lastChange = "2021-09-04 07:33:57 +0000";
layers = (
{
layerId = "F6D8640C-383C-48A8-B63C-DDE9F10207CE";
shapes = (
{
closed = 1;
nodes = (
(794,-192,o),
(978,-104,o),
(978,97,cs),
(978,560,ls),
(978,716,o),
(857,776,o),
(722,776,cs),
(657,776,o),
(589,763,o),
(531,738,c),
(435,427,l),
(447,447,o),
(563,469,o),
(563,376,cs),
(563,188,ls),
(563,113,o),
(525,101,o),
(463,118,c),
(463,-148,l)
);
},
{
closed = 1;
nodes = (
(435,0,l),
(435,121,o),
(435,259,o),
(435,383,cs),
(435,398,o),
(435,412,o),
(435,427,c),
(435,542,o),
(435,635,o),
(435,750,c),
(296,750,o),
(159,750,o),
(20,750,c),
(20,660,o),
(20,571,o),
(20,481,cs),
(20,320,o),
(20,160,o),
(20,0,c)
);
}
);
width = 998;
},
{
associatedMasterId = "F6D8640C-383C-48A8-B63C-DDE9F10207CE";
layerId = "5F3F896E-0ACA-40EB-AB2A-AA388AFADC0A";
name = "Mar 18 20, 13:22";
shapes = (
{
closed = 1;
nodes = (
(729,-339,o),
(1010,-282,o),
(1007,41,cs),
(1007,277,o),
(1007,514,o),
(1007,750,c),
(607,750,l),
(607,346,ls),
(607,345,o),
(605,344,o),
(605,345,cs),
(483,750,l),
(20,750,l),
(20,500,o),
(20,250,o),
(20,0,c),
(420,0,l),
(420,117,o),
(420,233,o),
(420,350,cs),
(420,351,o),
(422,351,o),
(422,350,cs),
(550,28,l),
(550,-41,o),
(504,-64,o),
(389,-46,c),
(449,-308,l)
);
}
);
width = 1027;
},
{
layerId = "96858A69-C8A6-410B-90BB-94EA0DA45935";
name = "2050";
shapes = (
{
closed = 1;
nodes = (
(762,17,o),
(801,94,o),
(801,243,cs),
(801,440,ls),
(801,579,o),
(734,634,o),
(663,634,cs),
(637,634,o),
(608,627,o),
(578,612,c),
(578,611,l),
(638,616,o),
(691,546,o),
(691,370,cs),
(691,307,ls),
(691,183,o),
(671,82,o),
(557,42,c),
(691,-19,l)
);
},
{
closed = 1;
nodes = (
(322,115,l),
(301,167,o),
(283,257,o),
(283,365,cs),
(283,420,o),
(294,462,o),
(324,462,c),
(282,470,o),
(267,597,o),
(272,642,c),
(268,642,o),
(175,642,o),
(134,642,c),
(165,585,o),
(175,529,o),
(175,476,cs),
(175,355,o),
(123,207,o),
(147,115,c)
);
}
);
width = 905;
},
{
associatedMasterId = "96858A69-C8A6-410B-90BB-94EA0DA45935";
layerId = "3AFCAF4E-F993-42BB-8CF0-90B716E1E49A";
name = "15 May 21, 16:00";
shapes = (
{
closed = 1;
nodes = (
(732,31,o),
(732,143,o),
(732,205,cs),
(732,333,o),
(884,538,o),
(864,645,c),
(727,645,l),
(727,296,ls),
(727,171,o),
(589,203,o),
(572,245,cs),
(413,645,l),
(292,645,l),
(302,388,o),
(140,211,o),
(140,115,c),
(350,115,l),
(307,194,o),
(291,283,o),
(291,332,cs),
(291,501,o),
(474,491,o),
(494,441,cs),
(606,160,l),
(620,115,o),
(618,70,o),
(554,39,c),
(671,-12,l)
);
}
);
width = 1013;
},
{
associatedMasterId = "F6D8640C-383C-48A8-B63C-DDE9F10207CE";
layerId = "003BF716-ECF5-44DB-AF9E-D37847456768";
name = "18 Aug 21, 17:11";
shapes = (
{
closed = 1;
nodes = (
(769,-258,o),
(1037,-205,o),
(1037,44,cs),
(1037,260,o),
(1037,500,o),
(1037,750,c),
(627,750,l),
(627,346,ls),
(627,345,o),
(625,344,o),
(625,345,cs),
(493,750,l),
(20,750,l),
(20,500,o),
(20,250,o),
(20,0,c),
(430,0,l),
(430,117,o),
(430,233,o),
(430,350,c),
(430,351,o),
(432,351,o),
(432,350,cs),
(564,33,l),
(564,-15,o),
(525,-24,o),
(449,-6,c),
(503,-228,l)
);
}
);
width = 1057;
},
{
associatedMasterId = "F6D8640C-383C-48A8-B63C-DDE9F10207CE";
background = {
anchors = (
{
name = bottom;
pos = (502,0);
},
{
name = top;
pos = (502,750);
}
);
};
layerId = "6817D32C-2834-4997-9DF5-C0BEDBC93453";
name = "24 Aug 21, 18:19";
shapes = (
{
closed = 1;
nodes = (
(840,-180,o),
(978,-87,o),
(978,95,cs),
(978,543,ls),
(978,704,o),
(896,776,o),
(723,776,cs),
(658,776,o),
(589,763,o),
(532,738,c),
(435,429,l),
(447,449,o),
(563,471,o),
(563,378,cs),
(563,198,ls),
(563,95,o),
(533,81,o),
(472,93,c),
(526,-172,l)
);
},
{
closed = 1;
nodes = (
(435,0,l),
(435,120,o),
(435,261,o),
(435,385,cs),
(435,400,o),
(435,414,o),
(435,429,c),
(435,543,o),
(435,636,o),
(435,750,c),
(297,750,o),
(158,750,o),
(20,750,c),
(20,661,o),
(20,572,o),
(20,483,cs),
(20,323,o),
(20,159,o),
(20,0,c)
);
}
);
width = 997;
}
);
unicode = 330;
},
{
color = 6;
glyphname = O;
kernLeft = O;
kernRight = O;
lastChange = "2021-09-04 07:33:57 +0000";
layers = (
{
anchors = (
{
name = bottom;
pos = (560,0);
},
{
name = center;
pos = (560,375);
},
{
name = ogonek;
pos = (788,0);
},
{
name = top;
pos = (560,750);
},
{
name = topleft;
pos = (20,750);
},
{
name = topright;
pos = (1100,750);
}
);
layerId = "F6D8640C-383C-48A8-B63C-DDE9F10207CE";
shapes = (
{
closed = 1;
nodes = (
(927,780,o),
(1110,612,o),
(1110,376,cs),
(1110,164,o),
(957,-30,o),
(560,-30,cs),
(162,-30,o),
(10,164,o),
(10,376,cs),
(10,612,o),
(193,780,o),
(560,780,cs)
);
},
{
closed = 1;
nodes = (
(467,462,o),
(435,417,o),
(435,375,cs),
(435,332,o),
(468,288,o),
(561,288,cs),
(652,288,o),
(685,333,o),
(685,376,cs),
(685,415,o),
(654,462,o),
(561,462,cs)
);
}
);
width = 1120;
},
{
anchors = (
{
name = bottom;
pos = (550,0);
},
{
name = center;
pos = (550,375);
},
{
name = ogonek;
pos = (791,125);
},
{
name = top;
pos = (550,750);
},
{
name = topleft;
pos = (2,750);
},
{
name = topright;
pos = (1082,750);
}
);
layerId = "96858A69-C8A6-410B-90BB-94EA0DA45935";
shapes = (
{
closed = 1;
nodes = (
(791,652,o),
(944,489,o),
(944,272,cs),
(944,173,o),
(918,108,o),
(548,108,cs),
(-9,108,o),
(255,204,o),
(255,475,cs),
(255,649,o),
(125,652,o),
(530,652,cs)
);
},
{
closed = 1;
nodes = (
(335,647,o),
(321,606,o),
(321,471,cs),
(321,261,o),
(436,113,o),
(577,113,cs),
(753,113,o),
(812,313,o),
(812,422,cs),
(812,603,o),
(669,647,o),
(530,647,cs)
);
}
);
width = 1118;
},
{
anchors = (
{
name = bottom;
pos = (560,0);
},
{
name = center;
pos = (560,375);
},
{
name = ogonek;
pos = (788,10);
},
{
name = top;
pos = (560,750);
},
{
name = topleft;
pos = (20,750);
},
{
name = topright;
pos = (1100,750);
}
);
associatedMasterId = "F6D8640C-383C-48A8-B63C-DDE9F10207CE";
layerId = "102EB1B5-4380-4D67-B7C4-CBE18017271C";
name = "Mar 4 20, 17:00";
shapes = (
{
closed = 1;
nodes = (
(927,785,o),
(1110,615,o),
(1110,376,cs),
(1110,160,o),
(957,-35,o),
(560,-35,cs),
(162,-35,o),
(10,160,o),
(10,376,cs),
(10,615,o),
(193,785,o),
(560,785,cs)
);
},
{
closed = 1;
nodes = (
(474,460,o),
(441,417,o),
(441,376,cs),
(441,333,o),
(475,290,o),
(568,290,cs),
(659,290,o),
(692,334,o),
(692,377,cs),
(692,415,o),
(661,460,o),
(568,460,cs)
);
}
);
width = 1120;
},
{
anchors = (
{
name = bottom;
pos = (550,0);
},
{
name = center;
pos = (550,375);
},
{
name = ogonek;
pos = (791,125);
},
{
name = top;
pos = (550,750);
},
{
name = topleft;
pos = (2,750);
},
{
name = topright;
pos = (1082,750);
}
);
associatedMasterId = "96858A69-C8A6-410B-90BB-94EA0DA45935";
layerId = "7034E916-13B0-4B43-8FF1-2F30C1B5336C";
name = "15 May 21, 16:02";
shapes = (
{
closed = 1;
nodes = (
(786,647,o),
(944,478,o),
(944,279,cs),
(944,180,o),
(918,115,o),
(548,115,cs),
(-9,115,o),
(255,201,o),
(255,472,cs),
(255,644,o),
(125,647,o),
(530,647,cs)
);
},
{
closed = 1;
nodes = (
(335,642,o),
(321,601,o),
(321,468,cs),
(321,258,o),
(436,120,o),
(577,120,cs),
(753,120,o),
(812,320,o),
(812,429,cs),
(812,598,o),
(671,642,o),
(530,642,cs)
);
}
);
width = 1118;
},
{
anchors = (
{
name = bottom;
pos = (560,0);
},
{
name = center;
pos = (560,375);
},
{
name = ogonek;
pos = (788,0);
},
{
name = top;
pos = (560,750);
},
{
name = topleft;
pos = (20,750);
},
{
name = topright;
pos = (1100,750);
}
);
associatedMasterId = "F6D8640C-383C-48A8-B63C-DDE9F10207CE";
layerId = "5529A472-74D7-444A-933C-6A37C6778875";
name = "19 Aug 21, 12:01";
shapes = (
{
closed = 1;
nodes = (
(927,785,o),
(1110,615,o),
(1110,376,cs),
(1110,160,o),
(957,-36,o),
(560,-36,cs),
(162,-36,o),
(10,160,o),
(10,376,cs),
(10,615,o),
(193,785,o),
(560,785,cs)
);
},
{
closed = 1;
nodes = (
(467,462,o),
(435,417,o),
(435,375,cs),
(435,331,o),
(468,287,o),
(561,287,cs),
(652,287,o),
(685,332,o),
(685,376,cs),
(685,415,o),
(654,462,o),
(561,462,cs)
);
}
);
width = 1120;
},
{
anchors = (
{
name = bottom;
pos = (560,0);
},
{
name = center;
pos = (560,375);
},
{
name = ogonek;
pos = (788,0);
},
{
name = top;
pos = (560,750);
},
{
name = topleft;
pos = (20,750);
},
{
name = topright;
pos = (1100,750);
}
);
associatedMasterId = "F6D8640C-383C-48A8-B63C-DDE9F10207CE";
layerId = "57E9294C-4BBD-4CB2-A750-EB517274CDA8";
name = "20 Aug 21, 13:17";
shapes = (
{
closed = 1;
nodes = (
(927,785,o),
(1110,615,o),
(1110,376,cs),
(1110,161,o),
(957,-35,o),
(560,-35,cs),
(162,-35,o),
(10,161,o),
(10,376,cs),
(10,615,o),
(193,785,o),
(560,785,cs)
);
},
{
closed = 1;
nodes = (
(467,462,o),
(435,417,o),
(435,375,cs),
(435,332,o),
(468,288,o),
(561,288,cs),
(652,288,o),
(685,333,o),
(685,376,cs),
(685,415,o),
(654,462,o),
(561,462,cs)
);
}
);
width = 1120;
}
);
unicode = 79;
},
{
color = 6;
glyphname = Oogonek;
kernLeft = O;
kernRight = O;
lastChange = "2021-09-04 07:33:57 +0000";
layers = (
{
layerId = "96858A69-C8A6-410B-90BB-94EA0DA45935";
shapes = (
{
closed = 1;
nodes = (
(567,-111,o),
(613,-83,o),
(641,-40,c),
(641,-39,l),
(636,-40,o),
(631,-40,o),
(626,-40,cs),
(588,-40,o),
(558,-16,o),
(558,19,cs),
(558,64,o),
(577,101,o),
(680,111,cs),
(875,130,o),
(946,162,o),
(946,273,cs),
(946,482,o),
(788,652,o),
(532,652,cs),
(127,652,o),
(257,648,o),
(257,476,cs),
(257,205,o),
(-8,109,o),
(535,109,c),
(538,109,l),
(702,109,o),
(427,51,o),
(427,-51,cs),
(427,-83,o),
(456,-111,o),
(512,-111,cs)
);
},
{
closed = 1;
nodes = (
(438,113,o),
(323,261,o),
(323,472,cs),
(323,605,o),
(337,647,o),
(532,647,cs),
(673,647,o),
(814,602,o),
(814,423,cs),
(814,314,o),
(755,113,o),
(579,113,cs)
);
}
);
width = 1120;
},
{
background = {
shapes = (
{
ref = O;
}
);
};
layerId = "F6D8640C-383C-48A8-B63C-DDE9F10207CE";
name = Regular;
shapes = (
{
closed = 1;
nodes = (
(706,-307,o),
(750,-299,o),
(805,-284,c),
(805,-88,l),
(775,-100,o),
(752,-104,o),
(722,-104,cs),
(680,-104,o),
(656,-92,o),
(656,-73,cs),
(656,-48,o),
(680,-30,o),
(767,-13,cs),
(971,27,o),
(1110,176,o),
(1110,376,cs),
(1110,612,o),
(927,780,o),
(560,780,cs),
(193,780,o),
(10,612,o),
(10,376,cs),
(10,185,o),
(130,9,o),
(435,-28,c),
(435,-21,l),
(403,-52,o),
(387,-93,o),
(387,-139,cs),
(387,-246,o),
(472,-307,o),
(643,-307,cs)
);
},
{
closed = 1;
nodes = (
(468,288,o),
(435,332,o),
(435,375,cs),
(435,417,o),
(467,462,o),
(561,462,cs),
(654,462,o),
(685,415,o),
(685,376,cs),
(685,333,o),
(652,288,o),
(561,288,cs)
);
}
);
width = 1120;
},
{
anchors = (
{
name = bottom;
pos = (560,0);
},
{
name = center;
pos = (560,375);
},
{
name = ogonek;
pos = (788,10);
},
{
name = top;
pos = (560,750);
},
{
name = topleft;
pos = (20,750);
},
{
name = topright;
pos = (1100,750);
}
);
associatedMasterId = "F6D8640C-383C-48A8-B63C-DDE9F10207CE";
layerId = "AF5D851D-BFDD-41C8-9DFE-5FECCFC39C1D";
name = "06 May 21, 23:57";
shapes = (
{
closed = 1;
nodes = (
(761,-308,o),
(803,-300,o),
(858,-285,c),
(858,-89,l),
(828,-101,o),
(803,-105,o),
(775,-105,cs),
(741,-105,o),
(724,-95,o),
(724,-73,cs),
(724,-39,o),
(769,-17,o),
(835,6,cs),
(1019,71,o),
(1110,205,o),
(1110,374,cs),
(1110,590,o),
(957,785,o),
(560,785,cs),
(163,785,o),
(10,590,o),
(10,374,cs),
(10,135,o),
(193,-35,o),
(560,-35,c),
(522,10,l),
(478,-38,o),
(455,-95,o),
(455,-144,cs),
(455,-245,o),
(536,-308,o),
(699,-308,cs)
);
},
{
closed = 1;
nodes = (
(468,287,o),
(435,331,o),
(435,375,cs),
(435,417,o),
(467,462,o),
(561,462,cs),
(654,462,o),
(685,415,o),
(685,376,cs),
(685,332,o),
(652,287,o),
(561,287,cs)
);
}
);
width = 1120;
},
{
associatedMasterId = "F6D8640C-383C-48A8-B63C-DDE9F10207CE";
background = {
shapes = (
{
ref = O;
}
);
};
layerId = "0C041FA6-2114-47A4-8D84-4E97197C8F68";
name = "20 Aug 21, 13:28";
shapes = (
{
closed = 1;
nodes = (
(706,-307,o),
(750,-299,o),
(805,-284,c),
(805,-88,l),
(775,-100,o),
(752,-104,o),
(722,-104,cs),
(680,-104,o),
(656,-92,o),
(656,-73,cs),
(656,-48,o),
(680,-30,o),
(767,-13,cs),
(971,27,o),
(1110,176,o),
(1110,376,cs),
(1110,615,o),
(927,785,o),
(560,785,cs),
(193,785,o),
(10,615,o),
(10,376,cs),
(10,185,o),
(130,9,o),
(435,-28,c),
(435,-21,l),
(403,-52,o),
(387,-93,o),
(387,-139,cs),
(387,-246,o),
(472,-307,o),
(643,-307,cs)
);
},
{
closed = 1;
nodes = (
(468,288,o),
(435,332,o),
(435,375,cs),
(435,417,o),
(467,462,o),
(561,462,cs),
(654,462,o),
(685,415,o),
(685,376,cs),
(685,333,o),
(652,288,o),
(561,288,cs)
);
}
);
width = 1120;
},
{
associatedMasterId = "96858A69-C8A6-410B-90BB-94EA0DA45935";
background = {
shapes = (
{
ref = O;
}
);
};
layerId = "E1B4CF51-D1FF-4AF8-BDC9-2256F71707DC";
name = "30 Aug 21, 17:58";
shapes = (
{
closed = 1;
nodes = (
(567,-111,o),
(613,-83,o),
(641,-40,c),
(641,-39,l),
(636,-40,o),
(631,-40,o),
(626,-40,cs),
(588,-40,o),
(558,-16,o),
(558,19,cs),
(558,64,o),
(577,101,o),
(680,111,cs),
(875,130,o),
(946,162,o),
(946,273,cs),
(946,482,o),
(788,652,o),
(532,652,cs),
(127,652,o),
(257,648,o),
(257,476,cs),
(257,205,o),
(-8,109,o),
(535,109,c),
(538,109,l),
(702,109,o),
(427,51,o),
(427,-51,cs),
(427,-83,o),
(456,-111,o),
(512,-111,cs)
);
},
{
closed = 1;
nodes = (
(438,113,o),
(323,261,o),
(323,472,cs),
(323,605,o),
(337,647,o),
(532,647,cs),
(673,647,o),
(814,602,o),
(814,423,cs),
(814,314,o),
(755,113,o),
(579,113,cs)
);
}
);
width = 1120;
}
);
metricLeft = O;
metricRight = O;
unicode = 490;
},
{
color = 3;
glyphname = Oslash;
kernLeft = O;
kernRight = O;
lastChange = "2021-09-04 07:33:57 +0000";
layers = (
{
anchors = (
{
name = bottom;
pos = (560,0);
},
{
name = top;
pos = (560,750);
}
);
layerId = "F6D8640C-383C-48A8-B63C-DDE9F10207CE";
shapes = (
{
closed = 1;
nodes = (
(976,838,l),
(1037,774,l),
(144,-86,l),
(83,-22,l)
);
},
{
ref = O;
}
);
width = 1120;
},
{
anchors = (
{
name = bottom;
pos = (559,0);
},
{
name = top;
pos = (559,750);
}
);
layerId = "96858A69-C8A6-410B-90BB-94EA0DA45935";
shapes = (
{
closed = 1;
nodes = (
(854,667,l),
(859,661,l),
(220,39,l),
(215,45,l)
);
},
{
ref = O;
}
);
width = 1118;
},
{
associatedMasterId = "F6D8640C-383C-48A8-B63C-DDE9F10207CE";
layerId = "C7FC44FA-49D9-403C-B068-7FDA2FC61D23";
name = "13 May 21, 14:01";
shapes = (
{
closed = 1;
nodes = (
(977,838,l),
(1040,772,l),
(147,-88,l),
(84,-22,l)
);
},
{
ref = O;
}
);
width = 1120;
},
{
associatedMasterId = "96858A69-C8A6-410B-90BB-94EA0DA45935";
layerId = "B81BBE82-610F-4189-BAEB-2644C2D863D5";
name = "17 May 21, 15:07";
shapes = (
{
closed = 1;
nodes = (
(851,667,l),
(859,658,l),
(236,55,l),
(228,64,l)
);
},
{
ref = O;
}
);
width = 1120;
}
);
metricLeft = O;
metricRight = O;
unicode = 216;
},
{
color = 6;
glyphname = OE;
kernLeft = O;
kernRight = E;
lastChange = "2021-09-04 07:33:57 +0000";
layers = (
{
anchors = (
{
name = bottom;
pos = (742,0);
},
{
name = top;
pos = (742,750);
}
);
background = {
shapes = (
{
pos = (605,0);
ref = E;
}
);
};
layerId = "F6D8640C-383C-48A8-B63C-DDE9F10207CE";
shapes = (
{
closed = 1;
nodes = (
(637,-25,o),
(704,-16,o),
(763,0,c),
(797,0,o),
(832,0,o),
(866,0,c),
(1472,0,l),
(1472,242,l),
(1061,242,ls),
(1060,242,o),
(1060,242,o),
(1060,243,cs),
(1060,299,ls),
(1060,300,o),
(1060,300,o),
(1061,300,cs),
(1451,300,l),
(1451,441,l),
(1061,441,ls),
(1060,441,o),
(1060,441,o),
(1060,442,cs),
(1060,497,ls),
(1060,498,o),
(1060,498,o),
(1061,498,cs),
(1466,498,l),
(1466,750,l),
(765,750,l),
(706,766,o),
(638,775,o),
(560,775,cs),
(163,775,o),
(10,585,o),
(10,374,cs),
(10,141,o),
(193,-25,o),
(560,-25,cs)
);
},
{
closed = 1;
nodes = (
(467,294,o),
(435,335,o),
(435,374,cs),
(435,415,o),
(468,456,o),
(561,456,cs),
(605,456,o),
(635,446,o),
(655,432,c),
(655,318,l),
(635,304,o),
(605,294,o),
(561,294,cs)
);
}
);
width = 1484;
},
{
anchors = (
{
name = bottom;
pos = (783,0);
},
{
name = top;
pos = (783,750);
}
);
layerId = "96858A69-C8A6-410B-90BB-94EA0DA45935";
shapes = (
{
closed = 1;
nodes = (
(713,107,o),
(767,158,o),
(846,158,c),
(881,158,o),
(900,115,o),
(933,115,cs),
(1371,115,l),
(1371,120,l),
(1179,120,ls),
(989,120,o),
(965,244,o),
(965,294,cs),
(965,296,ls),
(965,360,o),
(1018,382,o),
(1066,382,cs),
(1327,382,l),
(1327,382,l),
(1066,382,ls),
(1044,382,o),
(965,387,o),
(965,482,cs),
(965,485,ls),
(965,597,o),
(1025,644,o),
(1121,644,cs),
(1275,644,l),
(1275,644,l),
(912,644,ls),
(820,644,o),
(685,651,o),
(602,651,cs),
(259,651,o),
(258,649,o),
(258,472,cs),
(258,201,o),
(-6,107,o),
(551,107,cs)
);
},
{
closed = 1;
nodes = (
(439,113,o),
(324,258,o),
(324,468,cs),
(324,601,o),
(458,646,o),
(602,646,cs),
(749,646,o),
(815,598,o),
(815,429,c),
(815,425,l),
(815,315,o),
(754,113,o),
(577,113,cs)
);
}
);
width = 1473;
},
{
anchors = (
{
name = bottom;
pos = (742,0);
},
{
name = top;
pos = (742,750);
}
);
associatedMasterId = "F6D8640C-383C-48A8-B63C-DDE9F10207CE";
background = {
shapes = (
{
pos = (605,0);
ref = E;
}
);
};
layerId = "1EB9E27F-38B7-4395-A493-D0029C38A20C";
name = "23 Aug 21, 18:02";
shapes = (
{
closed = 1;
nodes = (
(637,-25,o),
(704,-16,o),
(763,0,c),
(797,0,o),
(832,0,o),
(866,0,c),
(1472,0,l),
(1472,242,l),
(1061,242,ls),
(1060,242,o),
(1060,242,o),
(1060,243,cs),
(1060,299,ls),
(1060,300,o),
(1060,300,o),
(1061,300,cs),
(1451,300,l),
(1451,441,l),
(1061,441,ls),
(1060,441,o),
(1060,441,o),
(1060,442,cs),
(1060,493,ls),
(1060,494,o),
(1060,494,o),
(1061,494,cs),
(1466,494,l),
(1466,750,l),
(765,750,l),
(706,766,o),
(638,775,o),
(560,775,cs),
(163,775,o),
(10,585,o),
(10,374,cs),
(10,141,o),
(193,-25,o),
(560,-25,cs)
);
},
{
closed = 1;
nodes = (
(467,294,o),
(435,335,o),
(435,374,cs),
(435,415,o),
(468,456,o),
(561,456,cs),
(605,456,o),
(635,446,o),
(655,432,c),
(655,318,l),
(635,304,o),
(605,294,o),
(561,294,cs)
);
}
);
width = 1484;
}
);
unicode = 338;
},
{
color = 6;
glyphname = P;
kernLeft = H;
kernRight = P;
lastChange = "2021-09-04 07:33:57 +0000";
layers = (
{
anchors = (
{
name = bottom;
pos = (539,0);
},
{
name = top;
pos = (539,750);
}
);
background = {
shapes = (
{
pos = (-56,0);
ref = O;
}
);
};
layerId = "96858A69-C8A6-410B-90BB-94EA0DA45935";
shapes = (
{
closed = 1;
nodes = (
(204,645,l),
(215,601,o),
(219,559,o),
(219,520,cs),
(219,340,o),
(126,214,o),
(138,115,c),
(313,115,l),
(297,170,ls),
(272,255,o),
(326,287,o),
(409,287,cs),
(660,287,ls),
(813,287,o),
(893,379,o),
(893,469,cs),
(893,558,o),
(817,645,o),
(660,645,cs)
);
},
{
closed = 1;
nodes = (
(409,287,ls),
(359,287,o),
(280,344,o),
(280,464,cs),
(280,478,ls),
(280,575,o),
(320,645,o),
(416,645,cs),
(580,645,ls),
(699,645,o),
(749,557,o),
(749,468,cs),
(749,378,o),
(697,287,o),
(614,287,cs)
);
}
);
width = 1002;
},
{
anchors = (
{
name = bottom;
pos = (504,0);
},
{
name = top;
pos = (504,750);
}
);
associatedMasterId = "F6D8640C-383C-48A8-B63C-DDE9F10207CE";
layerId = "78EA28C6-12A7-4F5F-8C5B-E123530C636A";
name = "Mar 4 20, 17:04";
shapes = (
{
closed = 1;
nodes = (
(20,750,l),
(20,500,o),
(20,250,o),
(20,0,c),
(425,0,l),
(425,140,ls),
(425,141,o),
(426,142,o),
(427,142,cs),
(629,142,ls),
(1111,142,o),
(1131,750,o),
(629,750,cs)
);
},
{
closed = 1;
nodes = (
(427,351,ls),
(426,351,o),
(425,352,o),
(425,353,cs),
(425,479,ls),
(425,480,o),
(426,481,o),
(427,481,cs),
(519,481,ls),
(637,481,o),
(634,351,o),
(519,351,cs)
);
}
);
width = 1008;
},
{
anchors = (
{
name = bottom;
pos = (539,0);
},
{
name = top;
pos = (539,750);
}
);
associatedMasterId = "96858A69-C8A6-410B-90BB-94EA0DA45935";
background = {
shapes = (
{
pos = (-56,0);
ref = O;
}
);
};
layerId = "2E9DBADA-155E-45E6-8B80-4D1CBDA071EC";
name = "15 May 21, 16:10";
shapes = (
{
closed = 1;
nodes = (
(204,645,l),
(264,396,o),
(124,236,o),
(138,115,c),
(313,115,l),
(297,170,ls),
(272,255,o),
(326,287,o),
(409,287,cs),
(660,287,ls),
(813,287,o),
(893,379,o),
(893,469,cs),
(893,558,o),
(817,645,o),
(660,645,cs)
);
},
{
closed = 1;
nodes = (
(409,287,ls),
(359,287,o),
(280,344,o),
(280,464,cs),
(280,478,ls),
(280,575,o),
(320,645,o),
(416,645,cs),
(580,645,ls),
(699,645,o),
(749,557,o),
(749,468,cs),
(749,378,o),
(697,287,o),
(614,287,cs)
);
}
);
width = 1002;
},
{
anchors = (
{
name = bottom;
pos = (499,0);
},
{
name = top;
pos = (499,750);
}
);
associatedMasterId = "F6D8640C-383C-48A8-B63C-DDE9F10207CE";
layerId = "4093B716-BCD4-4C8B-B561-59D6E2993106";
name = "15 May 21, 16:10";
shapes = (
{
closed = 1;
nodes = (
(20,750,l),
(20,500,o),
(20,250,o),
(20,0,c),
(420,0,l),
(420,140,ls),
(420,141,o),
(421,142,o),
(422,142,cs),
(647,142,ls),
(890,142,o),
(1016,297,o),
(1016,451,cs),
(1016,601,o),
(895,750,o),
(647,750,cs)
);
},
{
closed = 1;
nodes = (
(422,345,ls),
(421,345,o),
(420,346,o),
(420,346,cs),
(420,483,ls),
(420,484,o),
(421,485,o),
(422,485,cs),
(528,485,ls),
(589,485,o),
(619,451,o),
(619,416,cs),
(619,381,o),
(588,345,o),
(528,345,cs)
);
}
);
width = 1021;
},
{
anchors = (
{
name = bottom;
pos = (499,0);
},
{
name = top;
pos = (499,750);
}
);
associatedMasterId = "F6D8640C-383C-48A8-B63C-DDE9F10207CE";
layerId = "AE5D0BBA-279A-46BC-AA3F-9E1582AC5637";
name = "18 Aug 21, 14:57";
shapes = (
{
closed = 1;
nodes = (
(20,750,l),
(20,679,o),
(20,608,o),
(20,536,cs),
(20,358,o),
(20,179,o),
(20,0,c),
(420,0,l),
(420,140,ls),
(420,141,o),
(421,142,o),
(422,142,cs),
(647,142,ls),
(890,142,o),
(1016,297,o),
(1016,451,cs),
(1016,601,o),
(895,750,o),
(647,750,cs)
);
},
{
closed = 1;
nodes = (
(422,345,ls),
(421,345,o),
(420,346,o),
(420,346,cs),
(420,483,ls),
(420,484,o),
(421,485,o),
(422,485,cs),
(528,485,ls),
(589,485,o),
(619,451,o),
(619,416,cs),
(619,381,o),
(588,345,o),
(528,345,cs)
);
}
);
width = 1024;
},
{
anchors = (
{
name = bottom;
pos = (499,0);
},
{
name = top;
pos = (499,750);
}
);
associatedMasterId = "F6D8640C-383C-48A8-B63C-DDE9F10207CE";
background = {
shapes = (
{
ref = H;
}
);
};
layerId = "C60A1594-CA4F-4F7D-A826-5619FA2242DB";
name = "20 Aug 21, 16:04";
shapes = (
{
closed = 1;
nodes = (
(20,750,l),
(20,679,o),
(20,608,o),
(20,536,cs),
(20,358,o),
(20,179,o),
(20,0,c),
(430,0,l),
(430,140,ls),
(430,141,o),
(431,142,o),
(432,142,cs),
(647,142,ls),
(890,142,o),
(1016,297,o),
(1016,451,cs),
(1016,601,o),
(895,750,o),
(647,750,cs)
);
},
{
closed = 1;
nodes = (
(432,345,ls),
(431,345,o),
(430,346,o),
(430,346,cs),
(430,483,ls),
(430,484,o),
(431,485,o),
(432,485,cs),
(524,485,ls),
(585,485,o),
(615,451,o),
(615,416,cs),
(615,381,o),
(584,345,o),
(524,345,cs)
);
}
);
width = 1024;
},
{
anchors = (
{
name = bottom;
pos = (505,0);
},
{
name = top;
pos = (505,750);
}
);
background = {
shapes = (
{
ref = E;
}
);
};
layerId = "F6D8640C-383C-48A8-B63C-DDE9F10207CE";
name = Regular;
shapes = (
{
closed = 1;
nodes = (
(20,750,l),
(20,679,o),
(20,608,o),
(20,536,cs),
(20,358,o),
(20,179,o),
(20,0,c),
(436,0,l),
(436,126,ls),
(436,127,o),
(437,128,o),
(438,128,cs),
(653,128,ls),
(896,128,o),
(1022,276,o),
(1022,443,cs),
(1022,601,o),
(901,750,o),
(653,750,cs)
);
},
{
closed = 1;
nodes = (
(438,345,ls),
(437,345,o),
(436,346,o),
(436,346,cs),
(436,483,ls),
(436,484,o),
(437,485,o),
(438,485,cs),
(530,485,ls),
(591,485,o),
(621,451,o),
(621,416,cs),
(621,381,o),
(590,345,o),
(530,345,cs)
);
}
);
visible = 1;
width = 1030;
},
{
anchors = (
{
name = bottom;
pos = (505,0);
},
{
name = top;
pos = (505,750);
}
);
associatedMasterId = "F6D8640C-383C-48A8-B63C-DDE9F10207CE";
background = {
shapes = (
{
ref = E;
}
);
};
layerId = "43B7B0FE-B9CB-498F-9033-FDCB4E046CAF";
name = "23 Aug 21, 18:22";
shapes = (
{
closed = 1;
nodes = (
(20,750,l),
(20,679,o),
(20,608,o),
(20,536,cs),
(20,358,o),
(20,179,o),
(20,0,c),
(436,0,l),
(436,140,ls),
(436,141,o),
(437,142,o),
(438,142,cs),
(653,142,ls),
(896,142,o),
(1022,297,o),
(1022,451,cs),
(1022,601,o),
(901,750,o),
(653,750,cs)
);
},
{
closed = 1;
nodes = (
(438,345,ls),
(437,345,o),
(436,346,o),
(436,346,cs),
(436,483,ls),
(436,484,o),
(437,485,o),
(438,485,cs),
(530,485,ls),
(591,485,o),
(621,451,o),
(621,416,cs),
(621,381,o),
(590,345,o),
(530,345,cs)
);
}
);
width = 1030;
}
);
unicode = 80;
},
{
color = 6;
glyphname = Thorn;
kernLeft = H;
kernRight = Thorn;
lastChange = "2021-09-04 07:33:57 +0000";
layers = (
{
anchors = (
{
name = bottom;
pos = (504,0);
},
{
name = top;
pos = (504,750);
}
);
associatedMasterId = "F6D8640C-383C-48A8-B63C-DDE9F10207CE";
background = {
anchors = (
{
name = bottom;
pos = (499,-66);
},
{
name = top;
pos = (499,684);
}
);
shapes = (
{
closed = 1;
nodes = (
(20,684,l),
(20,434,o),
(20,184,o),
(20,-66,c),
(420,-66,l),
(420,74,ls),
(420,75,o),
(421,76,o),
(422,76,cs),
(647,76,ls),
(890,76,o),
(1016,231,o),
(1016,385,cs),
(1016,535,o),
(895,684,o),
(647,684,cs)
);
},
{
closed = 1;
nodes = (
(422,279,ls),
(421,279,o),
(420,280,o),
(420,280,cs),
(420,417,ls),
(420,418,o),
(421,419,o),
(422,419,cs),
(528,419,ls),
(589,419,o),
(619,385,o),
(619,350,cs),
(619,315,o),
(588,279,o),
(528,279,cs)
);
}
);
};
layerId = "2138A14D-44C0-48A6-B8EC-A2ACDE11207A";
name = "13 May 21, 14:58";
shapes = (
{
closed = 1;
nodes = (
(421,0,l),
(421,80,l),
(421,81,o),
(422,82,o),
(423,82,cs),
(629,82,ls),
(885,82,o),
(1016,204,o),
(1016,383,cs),
(1016,554,o),
(891,678,o),
(629,678,cs),
(561,678,o),
(491,678,o),
(423,678,c),
(423,703,o),
(423,725,o),
(423,750,c),
(20,750,l),
(20,476,o),
(20,202,o),
(20,0,c)
);
},
{
closed = 1;
nodes = (
(421,279,o),
(420,280,o),
(420,281,cs),
(420,417,ls),
(420,418,o),
(421,419,o),
(422,419,cs),
(523,419,ls),
(587,419,o),
(619,392,o),
(619,350,cs),
(619,314,o),
(586,279,o),
(523,279,cs),
(422,279,ls)
);
}
);
width = 1004;
},
{
background = {
anchors = (
{
name = bottom;
pos = (504,-64);
},
{
name = top;
pos = (504,686);
}
);
};
layerId = "F6D8640C-383C-48A8-B63C-DDE9F10207CE";
name = Regular;
shapes = (
{
closed = 1;
nodes = (
(436,0,l),
(436,82,l),
(436,83,o),
(437,84,o),
(438,84,cs),
(654,84,ls),
(894,84,o),
(1021,220,o),
(1021,383,cs),
(1021,549,o),
(894,686,o),
(654,686,cs),
(566,686,o),
(506,686,o),
(438,686,cs),
(438,686,o),
(438,707,o),
(438,719,cs),
(438,729,o),
(438,740,o),
(438,750,c),
(20,750,l),
(20,660,o),
(20,571,o),
(20,483,cs),
(20,304,o),
(20,136,o),
(20,0,c)
);
},
{
closed = 1;
nodes = (
(436,287,o),
(435,288,o),
(435,289,cs),
(435,427,ls),
(435,428,o),
(436,429,o),
(437,429,cs),
(530,429,ls),
(591,429,o),
(620,397,o),
(620,360,cs),
(620,321,o),
(590,287,o),
(530,287,cs),
(437,287,ls)
);
}
);
width = 1029;
},
{
anchors = (
{
name = bottom;
pos = (532,0);
},
{
name = top;
pos = (532,750);
}
);
associatedMasterId = "96858A69-C8A6-410B-90BB-94EA0DA45935";
layerId = "917CE837-B305-4F11-9636-DCBE746A3AB6";
name = "13 May 21, 14:58";
shapes = (
{
closed = 1;
nodes = (
(306,115,l),
(293,159,ls),
(284,188,o),
(317,220,o),
(396,220,cs),
(647,220,ls),
(800,220,o),
(880,312,o),
(880,402,cs),
(880,491,o),
(804,578,o),
(647,578,cs),
(567,578,o),
(492,578,o),
(416,578,cs),
(380,578,o),
(279,589,o),
(327,645,c),
(183,645,l),
(257,345,o),
(117,236,o),
(131,115,c)
);
},
{
closed = 1;
nodes = (
(349,220,o),
(312,283,o),
(294,410,cs),
(292,424,ls),
(278,524,o),
(311,578,o),
(403,578,cs),
(567,578,ls),
(686,578,o),
(736,490,o),
(736,401,cs),
(736,311,o),
(684,220,o),
(601,220,cs),
(396,220,ls)
);
}
);
width = 999;
},
{
background = {
shapes = (
{
pos = (-13,-67);
ref = P;
}
);
};
layerId = "96858A69-C8A6-410B-90BB-94EA0DA45935";
name = "2050";
shapes = (
{
closed = 1;
nodes = (
(306,115,l),
(300,136,ls),
(281,202,o),
(317,224,o),
(396,224,cs),
(647,224,ls),
(800,224,o),
(880,316,o),
(880,402,cs),
(880,487,o),
(804,574,o),
(647,574,cs),
(567,574,o),
(492,574,o),
(408,574,cs),
(345,574,o),
(314,587,o),
(314,616,cs),
(314,624,o),
(318,634,o),
(327,645,c),
(183,645,l),
(199,582,o),
(205,527,o),
(205,479,cs),
(205,298,o),
(120,210,o),
(131,115,c)
);
},
{
closed = 1;
nodes = (
(349,224,o),
(268,286,o),
(268,410,cs),
(268,420,ls),
(268,521,o),
(311,574,o),
(403,574,cs),
(567,574,ls),
(686,574,o),
(736,486,o),
(736,401,cs),
(736,315,o),
(684,224,o),
(601,224,cs),
(396,224,ls)
);
}
);
width = 989;
},
{
anchors = (
{
name = bottom;
pos = (504,0);
},
{
name = top;
pos = (504,750);
}
);
associatedMasterId = "F6D8640C-383C-48A8-B63C-DDE9F10207CE";
layerId = "4498EF76-3D2F-47E7-87DD-9D382688D75E";
name = "13 May 21, 15:00";
shapes = (
{
closed = 1;
nodes = (
(421,0,l),
(421,68,l),
(421,69,o),
(422,70,o),
(423,70,cs),
(629,70,ls),
(1111,70,o),
(1131,686,o),
(629,686,cs),
(561,686,o),
(491,686,o),
(423,686,c),
(423,708,o),
(423,728,o),
(423,750,c),
(20,750,l),
(20,476,o),
(20,202,o),
(20,0,c)
);
},
{
closed = 1;
nodes = (
(422,279,o),
(421,280,o),
(421,281,cs),
(421,417,ls),
(421,418,o),
(422,419,o),
(423,419,cs),
(521,419,ls),
(629,419,o),
(626,279,o),
(521,279,cs),
(423,279,ls)
);
}
);
width = 1004;
},
{
anchors = (
{
name = bottom;
pos = (532,0);
},
{
name = top;
pos = (532,750);
}
);
associatedMasterId = "96858A69-C8A6-410B-90BB-94EA0DA45935";
layerId = "142441D8-9AE1-447E-8CCF-546776E13FDD";
name = "15 May 21, 16:11";
shapes = (
{
closed = 1;
nodes = (
(306,115,l),
(300,136,ls),
(282,198,o),
(317,220,o),
(396,220,cs),
(647,220,ls),
(800,220,o),
(880,312,o),
(880,402,cs),
(880,491,o),
(804,578,o),
(647,578,cs),
(567,578,o),
(492,578,o),
(416,578,cs),
(380,578,o),
(279,589,o),
(327,645,c),
(183,645,l),
(257,345,o),
(117,236,o),
(131,115,c)
);
},
{
closed = 1;
nodes = (
(349,220,o),
(312,283,o),
(294,410,cs),
(292,424,ls),
(278,524,o),
(311,578,o),
(403,578,cs),
(567,578,ls),
(686,578,o),
(736,490,o),
(736,401,cs),
(736,311,o),
(684,220,o),
(601,220,cs),
(396,220,ls)
);
}
);
visible = 1;
width = 999;
},
{
anchors = (
{
name = bottom;
pos = (504,0);
},
{
name = top;
pos = (504,750);
}
);
associatedMasterId = "F6D8640C-383C-48A8-B63C-DDE9F10207CE";
background = {
anchors = (
{
name = bottom;
pos = (499,-64);
},
{
name = top;
pos = (499,686);
}
);
shapes = (
{
closed = 1;
nodes = (
(20,686,l),
(20,436,o),
(20,186,o),
(20,-64,c),
(420,-64,l),
(420,76,ls),
(420,77,o),
(421,78,o),
(422,78,cs),
(647,78,ls),
(890,78,o),
(1016,233,o),
(1016,387,cs),
(1016,537,o),
(895,686,o),
(647,686,cs)
);
},
{
closed = 1;
nodes = (
(422,281,ls),
(421,281,o),
(420,282,o),
(420,282,cs),
(420,419,ls),
(420,420,o),
(421,421,o),
(422,421,cs),
(528,421,ls),
(589,421,o),
(619,387,o),
(619,352,cs),
(619,317,o),
(588,281,o),
(528,281,cs)
);
}
);
};
layerId = "14D25AC8-2D98-478F-8E21-40307811EA26";
name = "15 May 21, 16:11";
shapes = (
{
closed = 1;
nodes = (
(421,0,l),
(421,86,l),
(421,87,o),
(422,88,o),
(423,88,cs),
(649,88,ls),
(889,88,o),
(1016,233,o),
(1016,394,cs),
(1016,549,o),
(889,686,o),
(649,686,cs),
(561,686,o),
(491,686,o),
(423,686,c),
(423,708,o),
(423,728,o),
(423,750,c),
(20,750,l),
(20,476,o),
(20,202,o),
(20,0,c)
);
},
{
closed = 1;
nodes = (
(421,287,o),
(420,288,o),
(420,289,cs),
(420,427,ls),
(420,428,o),
(421,429,o),
(422,429,cs),
(529,429,ls),
(590,429,o),
(619,397,o),
(619,360,cs),
(619,321,o),
(589,287,o),
(529,287,cs),
(422,287,ls)
);
}
);
width = 1004;
},
{
associatedMasterId = "F6D8640C-383C-48A8-B63C-DDE9F10207CE";
background = {
anchors = (
{
name = bottom;
pos = (499,-64);
},
{
name = top;
pos = (499,686);
}
);
shapes = (
{
pos = (0,-60);
ref = P;
}
);
};
layerId = "0239AECB-50BE-4117-8D1B-4B5A4B4205DB";
name = "18 Aug 21, 15:37";
shapes = (
{
closed = 1;
nodes = (
(421,0,l),
(421,86,l),
(421,87,o),
(422,88,o),
(423,88,cs),
(649,88,ls),
(889,88,o),
(1016,233,o),
(1016,394,cs),
(1016,549,o),
(889,686,o),
(649,686,cs),
(561,686,o),
(491,686,o),
(423,686,cs),
(423,686,o),
(423,707,o),
(423,719,cs),
(423,729,o),
(423,740,o),
(423,750,c),
(20,750,l),
(20,660,o),
(20,571,o),
(20,483,cs),
(20,304,o),
(20,136,o),
(20,0,c)
);
},
{
closed = 1;
nodes = (
(421,287,o),
(420,288,o),
(420,289,cs),
(420,427,ls),
(420,428,o),
(421,429,o),
(422,429,cs),
(529,429,ls),
(590,429,o),
(619,397,o),
(619,360,cs),
(619,321,o),
(589,287,o),
(529,287,cs),
(422,287,ls)
);
}
);
width = 1024;
}
);
metricRight = P;
unicode = 222;
},
{
color = 6;
glyphname = Q;
kernLeft = O;
kernRight = Q;
lastChange = "2021-09-04 07:33:57 +0000";
layers = (
{
anchors = (
{
name = bottom;
pos = (559,0);
},
{
name = top;
pos = (559,750);
}
);
layerId = "F6D8640C-383C-48A8-B63C-DDE9F10207CE";
shapes = (
{
closed = 1;
nodes = (
(927,115,o),
(1103,210,o),
(1103,406,cs),
(1103,652,o),
(868,780,o),
(557,780,cs),
(193,780,o),
(10,612,o),
(10,376,cs),
(10,144,o),
(171,16,o),
(421,-15,c),
(422,-15,o),
(422,-16,o),
(422,-17,c),
(413,-54,o),
(405,-79,o),
(397,-110,c),
(1028,-140,l),
(1091,129,l),
(695,84,l),
(695,84,o),
(695,86,o),
(695,87,cs),
(695,88,o),
(695,89,o),
(695,89,c)
);
},
{
closed = 1;
nodes = (
(652,462,o),
(685,417,o),
(685,374,cs),
(685,336,o),
(654,290,o),
(561,290,cs),
(467,290,o),
(435,333,o),
(435,375,cs),
(435,418,o),
(468,462,o),
(561,462,cs)
);
}
);
width = 1113;
},
{
anchors = (
{
name = bottom;
pos = (559,0);
},
{
name = top;
pos = (559,750);
}
);
associatedMasterId = "F6D8640C-383C-48A8-B63C-DDE9F10207CE";
background = {
shapes = (
{
pos = (-1,0);
ref = O;
}
);
};
layerId = "C3D55AF5-18C1-4FA7-A593-3401AECC1CCE";
name = "Mar 4 20, 17:30";
shapes = (
{
closed = 1;
nodes = (
(902,109,o),
(1103,220,o),
(1103,426,cs),
(1103,927,o),
(10,906,o),
(10,374,cs),
(10,214,o),
(159,46,o),
(415,-6,c),
(416,-6,o),
(416,-7,o),
(416,-8,c),
(410,-42,o),
(403,-76,o),
(397,-110,c),
(1028,-140,l),
(1091,129,l),
(695,84,l),
(695,84,o),
(695,89,o),
(695,89,c)
);
},
{
closed = 1;
nodes = (
(651,477,o),
(684,432,o),
(684,389,cs),
(684,351,o),
(653,305,o),
(560,305,cs),
(466,305,o),
(434,348,o),
(434,390,cs),
(434,433,o),
(467,477,o),
(560,477,cs)
);
}
);
width = 1113;
},
{
anchors = (
{
name = bottom;
pos = (567,0);
},
{
name = top;
pos = (567,750);
}
);
associatedMasterId = "96858A69-C8A6-410B-90BB-94EA0DA45935";
layerId = "87D01077-D1BF-45AD-B4AE-4E5D824188AD";
name = "15 May 21, 16:20";
shapes = (
{
closed = 1;
nodes = (
(846,226,o),
(957,295,o),
(957,410,cs),
(957,563,o),
(819,674,o),
(578,674,cs),
(308,674,o),
(53,544,o),
(181,437,cs),
(343,301,o),
(358,115,o),
(530,115,cs),
(584,115,o),
(584,97,o),
(555,29,cs),
(549,15,o),
(548,12,o),
(543,-3,c),
(874,-21,l),
(875,-16,l),
(749,-7,ls),
(569,6,o),
(599,171,o),
(694,192,cs)
);
},
{
closed = 1;
nodes = (
(671,667,o),
(813,644,o),
(813,428,cs),
(813,330,o),
(778,192,o),
(614,192,cs),
(483,192,o),
(288,301,o),
(288,505,cs),
(288,629,o),
(418,667,o),
(559,667,cs)
);
}
);
width = 1110;
},
{
anchors = (
{
name = bottom;
pos = (559,0);
},
{
name = top;
pos = (559,750);
}
);
associatedMasterId = "F6D8640C-383C-48A8-B63C-DDE9F10207CE";
background = {
shapes = (
{
pos = (-1,55);
ref = O;
scale = (1,0.9296);
}
);
};
layerId = "CF095283-F0A2-4655-ACE1-213BDF5FFA50";
name = "15 May 21, 16:20";
shapes = (
{
closed = 1;
nodes = (
(901,100,o),
(1103,220,o),
(1103,426,cs),
(1103,666,o),
(877,786,o),
(557,786,cs),
(236,786,o),
(10,666,o),
(10,406,cs),
(10,164,o),
(207,44,o),
(424,4,c),
(425,4,o),
(425,3,o),
(425,2,c),
(416,-35,o),
(406,-73,o),
(397,-110,c),
(1028,-140,l),
(1091,129,l),
(695,84,l),
(695,84,o),
(695,89,o),
(695,89,c)
);
},
{
closed = 1;
nodes = (
(651,487,o),
(684,442,o),
(684,399,cs),
(684,361,o),
(653,315,o),
(560,315,cs),
(466,315,o),
(434,358,o),
(434,400,cs),
(434,443,o),
(467,487,o),
(560,487,cs)
);
}
);
width = 1113;
},
{
anchors = (
{
name = bottom;
pos = (559,0);
},
{
name = top;
pos = (559,750);
}
);
associatedMasterId = "F6D8640C-383C-48A8-B63C-DDE9F10207CE";
background = {
shapes = (
{
pos = (-1,55);
ref = O;
scale = (1,0.9296);
}
);
};
layerId = "947B565A-2C2B-4196-965D-45AD374EAA70";
name = "19 Aug 21, 12:01";
shapes = (
{
closed = 1;
nodes = (
(901,100,o),
(1103,220,o),
(1103,426,cs),
(1103,666,o),
(877,786,o),
(557,786,cs),
(236,786,o),
(10,666,o),
(10,406,cs),
(10,164,o),
(207,44,o),
(424,4,c),
(425,4,o),
(425,3,o),
(425,2,c),
(416,-35,o),
(406,-73,o),
(397,-110,c),
(1028,-140,l),
(1091,129,l),
(695,84,l),
(695,84,o),
(695,86,o),
(695,87,cs),
(695,88,o),
(695,89,o),
(695,89,c)
);
},
{
closed = 1;
nodes = (
(651,487,o),
(684,442,o),
(684,399,cs),
(684,361,o),
(653,315,o),
(560,315,cs),
(466,315,o),
(434,358,o),
(434,400,cs),
(434,443,o),
(467,487,o),
(560,487,cs)
);
}
);
width = 1113;
},
{
anchors = (
{
name = bottom;
pos = (567,0);
},
{
name = top;
pos = (567,750);
}
);
layerId = "96858A69-C8A6-410B-90BB-94EA0DA45935";
name = "2050";
shapes = (
{
closed = 1;
nodes = (
(852,241,o),
(957,285,o),
(957,400,cs),
(957,553,o),
(819,664,o),
(578,664,cs),
(308,664,o),
(53,534,o),
(181,427,cs),
(343,291,o),
(358,105,o),
(530,105,cs),
(561,105,o),
(574,102,o),
(574,87,cs),
(574,64,o),
(555,18,o),
(543,-1,c),
(874,-11,l),
(875,-6,l),
(749,0,ls),
(655,4,o),
(618,53,o),
(618,95,cs),
(618,139,o),
(639,173,o),
(711,196,cs)
);
},
{
closed = 1;
nodes = (
(671,659,o),
(813,634,o),
(813,418,cs),
(813,314,o),
(778,182,o),
(614,182,cs),
(483,182,o),
(288,291,o),
(288,495,cs),
(288,619,o),
(418,659,o),
(578,659,cs)
);
}
);
width = 1110;
}
);
unicode = 81;
},
{
color = 6;
glyphname = R;
kernLeft = H;
kernRight = R;
lastChange = "2021-09-04 07:33:57 +0000";
layers = (
{
anchors = (
{
name = bottom;
pos = (526,0);
},
{
name = top;
pos = (526,750);
}
);
layerId = "F6D8640C-383C-48A8-B63C-DDE9F10207CE";
shapes = (
{
closed = 1;
nodes = (
(20,671,o),
(20,593,o),
(20,514,cs),
(20,343,o),
(20,171,o),
(20,0,c),
(435,0,l),
(435,65,o),
(435,159,o),
(435,225,cs),
(435,271,o),
(435,304,o),
(435,305,c),
(435,300,o),
(435,313,o),
(435,444,c),
(435,445,o),
(436,446,o),
(437,446,cs),
(551,446,ls),
(605,446,o),
(632,411,o),
(632,376,cs),
(632,341,o),
(605,306,o),
(551,306,cs),
(435,306,l),
(474,204,o),
(513,102,o),
(552,0,c),
(1027,0,l),
(873,297,l),
(646,297,ls),
(646,297,o),
(646,299,o),
(646,299,c),
(646,299,o),
(646,301,o),
(646,301,cs),
(656,301,o),
(712,301,o),
(720,301,cs),
(910,301,o),
(1005,418,o),
(1005,533,cs),
(1005,643,o),
(918,750,o),
(743,750,cs),
(20,750,l)
);
}
);
width = 1030;
},
{
anchors = (
{
name = bottom;
pos = (510,0);
},
{
name = top;
pos = (510,750);
}
);
associatedMasterId = "F6D8640C-383C-48A8-B63C-DDE9F10207CE";
layerId = "EFD04641-9E48-42FB-8AA0-86BD80F9644A";
name = "Mar 4 20, 16:48";
shapes = (
{
closed = 1;
nodes = (
(425,109,o),
(425,331,o),
(425,333,c),
(425,328,o),
(425,328,o),
(425,461,c),
(425,462,o),
(426,463,o),
(427,463,cs),
(519,463,ls),
(584,463,o),
(611,430,o),
(610,398,cs),
(609,366,o),
(582,334,o),
(519,334,cs),
(425,334,l),
(428,327,o),
(431,318,o),
(434,311,c),
(474,207,o),
(514,104,o),
(554,0,c),
(1013,0,l),
(911,247,l),
(639,244,ls),
(639,244,o),
(639,246,o),
(639,246,c),
(639,246,o),
(639,248,o),
(639,248,cs),
(672,248,o),
(748,255,o),
(789,265,cs),
(1085,337,o),
(1023,750,o),
(709,750,cs),
(20,750,l),
(20,500,o),
(20,250,o),
(20,0,c),
(425,0,l)
);
}
);
width = 1013;
},
{
anchors = (
{
name = bottom;
pos = (565,0);
},
{
name = top;
pos = (565,750);
}
);
associatedMasterId = "F6D8640C-383C-48A8-B63C-DDE9F10207CE";
background = {
shapes = (
{
ref = P;
}
);
};
layerId = "2FC6F868-EC73-4835-8E76-8F6608308B9C";
name = "Mar 4 20, 18:41";
shapes = (
{
closed = 1;
nodes = (
(20,500,o),
(20,250,o),
(20,0,c),
(420,0,l),
(420,109,o),
(420,332,o),
(420,334,c),
(420,329,o),
(420,350,o),
(420,466,c),
(420,467,o),
(421,468,o),
(422,468,cs),
(523,468,ls),
(583,468,o),
(608,435,o),
(608,401,cs),
(608,368,o),
(583,335,o),
(523,335,cs),
(420,335,l),
(423,328,o),
(426,319,o),
(429,312,c),
(469,208,o),
(509,104,o),
(549,0,c),
(1059,0,l),
(953,217,l),
(618,218,ls),
(618,218,o),
(618,220,o),
(618,220,c),
(618,220,o),
(618,222,o),
(618,222,cs),
(629,222,o),
(640,222,o),
(650,222,cs),
(883,222,o),
(1028,326,o),
(1028,494,cs),
(1028,624,o),
(930,750,o),
(733,750,cs),
(20,750,l)
);
}
);
width = 1039;
},
{
anchors = (
{
name = bottom;
pos = (565,0);
},
{
name = top;
pos = (565,750);
}
);
associatedMasterId = "F6D8640C-383C-48A8-B63C-DDE9F10207CE";
background = {
shapes = (
{
ref = P;
}
);
};
layerId = "698F8558-9F5E-4BAD-94A4-7218A830A7B3";
name = "Mar 4 20, 18:43";
shapes = (
{
closed = 1;
nodes = (
(20,500,o),
(20,250,o),
(20,0,c),
(420,0,l),
(420,109,o),
(420,332,o),
(420,334,c),
(420,329,o),
(420,350,o),
(420,466,c),
(420,467,o),
(421,468,o),
(422,468,cs),
(523,468,ls),
(583,468,o),
(608,435,o),
(608,401,cs),
(608,368,o),
(583,335,o),
(523,335,cs),
(420,335,l),
(423,328,o),
(426,319,o),
(429,312,c),
(469,208,o),
(509,104,o),
(549,0,c),
(1059,0,l),
(958,198,l),
(611,199,ls),
(611,199,o),
(611,201,o),
(611,201,c),
(611,201,o),
(611,203,o),
(611,203,cs),
(622,203,o),
(633,203,o),
(644,203,cs),
(885,203,o),
(1035,310,o),
(1035,485,cs),
(1035,620,o),
(933,750,o),
(729,750,cs),
(20,750,l)
);
}
);
width = 1039;
},
{
anchors = (
{
name = bottom;
pos = (565,0);
},
{
name = top;
pos = (565,750);
}
);
associatedMasterId = "F6D8640C-383C-48A8-B63C-DDE9F10207CE";
background = {
shapes = (
{
ref = P;
}
);
};
layerId = "FB6FC9BF-E19F-46FE-A1D2-CE8449A479A4";
name = "Mar 4 20, 20:19";
shapes = (
{
closed = 1;
nodes = (
(20,500,o),
(20,250,o),
(20,0,c),
(420,0,l),
(420,109,o),
(420,332,o),
(420,334,c),
(420,329,o),
(420,350,o),
(420,466,c),
(420,467,o),
(421,468,o),
(422,468,cs),
(523,468,ls),
(583,468,o),
(608,435,o),
(608,401,cs),
(608,368,o),
(583,335,o),
(523,335,cs),
(420,335,l),
(423,328,o),
(426,319,o),
(429,312,c),
(469,208,o),
(509,104,o),
(549,0,c),
(1059,0,l),
(967,198,l),
(622,213,ls),
(622,213,o),
(622,215,o),
(622,215,c),
(622,215,o),
(622,217,o),
(622,217,cs),
(633,217,o),
(643,217,o),
(654,217,cs),
(889,217,o),
(1035,321,o),
(1035,492,cs),
(1035,623,o),
(936,750,o),
(737,750,cs),
(20,750,l)
);
}
);
width = 1039;
},
{
anchors = (
{
name = bottom;
pos = (565,0);
},
{
name = top;
pos = (565,750);
}
);
associatedMasterId = "F6D8640C-383C-48A8-B63C-DDE9F10207CE";
background = {
shapes = (
{
ref = P;
}
);
};
layerId = "B985B4D1-367F-418E-BA78-75A81C45820E";
name = "Mar 4 20, 20:20";
shapes = (
{
closed = 1;
nodes = (
(20,500,o),
(20,250,o),
(20,0,c),
(420,0,l),
(420,109,o),
(420,332,o),
(420,334,c),
(420,329,o),
(420,350,o),
(420,466,c),
(420,467,o),
(421,468,o),
(422,468,cs),
(523,468,ls),
(583,468,o),
(608,435,o),
(608,401,cs),
(608,368,o),
(583,335,o),
(523,335,cs),
(420,335,l),
(423,328,o),
(426,319,o),
(429,312,c),
(469,208,o),
(509,104,o),
(549,0,c),
(1059,0,l),
(967,198,l),
(622,213,ls),
(622,213,o),
(622,215,o),
(622,215,c),
(622,215,o),
(622,217,o),
(622,217,cs),
(633,217,o),
(643,217,o),
(654,217,cs),
(889,217,o),
(1035,321,o),
(1035,492,cs),
(1035,623,o),
(936,750,o),
(737,750,cs),
(20,750,l)
);
}
);
width = 1039;
},
{
anchors = (
{
name = bottom;
pos = (565,0);
},
{
name = top;
pos = (565,750);
}
);
associatedMasterId = "F6D8640C-383C-48A8-B63C-DDE9F10207CE";
background = {
shapes = (
{
ref = P;
}
);
};
layerId = "ACAF4F6B-12D6-4E60-8D05-BB672519BA7B";
name = "Mar 4 20, 21:40";
shapes = (
{
closed = 1;
nodes = (
(20,500,o),
(20,250,o),
(20,0,c),
(420,0,l),
(420,109,o),
(420,332,o),
(420,334,c),
(420,329,o),
(420,351,o),
(420,473,c),
(420,474,o),
(421,475,o),
(422,475,cs),
(528,475,ls),
(592,475,o),
(618,440,o),
(618,405,cs),
(618,370,o),
(592,335,o),
(528,335,cs),
(420,335,l),
(423,328,o),
(426,319,o),
(429,312,c),
(469,208,o),
(509,104,o),
(549,0,c),
(1069,0,l),
(963,217,l),
(628,218,ls),
(628,218,o),
(628,220,o),
(628,220,c),
(628,220,o),
(628,222,o),
(628,222,cs),
(639,222,o),
(650,222,o),
(660,222,cs),
(893,222,o),
(1038,326,o),
(1038,494,cs),
(1038,624,o),
(940,750,o),
(743,750,cs),
(20,750,l)
);
}
);
width = 1049;
},
{
anchors = (
{
name = bottom;
pos = (565,0);
},
{
name = top;
pos = (565,750);
}
);
associatedMasterId = "F6D8640C-383C-48A8-B63C-DDE9F10207CE";
background = {
shapes = (
{
ref = P;
}
);
};
layerId = "15C1A67D-6155-4D1E-850B-9327A678BE2F";
name = "Mar 16 20, 02:59";
shapes = (
{
closed = 1;
nodes = (
(20,500,o),
(20,250,o),
(20,0,c),
(420,0,l),
(420,109,o),
(420,303,o),
(420,305,c),
(420,300,o),
(420,313,o),
(420,444,c),
(420,445,o),
(421,446,o),
(422,446,cs),
(536,446,ls),
(590,446,o),
(617,411,o),
(617,376,cs),
(617,341,o),
(590,306,o),
(536,306,cs),
(420,306,l),
(407,336,o),
(529,47,o),
(549,0,c),
(1069,0,l),
(925,297,l),
(664,297,ls),
(664,297,o),
(664,299,o),
(664,299,c),
(664,299,o),
(664,301,o),
(664,301,cs),
(674,301,o),
(683,301,o),
(691,301,cs),
(888,301,o),
(1010,393,o),
(1010,535,cs),
(1010,644,o),
(927,750,o),
(761,750,cs),
(20,750,l)
);
},
{
closed = 0;
nodes = (
(541,303,l)
);
}
);
width = 1049;
},
{
anchors = (
{
name = bottom;
pos = (565,0);
},
{
name = top;
pos = (565,750);
}
);
associatedMasterId = "F6D8640C-383C-48A8-B63C-DDE9F10207CE";
background = {
shapes = (
{
ref = P;
}
);
};
layerId = "16A8DC23-3E3B-4F1B-8DCA-ACDD1858C55E";
name = "Mar 16 20, 03:16";
shapes = (
{
closed = 1;
nodes = (
(20,500,o),
(20,250,o),
(20,0,c),
(420,0,l),
(420,109,o),
(420,303,o),
(420,305,c),
(420,300,o),
(420,313,o),
(420,444,c),
(420,445,o),
(421,446,o),
(422,446,cs),
(536,446,ls),
(590,446,o),
(617,411,o),
(617,376,cs),
(617,341,o),
(590,306,o),
(536,306,cs),
(420,306,l),
(459,204,o),
(498,102,o),
(537,0,c),
(1037,0,l),
(874,297,l),
(664,297,ls),
(664,297,o),
(664,299,o),
(664,299,c),
(664,299,o),
(664,301,o),
(664,301,cs),
(674,301,o),
(683,301,o),
(691,301,cs),
(888,301,o),
(1010,393,o),
(1010,535,cs),
(1010,644,o),
(927,750,o),
(761,750,cs),
(20,750,l)
);
}
);
width = 1017;
},
{
anchors = (
{
name = bottom;
pos = (515,0);
},
{
name = top;
pos = (515,750);
}
);
layerId = "96858A69-C8A6-410B-90BB-94EA0DA45935";
shapes = (
{
closed = 1;
nodes = (
(187,606,o),
(195,557,o),
(195,505,cs),
(195,355,o),
(133,176,o),
(147,115,c),
(284,115,l),
(271,151,o),
(265,181,o),
(265,205,cs),
(265,287,o),
(331,306,o),
(393,306,c),
(295,306,o),
(245,406,o),
(245,482,cs),
(245,562,o),
(301,645,o),
(414,645,cs),
(613,645,ls),
(686,645,o),
(776,584,o),
(776,475,cs),
(776,365,o),
(690,306,o),
(651,306,cs),
(473,306,l),
(577,287,o),
(592,204,o),
(597,115,c),
(889,115,l),
(848,203,l),
(677,203,ls),
(623,203,o),
(559,220,o),
(559,278,cs),
(559,301,o),
(579,306,o),
(591,306,cs),
(602,306,o),
(652,306,o),
(658,306,cs),
(805,306,o),
(890,388,o),
(890,490,cs),
(890,569,o),
(820,645,o),
(700,645,cs),
(167,645,l)
);
}
);
width = 1039;
},
{
anchors = (
{
name = bottom;
pos = (565,0);
},
{
name = top;
pos = (565,750);
}
);
associatedMasterId = "F6D8640C-383C-48A8-B63C-DDE9F10207CE";
background = {
shapes = (
{
ref = P;
}
);
};
layerId = "FE89A8D7-7ADB-408C-B5CC-8C8021AA3E11";
name = "Mar 18 20, 11:16";
shapes = (
{
closed = 1;
nodes = (
(20,500,o),
(20,250,o),
(20,0,c),
(420,0,l),
(420,109,o),
(420,303,o),
(420,305,c),
(420,300,o),
(420,313,o),
(420,444,c),
(420,445,o),
(421,446,o),
(422,446,cs),
(536,446,ls),
(590,446,o),
(617,411,o),
(617,376,cs),
(617,341,o),
(590,306,o),
(536,306,cs),
(420,306,l),
(459,204,o),
(498,102,o),
(537,0,c),
(1037,0,l),
(878,297,l),
(631,297,ls),
(631,297,o),
(631,299,o),
(631,299,c),
(631,299,o),
(631,301,o),
(631,301,cs),
(641,301,o),
(650,301,o),
(658,301,cs),
(875,301,o),
(1010,393,o),
(1010,535,cs),
(1010,644,o),
(927,750,o),
(761,750,cs),
(20,750,l)
);
}
);
width = 1017;
},
{
anchors = (
{
name = bottom;
pos = (534,0);
},
{
name = top;
pos = (534,750);
}
);
associatedMasterId = "96858A69-C8A6-410B-90BB-94EA0DA45935";
layerId = "0EE7D7C6-0DF0-45F1-A563-F51934D41029";
name = "Mar 11 20, 20:48";
shapes = (
{
closed = 1;
nodes = (
(254,499,o),
(145,228,o),
(145,115,c),
(303,115,l),
(256,281,o),
(308,331,o),
(392,334,c),
(328,333,o),
(288,356,o),
(283,429,cs),
(275,540,o),
(319,645,o),
(406,645,cs),
(610,645,ls),
(698,645,o),
(755,544,o),
(755,450,cs),
(755,406,o),
(742,363,o),
(715,334,c),
(446,334,l),
(507,334,o),
(544,299,o),
(568,246,cs),
(584,210,o),
(594,164,o),
(597,115,c),
(889,115,l),
(847,205,l),
(703,205,ls),
(657,205,o),
(605,213,o),
(579,246,cs),
(554,277,o),
(570,334,o),
(622,334,cs),
(723,334,o),
(700,334,o),
(724,334,cs),
(825,334,o),
(885,411,o),
(885,488,cs),
(885,566,o),
(823,645,o),
(679,645,cs),
(161,645,l)
);
}
);
width = 1039;
},
{
anchors = (
{
name = bottom;
pos = (511,0);
},
{
name = top;
pos = (511,750);
}
);
associatedMasterId = "F6D8640C-383C-48A8-B63C-DDE9F10207CE";
layerId = "B25AE88D-2442-45A8-AAE6-D00020CFD982";
name = "15 May 21, 16:26";
shapes = (
{
closed = 1;
nodes = (
(20,500,o),
(20,250,o),
(20,0,c),
(420,0,l),
(420,109,o),
(420,303,o),
(420,305,c),
(420,300,o),
(420,313,o),
(420,444,c),
(420,445,o),
(421,446,o),
(422,446,cs),
(536,446,ls),
(590,446,o),
(617,411,o),
(617,376,cs),
(617,341,o),
(590,306,o),
(536,306,cs),
(420,306,l),
(459,204,o),
(498,102,o),
(537,0,c),
(1037,0,l),
(878,297,l),
(631,297,ls),
(631,297,o),
(631,299,o),
(631,299,c),
(631,299,o),
(631,301,o),
(631,301,cs),
(641,301,o),
(697,301,o),
(705,301,cs),
(895,301,o),
(990,418,o),
(990,533,cs),
(990,643,o),
(903,750,o),
(728,750,cs),
(20,750,l)
);
}
);
width = 1029;
},
{
anchors = (
{
name = bottom;
pos = (515,0);
},
{
name = top;
pos = (515,750);
}
);
associatedMasterId = "96858A69-C8A6-410B-90BB-94EA0DA45935";
layerId = "2F58BC5A-5822-4506-9513-A1BCE406F503";
name = "15 May 21, 16:26";
shapes = (
{
closed = 1;
nodes = (
(246,492,o),
(128,197,o),
(147,115,c),
(284,115,l),
(225,274,o),
(313,306,o),
(393,306,c),
(295,306,o),
(245,406,o),
(245,482,cs),
(245,562,o),
(301,645,o),
(414,645,cs),
(613,645,ls),
(686,645,o),
(776,584,o),
(776,475,cs),
(776,365,o),
(690,306,o),
(651,306,cs),
(473,306,l),
(577,287,o),
(592,204,o),
(597,115,c),
(889,115,l),
(848,203,l),
(677,203,ls),
(623,203,o),
(559,220,o),
(559,278,cs),
(559,301,o),
(579,306,o),
(591,306,cs),
(602,306,o),
(652,306,o),
(658,306,cs),
(805,306,o),
(890,388,o),
(890,490,cs),
(890,569,o),
(820,645,o),
(700,645,cs),
(167,645,l)
);
}
);
width = 1039;
},
{
anchors = (
{
name = bottom;
pos = (511,0);
},
{
name = top;
pos = (511,750);
}
);
associatedMasterId = "F6D8640C-383C-48A8-B63C-DDE9F10207CE";
layerId = "77E955A7-5190-40E9-B4D0-F2A090618121";
name = "24 Jun 21, 13:28";
shapes = (
{
closed = 1;
nodes = (
(20,671,o),
(20,593,o),
(20,514,cs),
(20,343,o),
(20,171,o),
(20,0,c),
(420,0,l),
(420,65,o),
(420,159,o),
(420,225,cs),
(420,271,o),
(420,304,o),
(420,305,c),
(420,300,o),
(420,313,o),
(420,444,c),
(420,445,o),
(421,446,o),
(422,446,cs),
(536,446,ls),
(590,446,o),
(617,411,o),
(617,376,cs),
(617,341,o),
(590,306,o),
(536,306,cs),
(420,306,l),
(459,204,o),
(498,102,o),
(537,0,c),
(1037,0,l),
(878,297,l),
(631,297,ls),
(631,297,o),
(631,299,o),
(631,299,c),
(631,299,o),
(631,301,o),
(631,301,cs),
(641,301,o),
(697,301,o),
(705,301,cs),
(895,301,o),
(990,418,o),
(990,533,cs),
(990,643,o),
(903,750,o),
(728,750,cs),
(20,750,l)
);
}
);
width = 1029;
},
{
anchors = (
{
name = bottom;
pos = (511,0);
},
{
name = top;
pos = (511,750);
}
);
associatedMasterId = "F6D8640C-383C-48A8-B63C-DDE9F10207CE";
layerId = "E7EAAC5A-128A-4FCF-9AFD-85D31FB36B38";
name = "18 Aug 21, 14:49";
shapes = (
{
closed = 1;
nodes = (
(20,671,o),
(20,593,o),
(20,514,cs),
(20,343,o),
(20,171,o),
(20,0,c),
(420,0,l),
(420,65,o),
(420,159,o),
(420,225,cs),
(420,271,o),
(420,304,o),
(420,305,c),
(420,300,o),
(420,313,o),
(420,444,c),
(420,445,o),
(421,446,o),
(422,446,cs),
(536,446,ls),
(590,446,o),
(617,411,o),
(617,376,cs),
(617,341,o),
(590,306,o),
(536,306,cs),
(420,306,l),
(459,204,o),
(498,102,o),
(537,0,c),
(1027,0,l),
(868,297,l),
(631,297,ls),
(631,297,o),
(631,299,o),
(631,299,c),
(631,299,o),
(631,301,o),
(631,301,cs),
(641,301,o),
(697,301,o),
(705,301,cs),
(895,301,o),
(990,418,o),
(990,533,cs),
(990,643,o),
(903,750,o),
(728,750,cs),
(20,750,l)
);
}
);
width = 1028;
}
);
unicode = 82;
},
{
color = 6;
glyphname = S;
kernLeft = S;
kernRight = S;
lastChange = "2021-09-04 11:15:36 +0000";
layers = (
{
anchors = (
{
name = bottom;
pos = (521,0);
},
{
name = top;
pos = (521,750);
}
);
associatedMasterId = "F6D8640C-383C-48A8-B63C-DDE9F10207CE";
layerId = "FA0D37E6-55DA-429D-AF0E-2DDD7F9A6D8A";
name = "Mar 4 20, 18:12";
shapes = (
{
closed = 1;
nodes = (
(525,456,o),
(516,456,o),
(508,456,cs),
(453,456,o),
(430,460,o),
(430,489,cs),
(430,516,o),
(460,540,o),
(516,540,cs),
(573,540,o),
(625,511,o),
(601,456,c),
(1005,504,l),
(1016,690,o),
(820,785,o),
(517,785,cs),
(247,785,o),
(10,700,o),
(10,519,cs),
(10,389,o),
(135,292,o),
(482,292,cs),
(489,292,o),
(496,292,o),
(503,292,cs),
(588,292,o),
(617,283,o),
(617,258,cs),
(617,231,o),
(585,206,o),
(530,206,cs),
(443,206,o),
(407,239,o),
(423,294,c),
(12,240,l),
(4,56,o),
(218,-35,o),
(521,-35,cs),
(793,-35,o),
(1034,46,o),
(1034,228,cs),
(1034,369,o),
(929,465,o),
(534,456,cs)
);
}
);
width = 1039;
},
{
anchors = (
{
name = bottom;
pos = (521,0);
},
{
name = top;
pos = (521,750);
}
);
associatedMasterId = "F6D8640C-383C-48A8-B63C-DDE9F10207CE";
layerId = "B0FFBECA-E283-4673-811E-E8885E8A8E27";
name = "Mar 4 20, 18:12";
shapes = (
{
closed = 1;
nodes = (
(525,456,o),
(516,456,o),
(508,456,cs),
(453,456,o),
(430,460,o),
(430,489,cs),
(430,521,o),
(460,535,o),
(516,535,cs),
(573,535,o),
(625,514,o),
(601,454,c),
(1005,504,l),
(1016,690,o),
(820,785,o),
(517,785,cs),
(247,785,o),
(10,700,o),
(10,519,cs),
(10,389,o),
(135,292,o),
(482,292,cs),
(489,292,o),
(496,292,o),
(503,292,cs),
(588,292,o),
(617,283,o),
(617,258,cs),
(617,226,o),
(585,211,o),
(530,211,cs),
(473,211,o),
(407,234,o),
(423,294,c),
(12,240,l),
(4,56,o),
(218,-35,o),
(521,-35,cs),
(793,-35,o),
(1034,46,o),
(1034,228,cs),
(1034,369,o),
(929,465,o),
(534,456,cs)
);
}
);
width = 1042;
},
{
anchors = (
{
name = bottom;
pos = (516,0);
},
{
name = top;
pos = (516,750);
}
);
associatedMasterId = "F6D8640C-383C-48A8-B63C-DDE9F10207CE";
layerId = "DF581557-90C6-4581-9331-B9E4657885A7";
name = "Mar 4 20, 18:19";
shapes = (
{
closed = 1;
nodes = (
(520,444,o),
(511,444,o),
(503,444,cs),
(448,444,o),
(425,447,o),
(425,472,cs),
(425,504,o),
(455,521,o),
(511,521,cs),
(568,521,o),
(620,503,o),
(596,442,c),
(1000,504,l),
(1000,692,o),
(835,785,o),
(512,785,cs),
(224,785,o),
(5,700,o),
(5,519,cs),
(5,389,o),
(130,292,o),
(477,304,cs),
(484,304,o),
(491,304,o),
(498,304,cs),
(593,304,o),
(612,296,o),
(612,275,cs),
(612,238,o),
(580,225,o),
(525,225,cs),
(468,225,o),
(419,242,o),
(426,303,c),
(7,240,l),
(-1,56,o),
(193,-35,o),
(516,-35,cs),
(806,-35,o),
(1029,46,o),
(1029,228,cs),
(1029,369,o),
(924,465,o),
(529,444,cs)
);
}
);
width = 1034;
},
{
anchors = (
{
name = bottom;
pos = (517,0);
},
{
name = top;
pos = (517,750);
}
);
associatedMasterId = "F6D8640C-383C-48A8-B63C-DDE9F10207CE";
background = {
shapes = (
{
pos = (-39,0);
ref = O;
}
);
};
layerId = "4F8127C2-8C57-4727-A6AC-C441F30447B7";
name = "Mar 4 20, 18:29";
shapes = (
{
closed = 1;
nodes = (
(526,448,o),
(517,448,o),
(509,448,cs),
(453,448,o),
(430,461,o),
(430,486,cs),
(430,548,o),
(655,554,o),
(615,447,c),
(1031,447,l),
(1071,661,o),
(864,785,o),
(538,785,cs),
(247,785,o),
(5,692,o),
(5,519,cs),
(5,409,o),
(102,292,o),
(483,304,cs),
(490,304,o),
(497,304,o),
(504,304,cs),
(600,304,o),
(624,295,o),
(629,275,cs),
(649,191,o),
(400,193,o),
(431,303,c),
(18,303,l),
(-2,58,o),
(206,-35,o),
(532,-35,cs),
(825,-35,o),
(1060,46,o),
(1060,228,cs),
(1060,389,o),
(934,448,o),
(535,448,cs)
);
}
);
width = 1045;
},
{
anchors = (
{
name = bottom;
pos = (517,0);
},
{
name = top;
pos = (517,750);
}
);
associatedMasterId = "F6D8640C-383C-48A8-B63C-DDE9F10207CE";
background = {
shapes = (
{
pos = (-39,0);
ref = O;
}
);
};
layerId = "A39C9FA7-1743-4FDE-BE9F-2267459D6E55";
name = "Mar 4 20, 18:30";
shapes = (
{
closed = 1;
nodes = (
(526,448,o),
(517,448,o),
(509,448,cs),
(453,448,o),
(430,461,o),
(430,486,cs),
(430,548,o),
(655,554,o),
(615,447,c),
(1031,469,l),
(1071,661,o),
(864,785,o),
(538,785,cs),
(247,785,o),
(5,692,o),
(5,519,cs),
(5,409,o),
(102,292,o),
(483,304,cs),
(490,304,o),
(497,304,o),
(504,304,cs),
(600,304,o),
(624,295,o),
(629,275,cs),
(649,191,o),
(400,193,o),
(431,303,c),
(18,281,l),
(-2,58,o),
(206,-35,o),
(532,-35,cs),
(825,-35,o),
(1059,56,o),
(1059,228,cs),
(1059,389,o),
(934,448,o),
(535,448,cs)
);
}
);
width = 1065;
},
{
anchors = (
{
name = bottom;
pos = (512,0);
},
{
name = top;
pos = (512,750);
}
);
associatedMasterId = "F6D8640C-383C-48A8-B63C-DDE9F10207CE";
background = {
shapes = (
{
pos = (-44,0);
ref = O;
}
);
};
layerId = "99003914-4CDF-47B1-A018-4F582A2FF202";
name = "Mar 4 20, 18:35";
shapes = (
{
closed = 1;
nodes = (
(521,448,o),
(512,448,o),
(504,448,cs),
(448,448,o),
(425,456,o),
(425,481,cs),
(425,509,o),
(461,530,o),
(517,530,cs),
(584,530,o),
(639,505,o),
(617,446,c),
(1026,469,l),
(1066,661,o),
(859,785,o),
(533,785,cs),
(242,785,o),
(0,692,o),
(0,519,cs),
(0,409,o),
(97,292,o),
(478,304,cs),
(485,304,o),
(492,304,o),
(499,304,cs),
(570,304,o),
(632,304,o),
(632,265,cs),
(632,232,o),
(589,216,o),
(534,216,cs),
(464,216,o),
(409,244,o),
(426,303,c),
(3,281,l),
(-17,58,o),
(201,-35,o),
(527,-35,cs),
(820,-35,o),
(1054,56,o),
(1054,228,cs),
(1054,389,o),
(929,448,o),
(530,448,cs)
);
}
);
width = 1054;
},
{
anchors = (
{
name = bottom;
pos = (539,0);
},
{
name = top;
pos = (539,750);
}
);
associatedMasterId = "F6D8640C-383C-48A8-B63C-DDE9F10207CE";
background = {
shapes = (
{
pos = (-37,0);
ref = O;
}
);
};
layerId = "3A565BAD-6248-419E-9BCC-23706B7DEF59";
name = "06 May 21, 12:44";
shapes = (
{
closed = 1;
nodes = (
(528,448,o),
(520,448,o),
(512,448,cs),
(458,448,o),
(436,456,o),
(436,481,cs),
(436,508,o),
(471,529,o),
(524,529,cs),
(588,529,o),
(641,504,o),
(620,446,c),
(1033,469,l),
(1073,661,o),
(866,785,o),
(540,785,cs),
(249,785,o),
(7,692,o),
(7,519,cs),
(7,409,o),
(106,292,o),
(487,304,cs),
(494,304,o),
(500,304,o),
(507,304,cs),
(575,304,o),
(634,304,o),
(634,265,cs),
(634,232,o),
(593,216,o),
(541,216,cs),
(474,216,o),
(421,244,o),
(437,303,c),
(10,281,l),
(-10,58,o),
(208,-35,o),
(534,-35,cs),
(827,-35,o),
(1061,56,o),
(1061,228,cs),
(1061,389,o),
(936,448,o),
(537,448,cs)
);
}
);
width = 1068;
},
{
anchors = (
{
name = bottom;
pos = (536,0);
},
{
name = top;
pos = (536,750);
}
);
associatedMasterId = "F6D8640C-383C-48A8-B63C-DDE9F10207CE";
layerId = "26C66E4D-E0E9-4068-9BFD-E6C001427732";
name = "15 May 21, 16:27";
shapes = (
{
closed = 1;
nodes = (
(528,448,o),
(520,448,o),
(512,448,cs),
(458,448,o),
(436,456,o),
(436,481,cs),
(436,508,o),
(471,529,o),
(524,529,cs),
(588,529,o),
(641,504,o),
(620,446,c),
(1033,469,l),
(1073,661,o),
(866,785,o),
(539,785,cs),
(249,785,o),
(7,692,o),
(7,519,cs),
(7,392,o),
(111,304,o),
(487,304,cs),
(494,304,o),
(505,304,o),
(512,304,cs),
(593,304,o),
(634,297,o),
(634,265,cs),
(634,232,o),
(593,216,o),
(541,216,cs),
(474,216,o),
(421,244,o),
(437,304,c),
(10,281,l),
(-10,58,o),
(208,-35,o),
(534,-35,cs),
(827,-35,o),
(1061,56,o),
(1061,228,cs),
(1061,389,o),
(936,448,o),
(537,448,cs)
);
}
);
width = 1068;
},
{
anchors = (
{
name = bottom;
pos = (537,-9);
},
{
name = top;
pos = (517,750);
}
);
associatedMasterId = "96858A69-C8A6-410B-90BB-94EA0DA45935";
background = {
shapes = (
{
pos = (-62,0);
ref = C;
}
);
};
layerId = "B140CD71-D143-4017-984F-F29A26978D95";
name = "15 May 21, 16:27";
shapes = (
{
closed = 1;
nodes = (
(654,373,o),
(403,373,o),
(395,373,cs),
(320,373,o),
(290,441,o),
(290,471,cs),
(290,590,o),
(470,659,o),
(579,659,cs),
(680,659,o),
(674,582,o),
(674,532,c),
(857,568,l),
(777,613,o),
(641,699,o),
(446,674,cs),
(369,664,o),
(430,582,o),
(154,494,cs),
(91,474,o),
(189,373,o),
(384,373,cs),
(434,373,o),
(647,373,o),
(654,373,cs),
(724,373,o),
(753,337,o),
(753,273,cs),
(753,236,o),
(695,106,o),
(531,106,cs),
(434,106,o),
(373,177,o),
(353,206,c),
(150,158,l),
(196,118,o),
(399,102,o),
(572,102,cs),
(732,102,o),
(923,142,o),
(923,247,cs),
(923,318,o),
(831,373,o),
(664,373,cs)
);
}
);
width = 1028;
},
{
anchors = (
{
name = bottom;
pos = (537,-9);
},
{
name = top;
pos = (517,750);
}
);
associatedMasterId = "96858A69-C8A6-410B-90BB-94EA0DA45935";
layerId = "0A82D878-F5B5-4A33-B998-B95752FB58B5";
name = "17 May 21, 17:36";
shapes = (
{
closed = 1;
nodes = (
(654,358,o),
(403,358,o),
(395,358,cs),
(320,358,o),
(290,426,o),
(290,456,cs),
(290,578,o),
(470,644,o),
(579,644,cs),
(680,644,o),
(674,567,o),
(674,517,c),
(857,553,l),
(777,598,o),
(641,684,o),
(446,659,cs),
(369,649,o),
(430,567,o),
(154,479,cs),
(91,459,o),
(189,358,o),
(384,358,cs),
(434,358,o),
(647,358,o),
(654,358,cs),
(724,358,o),
(753,322,o),
(753,258,cs),
(753,221,o),
(695,105,o),
(545,105,cs),
(434,105,o),
(373,175,o),
(353,204,c),
(150,156,l),
(196,116,o),
(389,100,o),
(545,100,cs),
(722,100,o),
(923,136,o),
(923,232,cs),
(923,303,o),
(831,358,o),
(664,358,cs)
);
}
);
width = 1028;
},
{
anchors = (
{
name = bottom;
pos = (536,0);
},
{
name = top;
pos = (536,750);
}
);
associatedMasterId = "F6D8640C-383C-48A8-B63C-DDE9F10207CE";
layerId = "B2957154-5C5C-4482-A299-83F0D2E5CF79";
name = "24 Jun 21, 13:25";
shapes = (
{
closed = 1;
nodes = (
(528,448,o),
(520,448,o),
(512,448,cs),
(458,448,o),
(436,456,o),
(436,481,cs),
(436,508,o),
(471,529,o),
(524,529,cs),
(588,529,o),
(641,504,o),
(620,446,c),
(1033,469,l),
(1073,661,o),
(866,785,o),
(539,785,cs),
(249,785,o),
(7,692,o),
(7,519,cs),
(7,392,o),
(111,304,o),
(487,304,cs),
(494,304,o),
(505,304,o),
(512,304,cs),
(593,304,o),
(634,297,o),
(634,265,cs),
(634,232,o),
(593,216,o),
(541,216,cs),
(474,216,o),
(421,244,o),
(437,304,c),
(10,281,l),
(-10,58,o),
(208,-35,o),
(534,-35,cs),
(827,-35,o),
(1061,56,o),
(1061,228,cs),
(1061,389,o),
(936,448,o),
(537,448,cs)
);
}
);
width = 1068;
},
{
anchors = (
{
name = bottom;
pos = (541,0);
},
{
name = top;
pos = (541,750);
}
);
layerId = "F6D8640C-383C-48A8-B63C-DDE9F10207CE";
name = Regular;
shapes = (
{
closed = 1;
nodes = (
(533,452,o),
(525,452,o),
(517,452,cs),
(463,452,o),
(441,460,o),
(441,485,cs),
(441,512,o),
(476,533,o),
(529,533,cs),
(593,533,o),
(646,508,o),
(625,450,c),
(1038,469,l),
(1078,658,o),
(871,780,o),
(544,780,cs),
(254,780,o),
(12,689,o),
(12,519,cs),
(12,392,o),
(123,308,o),
(518,307,cs),
(525,307,o),
(536,307,o),
(543,307,cs),
(605,307,o),
(639,301,o),
(639,269,cs),
(639,236,o),
(598,220,o),
(546,220,cs),
(479,220,o),
(426,250,o),
(442,310,c),
(15,281,l),
(-5,62,o),
(213,-30,o),
(539,-30,cs),
(832,-30,o),
(1066,59,o),
(1066,228,cs),
(1066,383,o),
(941,452,o),
(542,452,cs)
);
}
);
width = 1078;
},
{
anchors = (
{
name = bottom;
pos = (538,0);
},
{
name = top;
pos = (538,750);
}
);
associatedMasterId = "F6D8640C-383C-48A8-B63C-DDE9F10207CE";
layerId = "57DC7922-B2F9-4EAB-A71F-C5735044E29C";
name = "18 Aug 21, 15:05";
shapes = (
{
closed = 1;
nodes = (
(530,448,o),
(522,448,o),
(514,448,cs),
(460,448,o),
(438,456,o),
(438,481,cs),
(438,508,o),
(473,529,o),
(526,529,cs),
(590,529,o),
(643,504,o),
(622,446,c),
(1035,469,l),
(1075,661,o),
(868,785,o),
(541,785,cs),
(251,785,o),
(9,692,o),
(9,519,cs),
(9,392,o),
(113,304,o),
(489,304,cs),
(496,304,o),
(507,304,o),
(514,304,cs),
(595,304,o),
(636,297,o),
(636,265,cs),
(636,232,o),
(595,216,o),
(543,216,cs),
(476,216,o),
(423,244,o),
(439,304,c),
(12,281,l),
(-8,58,o),
(210,-35,o),
(536,-35,cs),
(829,-35,o),
(1063,56,o),
(1063,228,cs),
(1063,389,o),
(938,448,o),
(539,448,cs)
);
}
);
width = 1072;
},
{
anchors = (
{
name = bottom;
pos = (538,0);
},
{
name = top;
pos = (538,750);
}
);
associatedMasterId = "F6D8640C-383C-48A8-B63C-DDE9F10207CE";
layerId = "5FB96BC7-F300-4839-84FF-3A7BD69A5A6A";
name = "19 Aug 21, 14:40";
shapes = (
{
closed = 1;
nodes = (
(530,448,o),
(522,448,o),
(514,448,cs),
(460,448,o),
(438,456,o),
(438,481,cs),
(438,508,o),
(473,529,o),
(526,529,cs),
(590,529,o),
(643,504,o),
(622,446,c),
(1035,469,l),
(1075,661,o),
(868,785,o),
(541,785,cs),
(251,785,o),
(9,692,o),
(9,519,cs),
(9,392,o),
(113,304,o),
(489,304,cs),
(496,304,o),
(507,304,o),
(514,304,cs),
(595,304,o),
(636,297,o),
(636,265,cs),
(636,232,o),
(595,216,o),
(543,216,cs),
(476,216,o),
(423,244,o),
(439,304,c),
(12,281,l),
(-8,58,o),
(210,-35,o),
(536,-35,cs),
(829,-35,o),
(1063,56,o),
(1063,228,cs),
(1063,389,o),
(938,448,o),
(539,448,cs)
);
}
);
width = 1072;
},
{
anchors = (
{
name = bottom;
pos = (538,0);
},
{
name = top;
pos = (538,750);
}
);
associatedMasterId = "F6D8640C-383C-48A8-B63C-DDE9F10207CE";
layerId = "BFDF2886-7C2E-4DE3-AB9A-08ED44E92D42";
name = "20 Aug 21, 13:21";
shapes = (
{
closed = 1;
nodes = (
(530,452,o),
(522,452,o),
(514,452,cs),
(460,452,o),
(438,460,o),
(438,485,cs),
(438,512,o),
(473,533,o),
(526,533,cs),
(590,533,o),
(643,508,o),
(622,450,c),
(1035,469,l),
(1075,661,o),
(868,785,o),
(541,785,cs),
(251,785,o),
(9,692,o),
(9,519,cs),
(9,392,o),
(120,308,o),
(515,307,cs),
(522,307,o),
(533,307,o),
(540,307,cs),
(602,308,o),
(636,301,o),
(636,269,cs),
(636,236,o),
(595,220,o),
(543,220,cs),
(476,220,o),
(423,250,o),
(439,310,c),
(12,281,l),
(-8,58,o),
(210,-35,o),
(536,-35,cs),
(829,-35,o),
(1063,56,o),
(1063,228,cs),
(1063,383,o),
(938,452,o),
(539,452,cs)
);
}
);
width = 1072;
},
{
anchors = (
{
name = bottom;
pos = (537,0);
},
{
name = top;
pos = (517,750);
}
);
background = {
shapes = (
{
ref = C;
}
);
};
layerId = "96858A69-C8A6-410B-90BB-94EA0DA45935";
name = "2050";
shapes = (
{
closed = 1;
nodes = (
(654,358,o),
(403,358,o),
(395,358,cs),
(320,358,o),
(290,417,o),
(290,456,cs),
(290,579,o),
(470,644,o),
(579,644,cs),
(666,644,o),
(677,589,o),
(674,517,c),
(857,553,l),
(744,621,o),
(614,681,o),
(446,659,cs),
(369,649,o),
(430,567,o),
(154,479,cs),
(91,459,o),
(189,358,o),
(384,358,cs),
(434,358,o),
(647,358,o),
(654,358,cs),
(724,358,o),
(753,324,o),
(753,260,cs),
(753,211,o),
(695,107,o),
(546,107,cs),
(434,107,o),
(373,177,o),
(353,206,c),
(150,158,l),
(196,118,o),
(389,102,o),
(545,102,cs),
(722,102,o),
(923,138,o),
(923,234,cs),
(923,305,o),
(831,358,o),
(664,358,cs)
);
}
);
width = 1028;
},
{
anchors = (
{
name = bottom;
pos = (537,0);
},
{
name = top;
pos = (517,750);
}
);
associatedMasterId = "96858A69-C8A6-410B-90BB-94EA0DA45935";
background = {
shapes = (
{
ref = C;
}
);
};
layerId = "BCEFC9BF-837C-4869-BE9C-3F9DA6549BBE";
name = "31 Aug 21, 09:31";
shapes = (
{
closed = 1;
nodes = (
(654,358,o),
(403,358,o),
(395,358,cs),
(320,358,o),
(290,426,o),
(290,456,cs),
(290,578,o),
(470,644,o),
(579,644,cs),
(666,644,o),
(677,589,o),
(674,517,c),
(857,553,l),
(744,621,o),
(614,681,o),
(446,659,cs),
(369,649,o),
(430,567,o),
(154,479,cs),
(91,459,o),
(189,358,o),
(384,358,cs),
(434,358,o),
(647,358,o),
(654,358,cs),
(724,358,o),
(753,322,o),
(753,258,cs),
(753,221,o),
(695,106,o),
(546,106,cs),
(434,106,o),
(373,175,o),
(353,204,c),
(150,156,l),
(196,116,o),
(389,100,o),
(545,100,cs),
(722,100,o),
(923,136,o),
(923,232,cs),
(923,303,o),
(831,358,o),
(664,358,cs)
);
}
);
width = 1028;
}
);
unicode = 83;
},
